<svg viewBox="0 0 24 17" fill="none" xmlns="http://www.w3.org/2000/svg">
    <path d="M5.528 16.168C7.896 16.168 9.752 14.312 9.752 11.88C9.752 9.32 7.192 7.08 3.736 8.232C3.864 4.776 6.872 2.216 9.752 1.576V0.103996C4.12 0.679996 0.536 4.84 0.536 10.664C0.536 13.928 2.648 16.168 5.528 16.168ZM12.504 10.664C12.504 13.928 14.616 16.168 17.496 16.168C19.864 16.168 21.72 14.312 21.72 11.88C21.72 9.32 19.16 7.08 15.704 8.232C15.832 4.776 18.84 2.216 21.72 1.576V0.103996C16.088 0.679996 12.504 4.84 12.504 10.664Z" fill="white"/>
</svg>
