<svg viewBox="0 0 72 72" fill="none" xmlns="http://www.w3.org/2000/svg">
    <g opacity="0.35">
        <path d="M46.4854 28.4668C47.728 28.4668 48.7354 27.4594 48.7354 26.2168C48.7354 24.9742 47.728 23.9668 46.4854 23.9668L46.4854 28.4668ZM26.9622 23.9668C25.7195 23.9668 24.7122 24.9742 24.7122 26.2168C24.7122 27.4594 25.7195 28.4668 26.9622 28.4668L26.9622 23.9668ZM46.4854 23.9668L26.9622 23.9668L26.9622 28.4668L46.4854 28.4668L46.4854 23.9668Z" fill="#1A1B1C"/>
        <path d="M46.4854 37.4669C47.728 37.4669 48.7354 36.4596 48.7354 35.2169C48.7354 33.9743 47.728 32.9669 46.4854 32.9669V37.4669ZM26.9622 32.9669C25.7195 32.9669 24.7122 33.9743 24.7122 35.2169C24.7122 36.4596 25.7195 37.4669 26.9622 37.4669V32.9669ZM46.4854 46.4726C47.728 46.4726 48.7354 45.4653 48.7354 44.2226C48.7354 42.98 47.728 41.9726 46.4854 41.9726V46.4726ZM26.9622 41.9726C25.7195 41.9726 24.7122 42.98 24.7122 44.2226C24.7122 45.4653 25.7195 46.4726 26.9622 46.4726V41.9726ZM46.4854 32.9669H26.9622V37.4669H46.4854V32.9669ZM46.4854 41.9726H26.9622V46.4726H46.4854V41.9726Z" fill="#1A1B1C"/>
        <path d="M9.09099 65.2624C9.09099 66.505 10.0984 67.5124 11.341 67.5124C12.5836 67.5124 13.591 66.505 13.591 65.2624L9.09099 65.2624ZM11.341 6.73242L11.341 4.48242C10.0984 4.48242 9.091 5.48978 9.091 6.73242L11.341 6.73242ZM60.6606 65.2623L60.6606 67.5123C61.9033 67.5123 62.9106 66.505 62.9106 65.2623L60.6606 65.2623ZM23.25 63.0123C22.0074 63.0123 21 64.0197 21 65.2623C21 66.505 22.0074 67.5123 23.25 67.5123L23.25 63.0123ZM49.5609 6.73242L51.2526 5.24896C50.8254 4.76177 50.2089 4.48242 49.5609 4.48242L49.5609 6.73242ZM60.6606 19.3902L62.9106 19.3902C62.9106 18.8444 62.7122 18.3171 62.3523 17.9067L60.6606 19.3902ZM13.591 65.2624L13.591 6.73242L9.091 6.73242L9.09099 65.2624L13.591 65.2624ZM60.6606 63.0123L23.25 63.0123L23.25 67.5123L60.6606 67.5123L60.6606 63.0123ZM11.341 8.98242L49.5609 8.98242L49.5609 4.48242L11.341 4.48242L11.341 8.98242ZM58.4106 19.3902L58.4106 65.2623L62.9106 65.2623L62.9106 19.3902L58.4106 19.3902ZM47.8692 8.21589L58.9689 20.8737L62.3523 17.9067L51.2526 5.24896L47.8692 8.21589Z" fill="#1A1B1C"/>
    </g>
</svg>
