<svg viewBox="0 0 232 164" fill="none" xmlns="http://www.w3.org/2000/svg">
    <path d="M196.652 107.94V8.50624C196.652 4.38385 193.31 1.04199 189.188 1.04199H16.8129C12.6905 1.04199 9.34863 4.38386 9.34863 8.50624V124.813C9.34863 128.936 12.6905 132.277 16.8129 132.277H77.6542H146.129" stroke="#1A1B1C" stroke-width="1.8" stroke-linecap="round"/>
    <path d="M1.33887 163.084L196.96 163.084" stroke="#1A1B1C" stroke-width="1.8" stroke-linecap="round" stroke-linejoin="round"/>
    <path d="M150.854 112.561H182.828H214.801C215.289 123.218 217.115 138.119 205.907 147.558C199.478 152.973 197.315 160.041 196.87 162.425H182.828H168.785C168.34 160.041 166.176 152.973 159.747 147.558C148.54 138.119 150.366 123.218 150.854 112.561Z" fill="#1A1B1C" stroke="#1A1B1C" stroke-width="2.5" stroke-linecap="round" stroke-linejoin="round"/>
    <path d="M215.14 124.26C217.64 121.816 223.839 118.395 228.638 124.26C234.637 131.592 227.304 141.424 219.139 143.757C210.974 146.09 200.965 152.132 198 158.305" stroke="#1A1B1C" stroke-width="1.8" stroke-linecap="round" stroke-linejoin="round"/>
    <circle cx="21.5443" cy="12.0052" r="3.32084" fill="#1A1B1C" stroke="#1A1B1C" stroke-width="0.497616"/>
    <circle cx="32.6488" cy="12.0052" r="3.32084" fill="#1A1B1C" stroke="#1A1B1C" stroke-width="0.497616"/>
    <circle cx="43.7562" cy="12.0052" r="3.32084" fill="#1A1B1C" stroke="#1A1B1C" stroke-width="0.497616"/>
    <path d="M146.62 76.6988C147.117 76.6988 147.52 76.2959 147.52 75.7988C147.52 75.3018 147.117 74.8988 146.62 74.8988V76.6988ZM59.3799 74.8988C58.8828 74.8988 58.4799 75.3018 58.4799 75.7988C58.4799 76.2959 58.8828 76.6988 59.3799 76.6988V74.8988ZM146.62 74.8988H59.3799V76.6988H146.62V74.8988Z" fill="#1A1B1C"/>
    <path d="M103.705 57.5195C103.705 57.0225 103.302 56.6195 102.805 56.6195C102.308 56.6195 101.905 57.0225 101.905 57.5195H103.705ZM101.905 67.4899C101.905 67.9869 102.308 68.3899 102.805 68.3899C103.302 68.3899 103.705 67.9869 103.705 67.4899H101.905ZM101.905 57.5195V67.4899H103.705V57.5195H101.905Z" fill="#1A1B1C"/>
    <path d="M99.3927 58.7599C98.9979 58.4578 98.4331 58.5329 98.131 58.9276C97.8289 59.3224 97.904 59.8872 98.2987 60.1893L99.3927 58.7599ZM106.217 66.2487C106.611 66.5508 107.176 66.4757 107.478 66.081C107.78 65.6862 107.705 65.1213 107.31 64.8193L106.217 66.2487ZM98.2987 60.1893L106.217 66.2487L107.31 64.8193L99.3927 58.7599L98.2987 60.1893Z" fill="#1A1B1C"/>
    <path d="M106.217 58.7599C106.611 58.4578 107.176 58.5329 107.478 58.9276C107.78 59.3224 107.705 59.8872 107.311 60.1893L106.217 58.7599ZM99.3928 66.2487C98.9981 66.5508 98.4332 66.4757 98.1312 66.081C97.8291 65.6862 97.9042 65.1213 98.2989 64.8193L99.3928 66.2487ZM107.311 60.1893L99.3928 66.2487L98.2989 64.8193L106.217 58.7599L107.311 60.1893Z" fill="#1A1B1C"/>
    <path d="M85.8414 57.5195C85.8414 57.0225 85.4385 56.6195 84.9414 56.6195C84.4443 56.6195 84.0414 57.0225 84.0414 57.5195H85.8414ZM84.0414 67.4899C84.0414 67.9869 84.4443 68.3899 84.9414 68.3899C85.4385 68.3899 85.8414 67.9869 85.8414 67.4899H84.0414ZM84.0414 57.5195V67.4899H85.8414V57.5195H84.0414Z" fill="#1A1B1C"/>
    <path d="M81.5294 58.7599C81.1347 58.4578 80.5698 58.5329 80.2677 58.9276C79.9656 59.3224 80.0407 59.8872 80.4355 60.1893L81.5294 58.7599ZM88.3533 66.2487C88.748 66.5508 89.3129 66.4757 89.6149 66.081C89.917 65.6862 89.8419 65.1213 89.4472 64.8193L88.3533 66.2487ZM80.4355 60.1893L88.3533 66.2487L89.4472 64.8193L81.5294 58.7599L80.4355 60.1893Z" fill="#1A1B1C"/>
    <path d="M88.3537 58.7599C88.7484 58.4578 89.3133 58.5329 89.6154 58.9276C89.9174 59.3224 89.8423 59.8872 89.4476 60.1893L88.3537 58.7599ZM81.5298 66.2487C81.1351 66.5508 80.5702 66.4757 80.2681 66.081C79.966 65.6862 80.0411 65.1213 80.4359 64.8193L81.5298 66.2487ZM89.4476 60.1893L81.5298 66.2487L80.4359 64.8193L88.3537 58.7599L89.4476 60.1893Z" fill="#1A1B1C"/>
    <path d="M67.9771 57.5195C67.9771 57.0225 67.5742 56.6195 67.0771 56.6195C66.5801 56.6195 66.1771 57.0225 66.1771 57.5195H67.9771ZM66.1771 67.4899C66.1771 67.9869 66.5801 68.3899 67.0771 68.3899C67.5742 68.3899 67.9771 67.9869 67.9771 67.4899H66.1771ZM66.1771 57.5195V67.4899H67.9771V57.5195H66.1771Z" fill="#1A1B1C"/>
    <path d="M63.6661 58.7599C63.2714 58.4578 62.7065 58.5329 62.4044 58.9276C62.1023 59.3224 62.1774 59.8872 62.5722 60.1893L63.6661 58.7599ZM70.49 66.2487C70.8847 66.5508 71.4496 66.4757 71.7517 66.081C72.0537 65.6862 71.9786 65.1213 71.5839 64.8193L70.49 66.2487ZM62.5722 60.1893L70.49 66.2487L71.5839 64.8193L63.6661 58.7599L62.5722 60.1893Z" fill="#1A1B1C"/>
    <path d="M70.4904 58.7599C70.8851 58.4578 71.45 58.5329 71.7521 58.9276C72.0542 59.3224 71.9791 59.8872 71.5843 60.1893L70.4904 58.7599ZM63.6665 66.2487C63.2718 66.5508 62.7069 66.4757 62.4048 66.081C62.1028 65.6862 62.1779 65.1213 62.5726 64.8193L63.6665 66.2487ZM71.5843 60.1893L63.6665 66.2487L62.5726 64.8193L70.4904 58.7599L71.5843 60.1893Z" fill="#1A1B1C"/>
    <path d="M121.568 57.5195C121.568 57.0225 121.165 56.6195 120.668 56.6195C120.171 56.6195 119.768 57.0225 119.768 57.5195H121.568ZM119.768 67.4899C119.768 67.9869 120.171 68.3899 120.668 68.3899C121.165 68.3899 121.568 67.9869 121.568 67.4899H119.768ZM119.768 57.5195V67.4899H121.568V57.5195H119.768Z" fill="#1A1B1C"/>
    <path d="M117.256 58.7599C116.861 58.4578 116.296 58.5329 115.994 58.9276C115.692 59.3224 115.767 59.8872 116.162 60.1893L117.256 58.7599ZM124.08 66.2487C124.475 66.5508 125.039 66.4757 125.342 66.081C125.644 65.6862 125.568 65.1213 125.174 64.8193L124.08 66.2487ZM116.162 60.1893L124.08 66.2487L125.174 64.8193L117.256 58.7599L116.162 60.1893Z" fill="#1A1B1C"/>
    <path d="M124.08 58.7599C124.475 58.4578 125.04 58.5329 125.342 58.9276C125.644 59.3224 125.569 59.8872 125.174 60.1893L124.08 58.7599ZM117.256 66.2487C116.861 66.5508 116.297 66.4757 115.994 66.081C115.692 65.6862 115.767 65.1213 116.162 64.8193L117.256 66.2487ZM125.174 60.1893L117.256 66.2487L116.162 64.8193L124.08 58.7599L125.174 60.1893Z" fill="#1A1B1C"/>
    <path d="M139.432 57.5195C139.432 57.0225 139.029 56.6195 138.532 56.6195C138.035 56.6195 137.632 57.0225 137.632 57.5195H139.432ZM137.632 67.4899C137.632 67.9869 138.035 68.3899 138.532 68.3899C139.029 68.3899 139.432 67.9869 139.432 67.4899H137.632ZM137.632 57.5195V67.4899H139.432V57.5195H137.632Z" fill="#1A1B1C"/>
    <path d="M135.12 58.7599C134.725 58.4578 134.161 58.5329 133.859 58.9276C133.556 59.3224 133.632 59.8872 134.026 60.1893L135.12 58.7599ZM141.944 66.2487C142.339 66.5508 142.904 66.4757 143.206 66.081C143.508 65.6862 143.433 65.1213 143.038 64.8193L141.944 66.2487ZM134.026 60.1893L141.944 66.2487L143.038 64.8193L135.12 58.7599L134.026 60.1893Z" fill="#1A1B1C"/>
    <path d="M141.944 58.7599C142.339 58.4578 142.904 58.5329 143.206 58.9276C143.508 59.3224 143.433 59.8872 143.038 60.1893L141.944 58.7599ZM135.12 66.2487C134.726 66.5508 134.161 66.4757 133.859 66.081C133.557 65.6862 133.632 65.1213 134.026 64.8193L135.12 66.2487ZM143.038 60.1893L135.12 66.2487L134.026 64.8193L141.944 58.7599L143.038 60.1893Z" fill="#1A1B1C"/>
</svg>
