<svg viewBox="0 0 344 286" fill="none" xmlns="http://www.w3.org/2000/svg">
    <path d="M213 263.5C213.828 263.5 214.5 262.828 214.5 262C214.5 261.172 213.828 260.5 213 260.5L213 263.5ZM193 260.5C192.172 260.5 191.5 261.172 191.5 262C191.5 262.828 192.172 263.5 193 263.5L193 260.5ZM213 260.5L193 260.5L193 263.5L213 263.5L213 260.5Z" fill="#1A1B1C"/>
    <path d="M174 263.5C174.828 263.5 175.5 262.828 175.5 262C175.5 261.172 174.828 260.5 174 260.5V263.5ZM107 260.5C106.172 260.5 105.5 261.172 105.5 262C105.5 262.828 106.172 263.5 107 263.5V260.5ZM174 260.5H107V263.5H174V260.5Z" fill="#1A1B1C"/>
    <path d="M194.518 285.727C195.346 285.727 196.018 285.055 196.018 284.227C196.018 283.398 195.346 282.727 194.518 282.727V285.727ZM125.06 282.727C124.231 282.727 123.56 283.398 123.56 284.227C123.56 285.055 124.231 285.727 125.06 285.727V282.727ZM194.518 282.727H125.06V285.727H194.518V282.727Z" fill="#1A1B1C"/>
    <rect x="2" y="29" width="316" height="204" rx="15" stroke="#1A1B1C" stroke-width="3" stroke-linecap="round"/>
    <path d="M158.992 151.226C183.825 152.414 192.181 121.201 192.181 99.594C192.181 77.9866 187.183 56.3594 158.992 56.3594C130.801 56.3594 126.643 85.77 127.755 103.892C127.755 124.406 134.139 150.018 158.992 151.226Z" stroke="#1A1B1C" stroke-width="3" stroke-linecap="round" stroke-linejoin="round"/>
    <path d="M141.866 146.299L134.779 174.811C119.787 177.038 83.3482 181.36 67.2656 218.489" stroke="#1A1B1C" stroke-width="3" stroke-linecap="round" stroke-linejoin="round"/>
    <path d="M177.341 146.895L183.909 174.071C215.238 178.398 243.395 193.245 254.072 222.229" stroke="#1A1B1C" stroke-width="3" stroke-linecap="round" stroke-linejoin="round"/>
    <path d="M134.438 174.529C134.438 174.529 142.503 193.436 159.448 193.436C176.392 193.436 183.886 174.529 183.886 174.529" stroke="#1A1B1C" stroke-width="3" stroke-linecap="round" stroke-linejoin="round"/>
    <circle cx="307" cy="37" r="35" fill="#1A1B1C" stroke="#1A1B1C" stroke-width="4" stroke-linecap="round"/>
    <path d="M292 37L302.714 47L322 27" stroke="#F5F3ED" stroke-width="3" stroke-linecap="round" stroke-linejoin="round"/>
    <path d="M133.925 82.5097C133.925 92.8071 133.394 102.24 131.569 110.902C131.131 112.981 128.367 112.78 128.009 110.687C126.119 99.6169 123.472 89.4919 121.367 82.5097C115.242 62.1856 128.116 50.035 140.789 59.2758C165.378 30.8258 202.593 52.5712 196.706 79.7159C194.328 90.6778 192.99 99.7848 191.639 108.609C191.324 110.666 188.758 110.818 188.373 108.773C186.181 97.1508 188.171 88.9616 182.951 83.7627C176.641 77.4791 146.334 85.942 133.925 82.5097Z" fill="#1A1B1C" stroke="#1A1B1C" stroke-width="3" stroke-linecap="round" stroke-linejoin="round"/>
</svg>
