<svg viewBox="0 0 94 27" fill="none" xmlns="http://www.w3.org/2000/svg"><g clip-path="url(#a)"><path d="M28.87 19.945h-1.741V6.586h7.906v1.642H28.87v4.386h5.561v1.603H28.87v5.728ZM38.309 8.51a1.245 1.245 0 0 1-1.557.154c-.49-.321-.68-.94-.456-1.475a1.236 1.236 0 0 1 1.379-.73c.577.113.992.612.993 1.192.005.324-.125.634-.36.859Zm0 11.436h-1.741v-9.142h1.74v9.142Zm3.82 0h-1.741v-9.142h1.664v1.493h.075a2.353 2.353 0 0 1 1.088-1.232 3.144 3.144 0 0 1 1.6-.485c.445-.013.889.064 1.304.224l-.662 1.604a2.665 2.665 0 0 0-.927-.132 2.289 2.289 0 0 0-1.674.738c-.486.492-.729 1.136-.729 1.931l.002 5.001Zm8.76.292c-1.4 0-2.538-.46-3.413-1.38-.876-.92-1.315-2.081-1.316-3.482a4.992 4.992 0 0 1 1.277-3.433 4.164 4.164 0 0 1 3.263-1.438c1.375 0 2.475.442 3.302 1.325.826.884 1.24 2.065 1.238 3.545l-.02.318h-7.322c.05.92.363 1.65.937 2.186a2.86 2.86 0 0 0 2.014.802c1.248 0 2.093-.522 2.535-1.567l1.551.634a4.112 4.112 0 0 1-1.494 1.781c-.694.473-1.545.709-2.552.709Zm2.498-5.976c-.037-.523-.28-1.02-.729-1.493-.448-.472-1.114-.703-1.999-.694a2.517 2.517 0 0 0-1.674.598c-.487.42-.828.981-.974 1.603l5.376-.014Zm8.143 5.976a3.982 3.982 0 0 1-1.895-.437 3.194 3.194 0 0 1-1.257-1.12h-.076v1.265h-1.665V6.586h1.74v4.217l-.075 1.268h.076c.31-.477.744-.864 1.257-1.119a3.983 3.983 0 0 1 1.895-.447c1.198 0 2.232.466 3.103 1.399s1.306 2.09 1.305 3.47c0 1.381-.435 2.538-1.305 3.47-.87.934-1.904 1.398-3.103 1.393Zm-.284-1.567a2.785 2.785 0 0 0 2.08-.905c.581-.604.871-1.403.871-2.398 0-.995-.29-1.794-.87-2.398a2.857 2.857 0 0 0-2.083-.904 2.857 2.857 0 0 0-2.088.896c-.573.596-.86 1.398-.86 2.406 0 1.008.29 1.812.87 2.414a2.79 2.79 0 0 0 2.086.896l-.006-.007Zm9.124 1.567c-.985 0-1.808-.28-2.468-.84-.66-.56-.99-1.3-.993-2.22 0-.995.391-1.775 1.174-2.34.782-.566 1.746-.849 2.893-.849 1.022 0 1.86.187 2.513.56v-.261a2.028 2.028 0 0 0-.701-1.614 2.534 2.534 0 0 0-1.719-.599 2.698 2.698 0 0 0-1.371.354c-.39.214-.69.558-.842.971l-1.59-.672c.216-.549.638-1.058 1.27-1.527.633-.47 1.464-.703 2.498-.7 1.183 0 2.168.34 2.956 1.02.788.68 1.18 1.645 1.173 2.892v5.533h-1.67v-1.268h-.075c-.694 1.04-1.71 1.558-3.046 1.558l-.002.002Zm.284-1.567a2.853 2.853 0 0 0 1.96-.786c.56-.466.884-1.151.886-1.874-.492-.399-1.231-.598-2.216-.598-.846 0-1.483.18-1.911.54-.4.304-.637.772-.643 1.27-.008.432.217.837.591 1.063.394.261.859.398 1.333.392v-.007Zm9.628 1.567c-1.034 0-1.889-.249-2.563-.746a4.424 4.424 0 0 1-1.477-1.866l1.551-.634c.493 1.145 1.33 1.717 2.513 1.717.47.019.934-.105 1.33-.354.327-.2.524-.554.52-.933 0-.597-.423-1.001-1.27-1.213l-1.872-.447a4.48 4.48 0 0 1-1.684-.849 2.03 2.03 0 0 1-.795-1.688c0-.808.363-1.464 1.088-1.967a4.412 4.412 0 0 1 2.582-.755 4.351 4.351 0 0 1 2.193.552c.63.353 1.118.91 1.38 1.577l-1.512.61c-.34-.809-1.046-1.213-2.119-1.213a2.5 2.5 0 0 0-1.305.317.965.965 0 0 0-.529.859c0 .523.41.877 1.23 1.064l1.834.43c.87.194 1.513.534 1.93 1.02.403.454.625 1.038.623 1.642a2.531 2.531 0 0 1-1.02 2.052c-.682.55-1.558.825-2.63.825h.002Zm9.364 0c-1.4 0-2.538-.46-3.414-1.38-.876-.92-1.314-2.084-1.316-3.49a4.993 4.993 0 0 1 1.277-3.433 4.171 4.171 0 0 1 3.268-1.43c1.379 0 2.48.442 3.301 1.325.822.884 1.235 2.065 1.239 3.545l-.02.318h-7.328c.05.92.362 1.65.937 2.186a2.86 2.86 0 0 0 2.018.8c1.249 0 2.093-.523 2.535-1.568l1.552.634a4.111 4.111 0 0 1-1.494 1.782c-.695.474-1.547.71-2.556.71Zm2.497-5.976c-.037-.523-.28-1.02-.728-1.493-.449-.472-1.114-.703-1.997-.694a2.519 2.519 0 0 0-1.674.598c-.487.42-.828.981-.974 1.603l5.373-.014ZM1.102 20.97 4.302.616A.592.592 0 0 1 5.408.43L8.72 6.566l1.32-2.496a.592.592 0 0 1 1.046 0l8.934 16.9H1.102v.001Z" fill="#B6BAC3"/><path d="m12.16 13.042-3.443-6.48L1.102 20.97l11.059-7.928Z" fill="#B6BAC3"/><path d="M20.019 20.97 17.567 5.893a.593.593 0 0 0-1-.317L1.101 20.968l8.557 4.769a1.783 1.783 0 0 0 1.729 0l8.63-4.769Z" fill="#B6BAC3"/><path d="M17.567 5.894a.593.593 0 0 0-1-.317l-3.07 3.057-2.413-4.566a.592.592 0 0 0-1.046 0l-1.32 2.497L5.408.429a.592.592 0 0 0-1.106.188l-3.2 20.353h-.01l.01.011.084.041L16.563 5.727a.594.594 0 0 1 1.002.318l2.43 14.94.024-.014-2.451-15.076ZM1.13 20.942 4.303.762A.593.593 0 0 1 5.41.573l3.31 6.135 1.32-2.497a.592.592 0 0 1 1.046 0l2.365 4.469-12.32 12.26Z" fill="#B6BAC3"/><path opacity=".2" d="M11.388 25.593a1.783 1.783 0 0 1-1.73 0l-8.536-4.755-.02.131 8.557 4.767a1.783 1.783 0 0 0 1.729 0l8.63-4.767-.021-.135-8.61 4.76Z" fill="#B6BAC3"/><path d="M17.544 5.897a.588.588 0 0 0-.997-.317L13.49 8.636l-2.405-4.563a.59.59 0 0 0-1.043 0L8.726 6.567 5.426.435a.59.59 0 0 0-1.1.188l-3.19 20.343 8.528 4.765a1.772 1.772 0 0 0 1.723 0l8.6-4.765-2.442-15.069Z" fill="url(#b)"/></g><defs><linearGradient id="b" x1=".479" y1="4.521" x2="23.938" y2="16.975" gradientUnits="userSpaceOnUse"><stop stop-color="#fff" stop-opacity=".1"/><stop offset=".14" stop-color="#fff" stop-opacity=".08"/><stop offset=".61" stop-color="#fff" stop-opacity=".02"/><stop offset="1" stop-color="#fff" stop-opacity="0"/></linearGradient><clipPath id="a"><path fill="#fff" transform="translate(.936 .125)" d="M0 0h93.065v26.027H0z"/></clipPath></defs></svg>