<svg viewBox="0 0 296 344" fill="none" xmlns="http://www.w3.org/2000/svg">
  <g filter="url(#filter0_dd_3533_13555)">
    <g clip-path="url(#clip0_3533_13555)">
      <rect x="12" y="8" width="272" height="320" rx="12" fill="white"/>
      <rect x="12" y="8" width="272" height="80" fill="#E5EFD3"/>
      <path d="M40.16 125.92V113.76H37.76V128H47.16V125.92H40.16ZM52.8225 117.54C50.0825 117.54 48.6825 119.06 48.5825 120.98H50.8225C50.8825 119.9 51.5625 119.2 52.8225 119.2C53.9825 119.2 54.8025 119.8 54.8025 121.3V121.7C54.0825 121.74 52.8825 121.86 52.0625 122C49.1425 122.46 48.1625 123.54 48.1625 125.2C48.1625 126.94 49.4825 128.22 51.6025 128.22C53.1425 128.22 54.2825 127.66 55.0225 126.58H55.0625C55.0625 127.06 55.1025 127.56 55.2025 128H57.2625C57.1025 127.36 57.0025 126.52 57.0025 125.32V121.52C57.0025 118.86 55.5025 117.54 52.8225 117.54ZM54.8025 123.68C54.8025 124.76 54.6425 125.3 54.1025 125.86C53.6425 126.32 52.9625 126.54 52.2625 126.54C51.1025 126.54 50.4625 125.94 50.4625 125.04C50.4625 124.12 51.0025 123.68 52.4625 123.44C53.1425 123.32 54.1225 123.22 54.8025 123.18V123.68ZM63.3038 117.54C60.9238 117.54 59.3238 118.78 59.3238 120.58C59.3238 122.86 61.1038 123.24 62.8038 123.66C64.5638 124.1 65.3638 124.3 65.3638 125.34C65.3638 126.1 64.6838 126.6 63.5238 126.6C62.1638 126.6 61.4038 125.9 61.4038 124.66H59.0838C59.1038 127.08 60.7638 128.3 63.4837 128.3C66.1038 128.3 67.7438 127.04 67.7438 125.2C67.7438 122.78 65.7638 122.34 63.9038 121.86C62.3038 121.46 61.6038 121.28 61.6038 120.4C61.6038 119.66 62.2238 119.2 63.2838 119.2C64.5038 119.2 65.2238 119.78 65.2238 121H67.4238C67.4038 118.74 65.8838 117.54 63.3038 117.54ZM74.0595 126.26C73.0595 126.26 72.6795 125.8 72.6795 124.66V119.58H74.6595V117.84H72.6795V115.3H70.3995V117.84H68.6995V119.58H70.3995V125C70.3995 127.22 71.3395 128.12 73.4795 128.12C73.8995 128.12 74.4195 128.04 74.7595 127.94V126.16C74.5995 126.22 74.3195 126.26 74.0595 126.26ZM95.2863 128L98.4263 113.76H96.0663L94.8863 119.24C94.4463 121.36 94.0063 123.54 93.6463 125.66H93.6063C93.1663 123.54 92.6863 121.36 92.1663 119.22L90.8463 113.76H87.6863L86.3663 119.22C85.8463 121.36 85.3663 123.54 84.9263 125.66H84.8863C84.5263 123.54 84.0863 121.36 83.6263 119.24L82.4663 113.76H80.1063L83.2463 128H86.4663L87.8863 122.08C88.3863 120 88.8463 117.92 89.2463 115.82H89.2863C89.6863 117.92 90.1463 120 90.6463 122.08L92.0663 128H95.2863ZM102.357 115.94V113.76H100.077V115.94H102.357ZM102.357 128V117.84H100.077V128H102.357ZM107.553 128V113.76H105.273V128H107.553ZM112.748 128V113.76H110.468V128H112.748ZM130.553 128H133.673L130.793 125.06C131.733 123.74 132.253 122 132.273 120H129.993C129.993 121.42 129.733 122.58 129.233 123.5L126.233 120.44C128.153 119.34 128.833 118.2 128.833 116.66C128.833 114.72 127.373 113.46 125.093 113.46C122.813 113.46 121.293 114.78 121.293 116.76C121.293 118.04 121.653 118.78 122.833 120.02C120.733 120.96 119.793 122.34 119.793 124.18C119.793 126.66 121.653 128.3 124.853 128.3C126.573 128.3 128.173 127.7 129.213 126.64L130.553 128ZM125.093 115.36C126.033 115.36 126.653 115.96 126.653 116.84C126.653 117.62 126.253 118.4 124.893 119.22C123.833 118.14 123.533 117.64 123.533 116.88C123.533 115.92 124.133 115.36 125.093 115.36ZM125.053 126.32C123.273 126.32 122.213 125.34 122.213 124.04C122.213 123 122.673 122.22 124.092 121.44L127.853 125.26C127.033 125.96 126.093 126.32 125.053 126.32ZM150.225 115.84V113.76H138.485V115.84H143.165V128H145.545V115.84H150.225ZM154.121 126.62C152.701 126.62 151.541 125.68 151.461 123.38H158.921C158.921 122.4 158.841 121.64 158.641 121C158.081 118.88 156.401 117.54 154.081 117.54C151.001 117.54 149.201 119.8 149.201 122.8C149.201 126.08 151.021 128.3 154.121 128.3C156.781 128.3 158.421 126.76 158.801 124.94H156.461C156.261 125.92 155.421 126.62 154.121 126.62ZM154.081 119.22C155.441 119.22 156.481 120.1 156.641 121.88H151.501C151.701 120.12 152.701 119.22 154.081 119.22ZM164.749 117.54C162.369 117.54 160.769 118.78 160.769 120.58C160.769 122.86 162.549 123.24 164.249 123.66C166.009 124.1 166.809 124.3 166.809 125.34C166.809 126.1 166.129 126.6 164.969 126.6C163.609 126.6 162.849 125.9 162.849 124.66H160.529C160.549 127.08 162.209 128.3 164.929 128.3C167.549 128.3 169.189 127.04 169.189 125.2C169.189 122.78 167.209 122.34 165.349 121.86C163.749 121.46 163.049 121.28 163.049 120.4C163.049 119.66 163.669 119.2 164.729 119.2C165.949 119.2 166.669 119.78 166.669 121H168.869C168.849 118.74 167.329 117.54 164.749 117.54ZM175.505 126.26C174.505 126.26 174.125 125.8 174.125 124.66V119.58H176.105V117.84H174.125V115.3H171.845V117.84H170.145V119.58H171.845V125C171.845 127.22 172.785 128.12 174.925 128.12C175.345 128.12 175.865 128.04 176.205 127.94V126.16C176.045 126.22 175.765 126.26 175.505 126.26ZM182.002 117.54C179.262 117.54 177.862 119.06 177.762 120.98H180.002C180.062 119.9 180.742 119.2 182.002 119.2C183.162 119.2 183.982 119.8 183.982 121.3V121.7C183.262 121.74 182.062 121.86 181.242 122C178.322 122.46 177.342 123.54 177.342 125.2C177.342 126.94 178.662 128.22 180.782 128.22C182.322 128.22 183.462 127.66 184.202 126.58H184.242C184.242 127.06 184.282 127.56 184.382 128H186.442C186.282 127.36 186.182 126.52 186.182 125.32V121.52C186.182 118.86 184.682 117.54 182.002 117.54ZM183.982 123.68C183.982 124.76 183.822 125.3 183.282 125.86C182.822 126.32 182.142 126.54 181.442 126.54C180.282 126.54 179.642 125.94 179.642 125.04C179.642 124.12 180.182 123.68 181.642 123.44C182.322 123.32 183.302 123.22 183.982 123.18V123.68ZM200.283 117.6C198.743 117.6 197.763 118.28 197.023 119.44C196.503 118.24 195.423 117.6 194.023 117.6C192.823 117.6 191.923 118.08 191.203 119.06H191.163V117.84H188.983V128H191.263V122.56C191.263 120.6 192.043 119.44 193.403 119.44C194.583 119.44 195.223 120.28 195.223 121.72V128H197.503V122.52C197.503 120.58 198.303 119.44 199.643 119.44C200.783 119.44 201.483 120.16 201.483 121.96V128H203.763V121.74C203.763 119 202.443 117.6 200.283 117.6ZM210.801 126.62C209.381 126.62 208.221 125.68 208.141 123.38H215.601C215.601 122.4 215.521 121.64 215.321 121C214.761 118.88 213.081 117.54 210.761 117.54C207.681 117.54 205.881 119.8 205.881 122.8C205.881 126.08 207.701 128.3 210.801 128.3C213.461 128.3 215.101 126.76 215.481 124.94H213.141C212.941 125.92 212.101 126.62 210.801 126.62ZM210.761 119.22C212.121 119.22 213.161 120.1 213.321 121.88H208.181C208.381 120.12 209.381 119.22 210.761 119.22ZM223.052 117.6C221.712 117.6 220.652 118.24 220.012 119.16H219.972V117.84H217.812V128H220.092V122.36C220.092 120.42 221.112 119.44 222.412 119.44C223.692 119.44 224.472 120.16 224.472 121.98V128H226.752V121.78C226.752 119 225.352 117.6 223.052 117.6ZM233.493 126.26C232.493 126.26 232.113 125.8 232.113 124.66V119.58H234.093V117.84H232.113V115.3H229.833V117.84H228.133V119.58H229.833V125C229.833 127.22 230.773 128.12 232.913 128.12C233.333 128.12 233.853 128.04 234.193 127.94V126.16C234.033 126.22 233.753 126.26 233.493 126.26Z" fill="#1A1B1C"/>
      <path d="M40.858 288V278.564H39.766C39.584 279.712 38.94 280.146 37.47 280.146V281.126H39.584V288H40.858ZM47.7393 278.368C45.7933 278.368 44.5753 279.474 44.5753 281.35H45.8773C45.8773 280.09 46.5353 279.474 47.6833 279.474C48.8033 279.474 49.5313 280.104 49.5313 281.056C49.5313 282.05 48.7333 282.694 47.4313 282.694H47.0533V283.772H47.4313C48.8873 283.772 49.6713 284.374 49.6713 285.48C49.6713 286.432 48.9013 287.09 47.7533 287.09C46.4793 287.09 45.7933 286.418 45.7933 285.158H44.4913C44.4913 287.062 45.6673 288.196 47.7533 288.196C49.6713 288.196 50.9873 287.118 50.9873 285.522C50.9873 284.304 50.4133 283.576 49.1953 283.17V283.142C50.3013 282.736 50.8333 282.064 50.8333 280.944C50.8333 279.39 49.6433 278.368 47.7393 278.368ZM55.6007 288.42L60.8927 278.144H59.9407L54.6487 288.42H55.6007ZM54.4947 278.368C53.1227 278.368 52.3527 279.32 52.3527 281.028C52.3527 282.736 53.1227 283.688 54.4947 283.688C55.8667 283.688 56.6367 282.736 56.6367 281.028C56.6367 279.32 55.8667 278.368 54.4947 278.368ZM54.4947 279.236C55.1667 279.236 55.5307 279.866 55.5307 281.028C55.5307 282.204 55.1667 282.82 54.4947 282.82C53.8227 282.82 53.4587 282.204 53.4587 281.028C53.4587 279.866 53.8227 279.236 54.4947 279.236ZM61.0467 282.876C59.6747 282.876 58.9047 283.828 58.9047 285.536C58.9047 287.244 59.6747 288.196 61.0467 288.196C62.4187 288.196 63.1887 287.244 63.1887 285.536C63.1887 283.828 62.4187 282.876 61.0467 282.876ZM61.0467 283.744C61.7187 283.744 62.0827 284.374 62.0827 285.536C62.0827 286.712 61.7187 287.328 61.0467 287.328C60.3747 287.328 60.0107 286.712 60.0107 285.536C60.0107 284.374 60.3747 283.744 61.0467 283.744ZM72.0188 277.836C69.3168 277.836 67.6508 279.81 67.6508 283.016C67.6508 286.236 69.3028 288.196 71.9768 288.196C74.3288 288.196 75.8268 286.796 76.0368 284.57H74.6928C74.4968 286.082 73.4608 287.02 71.9768 287.02C70.1288 287.02 68.9948 285.508 68.9948 283.016C68.9948 280.524 70.1428 279.012 72.0188 279.012C73.5028 279.012 74.5248 279.936 74.6508 281.406H75.9808C75.8688 279.348 74.4128 277.836 72.0188 277.836ZM80.6492 280.692C78.5632 280.692 77.2752 282.12 77.2752 284.444C77.2752 286.768 78.5632 288.196 80.6492 288.196C82.7352 288.196 84.0372 286.768 84.0372 284.444C84.0372 282.12 82.7352 280.692 80.6492 280.692ZM80.6492 281.7C81.9512 281.7 82.7492 282.75 82.7492 284.444C82.7492 286.138 81.9512 287.188 80.6492 287.188C79.3612 287.188 78.5632 286.138 78.5632 284.444C78.5632 282.75 79.3612 281.7 80.6492 281.7ZM93.2832 280.734C92.2332 280.734 91.5052 281.224 91.0292 282.078C90.6512 281.196 89.8952 280.734 88.9152 280.734C88.0892 280.734 87.4312 281.084 86.9272 281.77H86.8992V280.888H85.7092V288H86.9412V284.052C86.9412 282.624 87.5852 281.742 88.6352 281.742C89.5452 281.742 90.0772 282.4 90.0772 283.52V288H91.3092V283.968C91.3092 282.61 91.9532 281.742 92.9892 281.742C93.8992 281.742 94.4452 282.274 94.4452 283.702V288H95.6772V283.604C95.6772 281.686 94.7952 280.734 93.2832 280.734ZM101.211 280.706C100.259 280.706 99.4191 281.168 99.0411 281.91H99.0131V280.888H97.7951V290.59H99.0271V286.992H99.0551C99.4471 287.706 100.273 288.168 101.225 288.168C103.031 288.168 104.193 286.698 104.193 284.43C104.193 282.162 103.031 280.706 101.211 280.706ZM100.903 281.7C102.121 281.7 102.905 282.764 102.905 284.43C102.905 286.096 102.121 287.174 100.903 287.174C99.7271 287.174 98.9711 286.124 98.9711 284.43C98.9711 282.75 99.7271 281.7 100.903 281.7ZM107.094 288V278.032H105.862V288H107.094ZM112.108 287.244C110.946 287.244 110.05 286.446 109.994 284.696H115.314C115.314 284.08 115.272 283.576 115.174 283.17C114.81 281.644 113.676 280.692 112.066 280.692C109.994 280.692 108.762 282.246 108.762 284.346C108.762 286.67 110.008 288.196 112.108 288.196C113.928 288.196 115.006 287.118 115.244 285.872H113.984C113.816 286.67 113.144 287.244 112.108 287.244ZM112.066 281.644C113.158 281.644 113.97 282.372 114.096 283.758H110.008C110.134 282.4 110.932 281.644 112.066 281.644ZM119.401 287.034C118.687 287.034 118.421 286.698 118.421 285.886V281.868H119.835V280.888H118.421V279.166H117.189V280.888H115.957V281.868H117.189V286.012C117.189 287.482 117.763 288.056 119.121 288.056C119.373 288.056 119.695 288.028 119.905 287.972V286.964C119.779 287.006 119.583 287.034 119.401 287.034ZM123.988 287.244C122.826 287.244 121.93 286.446 121.874 284.696H127.194C127.194 284.08 127.152 283.576 127.054 283.17C126.69 281.644 125.556 280.692 123.946 280.692C121.874 280.692 120.642 282.246 120.642 284.346C120.642 286.67 121.888 288.196 123.988 288.196C125.808 288.196 126.886 287.118 127.124 285.872H125.864C125.696 286.67 125.024 287.244 123.988 287.244ZM123.946 281.644C125.038 281.644 125.85 282.372 125.976 283.758H121.888C122.014 282.4 122.812 281.644 123.946 281.644ZM134.874 288V278.032H133.642V281.868H133.614C133.222 281.154 132.396 280.706 131.444 280.706C129.638 280.706 128.476 282.162 128.476 284.43C128.476 286.698 129.638 288.168 131.458 288.168C132.424 288.168 133.25 287.706 133.642 286.964H133.67V288H134.874ZM131.766 281.7C132.942 281.7 133.712 282.75 133.712 284.43C133.712 286.124 132.942 287.174 131.766 287.174C130.548 287.174 129.764 286.096 129.764 284.43C129.764 282.764 130.548 281.7 131.766 281.7Z" fill="#1A1B1C"/>
      <rect x="36" y="298" width="224" height="6" rx="3" fill="#DEE3EC"/>
      <rect x="36" y="298" width="41.8605" height="6" rx="3" fill="#75DBD3"/>
    </g>
  </g>
  <defs>
    <filter id="filter0_dd_3533_13555" x="0" y="0" width="296" height="344" filterUnits="userSpaceOnUse" color-interpolation-filters="sRGB">
      <feFlood flood-opacity="0" result="BackgroundImageFix"/>
      <feColorMatrix in="SourceAlpha" type="matrix" values="0 0 0 0 0 0 0 0 0 0 0 0 0 0 0 0 0 0 127 0" result="hardAlpha"/>
      <feOffset dy="2"/>
      <feGaussianBlur stdDeviation="2"/>
      <feColorMatrix type="matrix" values="0 0 0 0 0.4 0 0 0 0 0.411765 0 0 0 0 0.431373 0 0 0 0.05 0"/>
      <feBlend mode="normal" in2="BackgroundImageFix" result="effect1_dropShadow_3533_13555"/>
      <feColorMatrix in="SourceAlpha" type="matrix" values="0 0 0 0 0 0 0 0 0 0 0 0 0 0 0 0 0 0 127 0" result="hardAlpha"/>
      <feOffset dy="4"/>
      <feGaussianBlur stdDeviation="6"/>
      <feColorMatrix type="matrix" values="0 0 0 0 0.290196 0 0 0 0 0.298039 0 0 0 0 0.313726 0 0 0 0.08 0"/>
      <feBlend mode="normal" in2="effect1_dropShadow_3533_13555" result="effect2_dropShadow_3533_13555"/>
      <feBlend mode="normal" in="SourceGraphic" in2="effect2_dropShadow_3533_13555" result="shape"/>
    </filter>
    <clipPath id="clip0_3533_13555">
      <rect x="12" y="8" width="272" height="320" rx="12" fill="white"/>
    </clipPath>
  </defs>
</svg>
