<svg viewBox="0 0 84 20" fill="none" xmlns="http://www.w3.org/2000/svg"><path fill-rule="evenodd" clip-rule="evenodd" d="M79.607 4.359v2.298c-1.19-.45-2.251-.677-3.179-.677-.55 0-.987.102-1.316.299-.33.198-.497.443-.497.731 0 .383.371.724 1.12 1.03l2.16 1.052c1.748.833 2.615 1.938 2.615 3.328 0 1.155-.46 2.076-1.388 2.758-.921.689-2.161 1.03-3.705 1.03-.713 0-1.352-.03-1.92-.095a14.843 14.843 0 0 1-1.946-.367v-2.405c1.328.45 2.538.677 3.627.677 1.3 0 1.946-.377 1.946-1.137 0-.378-.265-.683-.803-.922l-2.4-1.024c-.886-.4-1.544-.885-1.975-1.46a3.304 3.304 0 0 1-.64-2.005c0-1.064.448-1.92 1.334-2.572.892-.646 2.076-.97 3.549-.97.478 0 1.03.042 1.64.12.616.083 1.208.185 1.778.31ZM11.623 4.359v2.298c-1.19-.45-2.249-.677-3.177-.677-.551 0-.987.102-1.316.299-.33.198-.497.443-.497.731 0 .383.376.724 1.124 1.03L9.92 9.092c1.74.833 2.609 1.938 2.609 3.328 0 1.155-.462 2.076-1.383 2.758-.928.689-2.161 1.03-3.71 1.03-.712 0-1.354-.03-1.922-.095a14.976 14.976 0 0 1-1.944-.367v-2.405c1.333.45 2.543.677 3.625.677 1.3 0 1.946-.377 1.946-1.137 0-.378-.263-.683-.796-.922l-2.4-1.024c-.892-.4-1.55-.885-1.975-1.46-.43-.58-.64-1.245-.64-2.005 0-1.064.444-1.92 1.334-2.572.886-.646 2.071-.97 3.544-.97.483 0 1.028.042 1.645.12.611.083 1.203.185 1.771.31ZM14.102 4.145h3.52v11.849h-3.52V4.144ZM28.96 4.145v2.19h-5.23v2.627h4.536v1.975h-4.537v2.758h5.337v2.299h-8.724V4.144h8.617ZM45.394 4.145v11.849h-3.286V8.179l-3.41 7.923H36.67L33.39 8.18v7.815h-2.376V4.144h4.297l2.933 7.254 3.068-7.253h4.082ZM56.729 4.145v2.19h-5.201v2.627h4.536v1.975h-4.536v2.758h5.308v2.299H48.11V4.144h8.618ZM69.082 4.145v11.849h-3.734l-4.19-7.6v7.6h-2.375V4.144h3.843l4.081 7.47v-7.47h2.375Z" fill="#B6BAC3"/></svg>