<svg viewBox="0 0 401 163" fill="none" xmlns="http://www.w3.org/2000/svg"><g filter="url(#a)"><rect x="5" y="3" width="391" height="153" rx="12" fill="#fff"/><path d="m372 17 2.951 5.939 6.56.97-4.737 4.642 1.104 6.54L372 32.02l-5.878 3.07 1.104-6.539-4.737-4.641 6.56-.971L372 17Z" fill="#FCBD1E" stroke="#FCBD1E" stroke-width="1.915" stroke-linecap="round" stroke-linejoin="round"/><rect x="29" y="27.787" width="12" height="12" rx="4" fill="#75DB9E"/><path d="M50.33 29.032V39h1.288v-4.2h1.75c1.064 0 1.526.378 1.932 1.568L56.21 39h1.4l-1.022-2.87c-.448-1.232-.77-1.652-1.498-1.876v-.028c1.148-.266 1.904-1.218 1.904-2.492 0-1.694-1.092-2.702-3.5-2.702H50.33Zm1.288 1.106h1.778c1.456 0 2.282.532 2.282 1.694 0 1.078-.644 1.876-2.198 1.876h-1.862v-3.57Zm10.12 8.106c-1.162 0-2.058-.798-2.114-2.548h5.32c0-.616-.042-1.12-.14-1.526-.364-1.526-1.498-2.478-3.108-2.478-2.072 0-3.304 1.554-3.304 3.654 0 2.324 1.246 3.85 3.346 3.85 1.82 0 2.898-1.078 3.136-2.324h-1.26c-.168.798-.84 1.372-1.876 1.372Zm-.042-5.6c1.092 0 1.904.728 2.03 2.114h-4.088c.126-1.358.924-2.114 2.058-2.114Zm7.446-.952c-1.806 0-2.786 1.022-2.856 2.366h1.232c.042-.84.588-1.414 1.624-1.414.952 0 1.61.49 1.61 1.666v.28c-.56.042-1.428.14-2.058.238-2.044.322-2.702 1.064-2.702 2.24 0 1.204.924 2.086 2.408 2.086 1.148 0 1.974-.434 2.464-1.19h.028c0 .322.028.714.098 1.036h1.12c-.098-.434-.168-1.036-.168-1.82v-2.73c0-1.876-1.064-2.758-2.8-2.758Zm1.61 4.27c0 .84-.14 1.232-.574 1.68-.35.364-.896.56-1.47.56-.924 0-1.456-.49-1.456-1.218 0-.7.42-1.05 1.638-1.232a21.097 21.097 0 0 1 1.862-.224v.434ZM75.277 39v-9.968h-1.232V39h1.232Zm12.077-8.82v-1.148h-6.426V39h6.58v-1.148h-5.292v-3.388h4.844V33.33h-4.844v-3.15h5.138Zm4.066 1.512c-1.554 0-2.632.84-2.632 2.058 0 1.554 1.218 1.792 2.408 2.086 1.372.336 1.96.49 1.96 1.316 0 .644-.616 1.064-1.54 1.064-1.106 0-1.75-.56-1.75-1.582H88.62c.014 1.666 1.12 2.562 2.982 2.562 1.722 0 2.814-.854 2.814-2.128 0-1.652-1.386-1.946-2.688-2.268-1.19-.28-1.708-.406-1.708-1.148 0-.616.532-1.008 1.386-1.008.994 0 1.582.518 1.582 1.47h1.204c0-1.568-1.036-2.422-2.772-2.422Zm7.17 6.342c-.714 0-.98-.336-.98-1.148v-4.018h1.414v-.98H97.61v-1.722h-1.232v1.722h-1.232v.98h1.232v4.144c0 1.47.574 2.044 1.932 2.044.252 0 .574-.028.784-.084v-1.008a1.75 1.75 0 0 1-.504.07Zm4.513-6.342c-1.806 0-2.786 1.022-2.856 2.366h1.232c.042-.84.588-1.414 1.624-1.414.952 0 1.61.49 1.61 1.666v.28c-.56.042-1.428.14-2.058.238-2.044.322-2.702 1.064-2.702 2.24 0 1.204.924 2.086 2.408 2.086 1.148 0 1.974-.434 2.464-1.19h.028c0 .322.028.714.098 1.036h1.12c-.098-.434-.168-1.036-.168-1.82v-2.73c0-1.876-1.064-2.758-2.8-2.758Zm1.61 4.27c0 .84-.14 1.232-.574 1.68-.35.364-.896.56-1.47.56-.924 0-1.456-.49-1.456-1.218 0-.7.42-1.05 1.638-1.232a21.097 21.097 0 0 1 1.862-.224v.434Zm5.662 2.072c-.714 0-.98-.336-.98-1.148v-4.018h1.414v-.98h-1.414v-1.722h-1.232v1.722h-1.232v.98h1.232v4.144c0 1.47.574 2.044 1.932 2.044.252 0 .574-.028.784-.084v-1.008a1.75 1.75 0 0 1-.504.07Zm4.588.21c-1.162 0-2.058-.798-2.114-2.548h5.32c0-.616-.042-1.12-.14-1.526-.364-1.526-1.498-2.478-3.108-2.478-2.072 0-3.304 1.554-3.304 3.654 0 2.324 1.246 3.85 3.346 3.85 1.82 0 2.898-1.078 3.136-2.324h-1.26c-.168.798-.84 1.372-1.876 1.372Zm-.042-5.6c1.092 0 1.904.728 2.03 2.114h-4.088c.126-1.358.924-2.114 2.058-2.114ZM45.26 103.48c0-4.35-3.24-5.37-6.48-6.24v-6.15c1.68.36 2.64 1.56 2.64 3.93h3.3c0-4.08-2.07-6.27-5.94-6.63v-2.31h-2.16v2.28c-3.78.3-6.15 2.46-6.15 5.73 0 3.93 3.18 5.04 6.15 5.88v6.72c-1.98-.36-3.12-1.71-3.12-4.29h-3.33c0 4.26 2.34 6.66 6.45 7.02v2.55h2.16v-2.58c3.99-.33 6.48-2.58 6.48-5.91Zm-11.37-9.66c0-1.62.99-2.55 2.73-2.79v5.64c-1.77-.57-2.73-1.2-2.73-2.85Zm4.89 6.78c1.95.63 3.09 1.29 3.09 3.03 0 1.68-1.05 2.82-3.09 3.09v-6.12Zm24.422 3.54v-2.85h-3.09V88.78h-4.74l-8.43 12.3v3.06h9.63V109h3.54v-4.86h3.09Zm-12.93-2.85 2.13-3.06c1.5-2.22 2.97-4.41 4.35-6.66h.06c-.09 2.37-.15 4.74-.15 7.11v2.61h-6.39Zm28.501-9.57v-2.94h-12.06l-1.14 11.97 3.51.24c.39-1.56 1.59-2.49 3.36-2.49 2.19 0 3.63 1.41 3.63 3.96s-1.38 4.02-3.75 4.02c-1.8 0-3.27-1.05-3.33-2.94h-3.57c0 3.66 2.73 5.91 6.9 5.91 4.47 0 7.44-2.79 7.44-7.14 0-4.02-2.67-6.69-6.66-6.69-1.56 0-3.06.54-4.02 1.59h-.06l.54-5.49h9.21Zm11.252-3.39c-4.98 0-7.71 3.78-7.71 10.56 0 6.78 2.73 10.56 7.71 10.56 4.95 0 7.68-3.78 7.68-10.56 0-6.78-2.73-10.56-7.68-10.56Zm0 3.03c2.58 0 3.99 2.67 3.99 7.53 0 4.89-1.41 7.59-3.99 7.59-2.61 0-4.02-2.7-4.02-7.59 0-4.86 1.41-7.53 4.02-7.53ZM104.337 109v-4.26h-3.96V109h1.32l-1.38 4.74h2.13l1.89-4.74Zm10.385-20.67c-4.98 0-7.71 3.78-7.71 10.56 0 6.78 2.73 10.56 7.71 10.56 4.95 0 7.68-3.78 7.68-10.56 0-6.78-2.73-10.56-7.68-10.56Zm0 3.03c2.58 0 3.99 2.67 3.99 7.53 0 4.89-1.41 7.59-3.99 7.59-2.61 0-4.02-2.7-4.02-7.59 0-4.86 1.41-7.53 4.02-7.53Zm17.432-3.03c-4.98 0-7.71 3.78-7.71 10.56 0 6.78 2.73 10.56 7.71 10.56 4.95 0 7.68-3.78 7.68-10.56 0-6.78-2.73-10.56-7.68-10.56Zm0 3.03c2.58 0 3.99 2.67 3.99 7.53 0 4.89-1.41 7.59-3.99 7.59-2.61 0-4.02-2.7-4.02-7.59 0-4.86 1.41-7.53 4.02-7.53Zm17.431-3.03c-4.98 0-7.71 3.78-7.71 10.56 0 6.78 2.73 10.56 7.71 10.56 4.95 0 7.68-3.78 7.68-10.56 0-6.78-2.73-10.56-7.68-10.56Zm0 3.03c2.58 0 3.99 2.67 3.99 7.53 0 4.89-1.41 7.59-3.99 7.59-2.61 0-4.02-2.7-4.02-7.59 0-4.86 1.41-7.53 4.02-7.53Z" fill="#1A1B1C"/><rect x="28" y="125" width="146" height="6" rx="3" fill="#EEF0F4"/><rect x="244" y="27" width="104" height="104" rx="7.66" fill="#F5F3ED"/><path d="M318.514 70.222h1.5a1.5 1.5 0 0 0-.716-1.279l-.784 1.279Zm0 28.273v1.5a1.5 1.5 0 0 0 1.5-1.5h-1.5Zm-46.447 0a1.5 1.5 0 1 0 3 0h-3Zm1.5-28.273-.78-1.281a1.5 1.5 0 0 0-.72 1.28h1.5Zm10.335 26.773a1.5 1.5 0 0 0 0 3v-3Zm12.223-40.506.784-1.278a1.5 1.5 0 0 0-1.564-.003l.78 1.281Zm20.889 13.733v28.273h3V70.222h-3Zm-41.947 28.273V70.222h-3v28.273h3Zm43.447-1.5h-34.612v3h34.612v-3Zm-44.167-25.492 22.558-13.733-1.56-2.562-22.558 13.733 1.56 2.562Zm20.994-13.735L317.729 71.5l1.569-2.557-22.389-13.732-1.568 2.557Z" fill="#00534F"/></g><defs><filter id="a" x=".213" y=".128" width="400.575" height="162.575" filterUnits="userSpaceOnUse" color-interpolation-filters="sRGB"><feFlood flood-opacity="0" result="BackgroundImageFix"/><feColorMatrix in="SourceAlpha" values="0 0 0 0 0 0 0 0 0 0 0 0 0 0 0 0 0 0 127 0" result="hardAlpha"/><feMorphology radius=".957" operator="dilate" in="SourceAlpha" result="effect1_dropShadow_519_3515"/><feOffset dy="1.915"/><feGaussianBlur stdDeviation="1.915"/><feColorMatrix values="0 0 0 0 0.25098 0 0 0 0 0.254902 0 0 0 0 0.270588 0 0 0 0.1 0"/><feBlend in2="BackgroundImageFix" result="effect1_dropShadow_519_3515"/><feColorMatrix in="SourceAlpha" values="0 0 0 0 0 0 0 0 0 0 0 0 0 0 0 0 0 0 127 0" result="hardAlpha"/><feOffset dy=".957"/><feGaussianBlur stdDeviation=".957"/><feColorMatrix values="0 0 0 0 0.25098 0 0 0 0 0.254902 0 0 0 0 0.270588 0 0 0 0.15 0"/><feBlend in2="effect1_dropShadow_519_3515" result="effect2_dropShadow_519_3515"/><feColorMatrix in="SourceAlpha" values="0 0 0 0 0 0 0 0 0 0 0 0 0 0 0 0 0 0 127 0" result="hardAlpha"/><feOffset dy="-.957"/><feGaussianBlur stdDeviation=".479"/><feComposite in2="hardAlpha" operator="out"/><feColorMatrix values="0 0 0 0 0.25098 0 0 0 0 0.254902 0 0 0 0 0.270588 0 0 0 0.05 0"/><feBlend in2="effect2_dropShadow_519_3515" result="effect3_dropShadow_519_3515"/><feBlend in="SourceGraphic" in2="effect3_dropShadow_519_3515" result="shape"/></filter></defs></svg>