<svg viewBox="0 0 220 174" fill="none" xmlns="http://www.w3.org/2000/svg"><path d="M95.082 171.998h-66.83l1.989-41.705" stroke="#1A1B1C" stroke-width="2.009" stroke-linecap="round" stroke-linejoin="round"/><path d="m67.633 98.52.035-1.005h-.035v1.004Zm105.02-3.973.232.978c.275-.066.51-.244.647-.491l-.879-.487Zm-6.365-22.64-.412.917.412-.917ZM32.627 98.52l-.973-.252a1.005 1.005 0 0 0 .973 1.257v-1.005Zm34.972 1.004c13.611.464 34.874.663 55.245.15 20.332-.513 39.898-1.737 50.041-4.148l-.464-1.955c-9.906 2.355-29.259 3.58-49.628 4.094-20.331.512-41.553.314-55.125-.149l-.069 2.008Zm105.933-4.49c4.213-7.612 4.924-12.727 3.109-16.494-.898-1.864-2.365-3.284-4.093-4.463-1.721-1.174-3.758-2.146-5.848-3.085l-.824 1.833c2.087.937 3.979 1.847 5.54 2.912 1.553 1.06 2.721 2.235 3.415 3.675 1.368 2.84 1.084 7.168-3.057 14.65l1.758.973ZM166.7 70.992c-1.544-.694-6.608-2.31-13.608-4.287a559.052 559.052 0 0 0-25.767-6.592c-9.645-2.223-19.866-4.291-29.178-5.655-9.293-1.36-17.755-2.032-23.85-1.423l.199 2c5.839-.584 14.099.055 23.36 1.411 9.24 1.354 19.404 3.41 29.018 5.625a557.03 557.03 0 0 1 25.672 6.567c7.048 1.992 11.95 3.566 13.33 4.187l.824-1.833ZM74.296 53.034c-24.517 2.448-36.642 22.07-42.642 45.233l1.945.504c5.935-22.912 17.678-41.42 40.897-43.738l-.2-2Zm-41.669 46.49H67.633v-2.01H32.628v2.01Z" fill="#1A1B1C"/><path d="M172.654 94.943c8.931 17.258 17.942 51.692 19.89 77.056h-10.959" stroke="#1A1B1C" stroke-width="2.009" stroke-linecap="round" stroke-linejoin="round"/><path d="M93.892 136.648h1.005a1.003 1.003 0 0 0-1.043-1.004l.038 1.004Zm0 35.35h-1.005c0 .555.45 1.005 1.005 1.005v-1.005Zm79.958 0v1.005a1.006 1.006 0 0 0 1.001-1.096l-1.001.091Zm-3.773-52.52a1.005 1.005 0 1 0-2.001.182l2.001-.182Zm-149.38 5.652-.593.811.593-.811Zm13.606-34a1.005 1.005 0 0 0 .634-1.907l-.634 1.907Zm58.584 45.518v35.35h2.01v-35.35h-2.01Zm1.005 36.355h79.958v-2.009H93.892v2.009Zm80.959-1.096-4.774-52.429-2.001.182 4.774 52.43 2.001-.183Zm-80.997-36.263c-8.764.329-23.64-.084-37.998-1.809-7.178-.862-14.205-2.049-20.262-3.627-6.08-1.585-11.09-3.539-14.304-5.889l-1.186 1.622c3.526 2.577 8.832 4.608 14.983 6.211 6.175 1.609 13.298 2.81 20.53 3.678 14.46 1.737 29.44 2.155 38.313 1.822l-.076-2.008ZM21.29 124.319c-5.416-3.96-8.293-8.367-9.367-12.608-1.075-4.243-.37-8.406 1.532-11.929 3.823-7.083 12.397-11.465 20.848-8.652l.634-1.907c-9.506-3.164-19.032 1.79-23.25 9.605-2.12 3.927-2.92 8.605-1.712 13.376 1.21 4.774 4.407 9.554 10.129 13.737l1.186-1.622ZM117.448 34.45c-3.885 5.628-3.006 17.895-2.081 23.326l31.561 7.775c2.774-9.75 5.757-30.804-4.509-37.025-12.832-7.775-20.116-1.11-24.971 5.924Z" fill="#1A1B1C"/><path d="m115.367 57.776-.991.168c.067.395.362.712.75.807l.241-.975Zm2.081-23.326-.827-.57.827.57Zm24.971-5.924-.521.86.521-.86Zm4.509 37.025-.241.975c.526.13 1.059-.18 1.207-.7l-.966-.275Zm-30.571-7.944c-.453-2.66-.897-7.015-.749-11.386.149-4.421.9-8.64 2.666-11.2l-1.653-1.141c-2.118 3.067-2.87 7.796-3.021 12.273-.153 4.528.304 9.02.776 11.791l1.981-.337Zm1.917-22.586c2.398-3.474 5.29-6.69 9.033-8.15 3.672-1.433 8.372-1.254 14.591 2.515l1.042-1.719c-6.613-4.006-11.971-4.382-16.363-2.668-4.321 1.686-7.499 5.32-9.956 8.88l1.653 1.142Zm23.624-5.635c4.656 2.82 6.472 9.142 6.661 16.355.188 7.132-1.23 14.728-2.598 19.535l1.933.55c1.407-4.943 2.868-12.749 2.674-20.137-.192-7.306-2.018-14.622-7.628-18.022l-1.042 1.719Zm5.27 35.19L115.607 56.8l-.481 1.951 31.561 7.775.481-1.95ZM77.98 31.79C87.529 21.065 87.13 2.396 73.606 2 56.102 2 58.886 14.71 51.328 25.434 43.77 36.16 35.548 33.775 31.04 40.528c-10.172 15.234.398 19.86 0 28.598S19.504 82.233 15.924 94.943c7.956-8.738 13.127-6.355 19.094-5.958 13.128-35.35 33.018-38.527 53.306-34.953-1.592-6.752-19.89-11.518-10.343-22.242Z" fill="#1A1B1C"/><path d="m73.605 2 .03-1.004h-.03V2Zm4.376 29.79-.75-.668.75.668Zm10.343 22.242-.175.99a1.005 1.005 0 0 0 1.153-1.22l-.978.23ZM35.018 88.985l-.066 1.003c.443.03.853-.236 1.008-.653l-.942-.35Zm-19.094 5.958-.967-.272a1.005 1.005 0 0 0 1.71.949l-.743-.677ZM31.04 69.126l1.004.045-1.004-.045Zm0-28.598-.835-.558.835.558Zm20.288-15.094-.821-.578.821.578Zm22.248-22.43c3.13.092 5.425 1.23 7.017 2.985 1.61 1.775 2.57 4.258 2.852 7.132.568 5.765-1.619 12.838-6.215 18l1.501 1.337c4.952-5.562 7.34-13.185 6.714-19.534-.314-3.184-1.393-6.112-3.364-8.285-1.988-2.192-4.815-3.537-8.447-3.643l-.058 2.008Zm3.654 28.117c-2.521 2.833-3.346 5.447-2.871 7.91.46 2.383 2.102 4.379 3.927 6.1.924.872 1.931 1.705 2.915 2.504.994.806 1.954 1.572 2.832 2.338 1.796 1.57 2.996 2.947 3.313 4.29l1.956-.461c-.48-2.033-2.164-3.784-3.947-5.342-.913-.798-1.916-1.597-2.887-2.385-.98-.796-1.938-1.589-2.803-2.406-1.755-1.654-2.998-3.283-3.333-5.02-.32-1.659.147-3.662 2.4-6.191l-1.502-1.336Zm11.268 21.922c-10.233-1.803-20.54-1.938-29.976 2.978-9.447 4.92-17.83 14.801-24.446 32.615l1.884.7c6.512-17.538 14.637-26.921 23.49-31.533 8.862-4.617 18.645-4.553 28.7-2.781l.348-1.98Zm-53.413 34.94c-1.486-.099-2.813-.311-4.35-.463-1.482-.146-3.03-.216-4.665.025-3.319.489-6.798 2.23-10.89 6.722l1.487 1.353c3.865-4.246 6.95-5.683 9.696-6.088 1.4-.206 2.76-.152 4.175-.012 1.359.134 2.917.368 4.414.468l.133-2.005Zm-18.194 7.233c1.723-6.116 5.258-10.235 8.543-14.012 3.219-3.701 6.392-7.248 6.61-12.033l-2.007-.091c-.18 3.954-2.775 6.96-6.12 10.806-3.279 3.77-7.103 8.19-8.96 14.785l1.934.545ZM32.044 69.17c.11-2.398-.539-4.485-1.336-6.438-.824-2.017-1.728-3.74-2.376-5.775-.624-1.961-.95-4.078-.536-6.6.417-2.536 1.593-5.548 4.08-9.272l-1.671-1.116c-2.6 3.893-3.917 7.172-4.391 10.062-.477 2.902-.094 5.344.604 7.536.674 2.118 1.701 4.141 2.43 5.925.754 1.848 1.278 3.617 1.189 5.587l2.007.091Zm-.168-28.085c2.056-3.08 4.904-4.062 8.574-5.698 3.648-1.626 7.775-3.806 11.7-9.375l-1.643-1.157c-3.634 5.155-7.397 7.146-10.876 8.697-3.457 1.542-6.974 2.745-9.426 6.417l1.67 1.116Zm20.273-15.073c1.959-2.779 3.237-5.672 4.32-8.393 1.099-2.758 1.97-5.256 3.152-7.448 1.163-2.155 2.579-3.914 4.69-5.152 2.12-1.242 5.036-2.015 9.294-2.015V.995c-4.494 0-7.793.816-10.31 2.292-2.526 1.48-4.168 3.569-5.442 5.932-1.255 2.327-2.198 5.016-3.25 7.658-1.067 2.678-2.276 5.396-4.096 7.979l1.642 1.157Z" fill="#1A1B1C"/><path d="M81.49 4.085a1.005 1.005 0 1 0-1.453 1.389l1.452-1.389Zm-3.35 41.408a1.005 1.005 0 1 0-.322 1.983l.321-1.983Zm1.897-40.02c2.76 2.887 7.098 7.848 10.738 13.14 1.821 2.646 3.453 5.354 4.626 7.912 1.181 2.573 1.86 4.916 1.86 6.852h2.01c0-2.356-.812-5.006-2.043-7.69-1.238-2.699-2.938-5.51-4.797-8.213-3.718-5.405-8.132-10.45-10.942-13.389l-1.452 1.389Zm17.225 27.904c0 5.425-1.358 8.877-4.183 10.786-2.897 1.958-7.634 2.513-14.94 1.33l-.321 1.983c7.413 1.2 12.82.762 16.386-1.648 3.64-2.46 5.067-6.754 5.067-12.45h-2.01Z" fill="#1A1B1C"/><path d="M29.047 171.998H1.997M218 171.998h-27.051" stroke="#1A1B1C" stroke-width="2.009" stroke-linecap="round" stroke-linejoin="round"/></svg>