<svg viewBox="0 0 56 56" fill="none" xmlns="http://www.w3.org/2000/svg">
  <circle cx="28" cy="28" r="28" fill="#DCF4F2"/>
  <path d="M18.5 25V24C18.2613 24 18.0305 24.0854 17.8492 24.2407L18.5 25ZM15 28L14 27.9999C14 28.3905 14.2273 28.7453 14.5821 28.9085C14.9369 29.0717 15.3543 29.0134 15.6508 28.7593L15 28ZM17.8578 15H30.1434V13H17.8578V15ZM32.0005 16.8571V22.1429H34.0005V16.8571H32.0005ZM17.8492 24.2407L14.3492 27.2407L15.6508 28.7593L19.1508 25.7593L17.8492 24.2407ZM16 28.0001L16.0006 16.857L14.0006 16.8569L14 27.9999L16 28.0001ZM30.1434 24H18.5V26H30.1434V24ZM32.0005 22.1429C32.0005 23.1685 31.1691 24 30.1434 24V26C32.2736 26 34.0005 24.2731 34.0005 22.1429H32.0005ZM30.1434 15C31.1691 15 32.0005 15.8315 32.0005 16.8571H34.0005C34.0005 14.7269 32.2736 13 30.1434 13V15ZM17.8578 13C15.7276 13 14.0007 14.7268 14.0006 16.8569L16.0006 16.857C16.0007 15.8314 16.8321 15 17.8578 15V13Z" fill="#00857C"/>
  <path d="M37.5 40V39C37.7387 39 37.9695 39.0854 38.1508 39.2407L37.5 40ZM41 43L42 42.9999C42 43.3905 41.7727 43.7453 41.4179 43.9085C41.0631 44.0717 40.6457 44.0134 40.3492 43.7593L41 43ZM38.1422 30H25.8566V28H38.1422V30ZM23.9995 31.8571V37.1429H21.9995V31.8571H23.9995ZM38.1508 39.2407L41.6508 42.2407L40.3492 43.7593L36.8492 40.7593L38.1508 39.2407ZM40 43.0001L39.9994 31.857L41.9994 31.8569L42 42.9999L40 43.0001ZM25.8566 39H37.5V41H25.8566V39ZM23.9995 37.1429C23.9995 38.1685 24.8309 39 25.8566 39V41C23.7264 41 21.9995 39.2731 21.9995 37.1429H23.9995ZM25.8566 30C24.8309 30 23.9995 30.8315 23.9995 31.8571H21.9995C21.9995 29.7269 23.7264 28 25.8566 28V30ZM38.1422 28C40.2724 28 41.9993 29.7268 41.9994 31.8569L39.9994 31.857C39.9993 30.8314 39.1679 30 38.1422 30V28Z" fill="#00857C"/>
</svg>
