<svg width="303" height="192" viewBox="0 0 303 192" fill="none" xmlns="http://www.w3.org/2000/svg">
  <path d="M192.834 113.172L51.3562 113.172" stroke="black" stroke-width="1.8" stroke-linecap="round" stroke-linejoin="round"/>
  <rect x="-0.9" y="0.9" width="147.504" height="95.7845" rx="7.88261" transform="matrix(-1 0 0 1 191.905 35.5923)" stroke="black" stroke-width="1.8"/>
  <path d="M99.1286 158.055L150.565 158.055C152.228 158.055 153.57 159.417 153.545 161.08V161.08C153.521 162.709 152.194 164.017 150.565 164.017L136.837 164.017" stroke="black" stroke-width="1.8" stroke-linecap="round" stroke-linejoin="round"/>
  <path d="M96.2588 132.689L86.5003 163.428" stroke="black" stroke-width="1.8" stroke-linecap="round" stroke-linejoin="round"/>
  <path d="M136.756 132.689L128.461 158.061" stroke="black" stroke-width="1.8" stroke-linecap="round" stroke-linejoin="round"/>
  <path d="M243.68 151.13V155.778L245.515 164.017M249.872 151.13L257.9 164.017" stroke="black" stroke-width="1.8" stroke-linecap="round" stroke-linejoin="round"/>
  <path d="M221.46 151.13L224.793 163.795H203.24L215.239 154.685V151.13" stroke="black" stroke-width="1.8" stroke-linecap="round" stroke-linejoin="round"/>
  <path d="M209.018 61.5859C208.662 64.0744 209.61 68.5479 210.129 70.4736H223.905L225.682 60.4748C226.423 59.7342 228.571 58.2529 231.681 56.031C228.793 52.9203 225.756 51.8834 224.349 51.5872C221.238 51.5131 213.861 51.4094 211.017 51.5872C208.173 51.7649 205.388 55.5126 204.352 57.3642C205.092 57.9567 207.062 59.6306 209.018 61.5859Z" fill="black" stroke="black" stroke-width="1.8" stroke-linecap="round" stroke-linejoin="round"/>
  <path d="M211.755 35.5891C209.721 38.1996 207.544 46.2959 210.358 47.9362C212.298 49.0659 214.794 47.1543 214.794 47.1543L215.682 51.587" stroke="black" stroke-width="1.8" stroke-linecap="round" stroke-linejoin="round"/>
  <path d="M212.834 38.0199C217.473 42.533 215.232 51.4462 223.904 48.0319C228.348 46.2822 226.224 44.5352 223.904 41.3661C221.585 38.197 221.846 38.8862 220.955 36.1981C220.064 33.51 215.422 33.2488 212.834 34.6374C210.246 36.0261 212.834 38.0199 212.834 38.0199Z" fill="black" stroke="black" stroke-width="1.8" stroke-linecap="round" stroke-linejoin="round"/>
  <path d="M229.903 56.0308C233.236 59.4377 240.657 66.385 241.013 68.6958C241.457 71.5843 232.125 84.0272 227.681 84.0272C223.237 84.0272 219.016 84.0272 219.016 82.0274C219.904 78.4723 225.83 79.6573 227.681 80.0277L235.458 69.5846L224.793 60.4746" stroke="black" stroke-width="1.8" stroke-linecap="round" stroke-linejoin="round"/>
  <path d="M197.463 68.2515L204.253 57.0538L208.795 61.1413C203.906 68.2515 201.018 74.6951 197.463 74.6951C193.019 74.6951 190.13 65.8074 186.575 59.1416C181.671 59.1416 178.132 55.8087 179.465 54.4755C180.798 53.1422 185.225 53.9135 187.908 54.9199C191.463 56.2531 195.315 63.8076 197.463 68.2515Z" fill="white"/>
  <path d="M204.253 57.0538L204.855 56.3848C204.656 56.2055 204.387 56.1243 204.122 56.1634C203.857 56.2025 203.623 56.3579 203.484 56.5871L204.253 57.0538ZM197.463 68.2515L196.652 68.6431C196.796 68.9402 197.091 69.1348 197.42 69.1505C197.75 69.1661 198.061 69.0002 198.232 68.7182L197.463 68.2515ZM187.908 54.9199L187.592 55.7626L187.908 54.9199ZM179.465 54.4755L178.829 53.8391L178.829 53.8391L179.465 54.4755ZM186.575 59.1416L187.369 58.718C187.213 58.4248 186.908 58.2416 186.575 58.2416V59.1416ZM208.795 61.1413L209.536 61.6512C209.792 61.2789 209.732 60.7746 209.397 60.4723L208.795 61.1413ZM203.484 56.5871L196.693 67.7848L198.232 68.7182L205.023 57.5205L203.484 56.5871ZM198.273 67.8598C197.197 65.6342 195.678 62.5927 193.971 59.933C193.117 58.6033 192.203 57.3472 191.259 56.3287C190.326 55.3223 189.305 54.4824 188.224 54.0772L187.592 55.7626C188.289 56.024 189.083 56.6284 189.939 57.5523C190.784 58.4641 191.634 59.6243 192.456 60.9053C194.1 63.4672 195.58 66.4249 196.652 68.6431L198.273 67.8598ZM188.224 54.0772C186.816 53.5489 184.96 53.0844 183.265 52.9243C182.417 52.8442 181.575 52.8367 180.832 52.9514C180.108 53.0631 179.359 53.3088 178.829 53.8391L180.101 55.1118C180.238 54.9755 180.541 54.8176 181.107 54.7304C181.652 54.6462 182.334 54.6444 183.096 54.7163C184.618 54.8601 186.317 55.2844 187.592 55.7626L188.224 54.0772ZM178.829 53.8391C178.148 54.5197 178.184 55.4151 178.501 56.1308C178.806 56.8218 179.405 57.4755 180.14 58.0281C181.628 59.1455 183.929 60.0416 186.575 60.0416V58.2416C184.317 58.2416 182.396 57.4712 181.221 56.5889C180.626 56.1416 180.284 55.7121 180.147 55.4032C180.081 55.2544 180.08 55.1718 180.082 55.1457C180.083 55.1348 180.082 55.1311 180.101 55.1118L178.829 53.8391ZM185.781 59.5651C186.658 61.2086 187.494 62.9916 188.338 64.7698C189.177 66.5372 190.023 68.3008 190.902 69.8599C191.777 71.4125 192.714 72.8178 193.755 73.8433C194.799 74.8718 196.027 75.5951 197.463 75.5951V73.7951C196.677 73.7951 195.877 73.4074 195.018 72.5612C194.157 71.7119 193.317 70.4787 192.47 68.9761C191.627 67.4801 190.806 65.7719 189.964 63.9981C189.128 62.2351 188.27 60.4074 187.369 58.718L185.781 59.5651ZM197.463 75.5951C198.641 75.5951 199.688 75.0572 200.626 74.2649C201.561 73.476 202.46 72.375 203.362 71.1061C204.268 69.8322 205.212 68.3377 206.222 66.7395C207.237 65.1339 208.325 63.4123 209.536 61.6512L208.053 60.6314C206.82 62.4254 205.714 64.1755 204.701 65.7779C203.683 67.3876 202.767 68.8371 201.895 70.063C201.02 71.2937 200.225 72.248 199.465 72.8895C198.709 73.5275 198.062 73.7951 197.463 73.7951V75.5951ZM203.651 57.7227L208.192 61.8103L209.397 60.4723L204.855 56.3848L203.651 57.7227Z" fill="black"/>
  <path d="M44.4004 164.017L257.899 164.017" stroke="black" stroke-width="1.8" stroke-linecap="round" stroke-linejoin="round"/>
  <path d="M227.597 79.8057C226.198 75.4919 224.99 72.1067 224.136 70.6958C220.583 70.6958 212.825 70.6958 209.939 70.6958C208.015 73.9072 204.477 84.4525 205.721 100.943C206.964 117.433 209.051 141.272 209.939 151.13H253.011C248.571 140.301 239.899 116.268 236.347 106.768C233.938 100.328 231.269 91.4486 228.94 84.0274" stroke="black" stroke-width="1.8" stroke-linecap="round" stroke-linejoin="round"/>
  <path d="M106.332 56.5669C106.829 56.5669 107.232 56.1639 107.232 55.6669C107.232 55.1698 106.829 54.7669 106.332 54.7669V56.5669ZM100.407 54.7669C99.91 54.7669 99.507 55.1698 99.507 55.6669C99.507 56.1639 99.91 56.5669 100.407 56.5669V54.7669ZM106.332 59.8314C106.829 59.8314 107.232 59.4285 107.232 58.9314C107.232 58.4343 106.829 58.0314 106.332 58.0314V59.8314ZM100.407 58.0314C99.91 58.0314 99.507 58.4343 99.507 58.9314C99.507 59.4285 99.91 59.8314 100.407 59.8314V58.0314ZM106.332 54.7669H100.407V56.5669H106.332V54.7669ZM106.332 58.0314H100.407V59.8314H106.332V58.0314Z" fill="black"/>
  <path d="M110.171 66.9245L110.171 67.8245C110.41 67.8245 110.639 67.7297 110.807 67.5609C110.976 67.3921 111.071 67.1632 111.071 66.9245L110.171 66.9245ZM95.3599 66.9245C95.3599 67.4216 95.7628 67.8245 96.2599 67.8245C96.7569 67.8245 97.1599 67.4216 97.1599 66.9245L95.3599 66.9245ZM96.2599 49.7419L96.2599 48.8419C96.0212 48.8419 95.7923 48.9368 95.6235 49.1055C95.4547 49.2743 95.3599 49.5032 95.3599 49.7419L96.2599 49.7419ZM102.465 66.0245C101.968 66.0245 101.565 66.4275 101.565 66.9245C101.565 67.4216 101.968 67.8245 102.465 67.8245L102.465 66.0245ZM107.04 49.7419L107.722 49.1542C107.551 48.9559 107.302 48.8419 107.04 48.8419L107.04 49.7419ZM110.171 53.3727L111.071 53.3727C111.071 53.157 110.993 52.9484 110.852 52.785L110.171 53.3727ZM97.1599 66.9245L97.1599 49.7419L95.3599 49.7419L95.3599 66.9245L97.1599 66.9245ZM110.171 66.0245L102.465 66.0245L102.465 67.8245L110.171 67.8245L110.171 66.0245ZM96.2599 50.6419L107.04 50.6419L107.04 48.8419L96.2599 48.8419L96.2599 50.6419ZM109.271 53.3727L109.271 66.9245L111.071 66.9245L111.071 53.3727L109.271 53.3727ZM106.359 50.3297L109.489 53.9605L110.852 52.785L107.722 49.1542L106.359 50.3297Z" fill="black"/>
  <path d="M142.37 56.1074L143.168 55.6909C143.34 56.0208 143.292 56.4225 143.046 56.7019L142.37 56.1074ZM139.557 50.7177L139.557 49.8177C139.892 49.8177 140.199 50.0041 140.354 50.3012L139.557 50.7177ZM126.833 50.324C127.05 49.877 127.589 49.691 128.036 49.9084C128.483 50.1259 128.669 50.6645 128.451 51.1115L126.833 50.324ZM125.048 56.0503L124.36 56.6311C124.13 56.359 124.082 55.9769 124.238 55.6565L125.048 56.0503ZM133.558 51.6177C133.061 51.6177 132.658 51.2148 132.658 50.7177C132.658 50.2207 133.061 49.8177 133.558 49.8177L133.558 51.6177ZM133.558 66.1228L134.234 66.7173C134.061 66.9139 133.811 67.0254 133.549 67.0228C133.288 67.0201 133.04 66.9037 132.871 66.7037L133.558 66.1228ZM141.572 56.5239L138.759 51.1342L140.354 50.3012L143.168 55.6909L141.572 56.5239ZM128.451 51.1115L125.857 56.444L124.238 55.6565L126.833 50.324L128.451 51.1115ZM139.557 51.6177L133.558 51.6177L133.558 49.8177L139.557 49.8177L139.557 51.6177ZM125.735 55.4694L134.246 65.5419L132.871 66.7037L124.36 56.6311L125.735 55.4694ZM132.883 65.5283L141.694 55.5129L143.046 56.7019L134.234 66.7173L132.883 65.5283Z" fill="black"/>
  <path d="M141.637 56.0503H125.047" stroke="black" stroke-width="1.8" stroke-linecap="round" stroke-linejoin="round"/>
  <path d="M111.873 87.706L112.773 87.706C112.773 87.3935 112.611 87.1033 112.345 86.9395L111.873 87.706ZM111.873 97.5583L111.873 98.4583C112.37 98.4583 112.773 98.0554 112.773 97.5583L111.873 97.5583ZM95.3595 97.5583C95.3595 98.0554 95.7625 98.4583 96.2595 98.4583C96.7566 98.4583 97.1595 98.0554 97.1595 97.5583L95.3595 97.5583ZM96.2595 87.706L95.7905 86.9379C95.5228 87.1014 95.3595 87.3924 95.3595 87.706L96.2595 87.706ZM102.22 96.6583C101.723 96.6583 101.32 97.0613 101.32 97.5583C101.32 98.0554 101.723 98.4583 102.22 98.4583L102.22 96.6583ZM104.096 82.9207L104.567 82.1541C104.279 81.9767 103.916 81.9761 103.627 82.1526L104.096 82.9207ZM110.973 87.706L110.973 97.5583L112.773 97.5583L112.773 87.706L110.973 87.706ZM97.1595 97.5583L97.1595 87.706L95.3595 87.706L95.3595 97.5583L97.1595 97.5583ZM111.873 96.6583L102.22 96.6583L102.22 98.4583L111.873 98.4583L111.873 96.6583ZM96.7286 88.4741L104.565 83.6888L103.627 82.1526L95.7905 86.9379L96.7286 88.4741ZM103.624 83.6872L111.401 88.4726L112.345 86.9395L104.567 82.1541L103.624 83.6872Z" fill="black"/>
  <path d="M126.602 85.6571L134.247 90.7571L141.693 85.6867L134.247 80.4812L130.519 82.9829" stroke="black" stroke-width="1.8" stroke-linecap="round" stroke-linejoin="round"/>
  <path d="M141.693 85.7286V94.5161L134.246 99.8906L126.51 94.5161V85.6189" stroke="black" stroke-width="1.8" stroke-linecap="round" stroke-linejoin="round"/>
  <path d="M134.248 91.1194V99.8904" stroke="black" stroke-width="1.8" stroke-linecap="round" stroke-linejoin="round"/>
  <path d="M164.432 90.1561L164.433 90.1562C164.829 90.2431 165.11 90.3409 165.282 90.446C165.441 90.5452 165.515 90.6788 165.515 90.856C165.515 91.0206 165.473 91.1522 165.394 91.2569C165.314 91.3623 165.191 91.4485 165.016 91.511C164.833 91.5759 164.587 91.6104 164.274 91.6104C163.719 91.6104 163.324 91.4323 163.129 91.049C163.001 90.7969 162.764 90.55 162.442 90.55C162.188 90.55 161.949 90.6566 161.794 90.827C161.638 90.9998 161.569 91.2405 161.667 91.492C161.792 91.8141 161.997 92.0884 162.28 92.3143L162.28 92.3145C162.785 92.7156 163.471 92.9101 164.327 92.9101C165.165 92.9101 165.829 92.7124 166.303 92.3031L166.303 92.303C166.777 91.8929 167.016 91.3748 167.016 90.7552C167.016 90.155 166.814 89.6839 166.4 89.3578C166.136 89.1494 165.752 88.9887 165.257 88.8703L164.144 88.603L164.144 88.603C163.713 88.5002 163.447 88.4139 163.33 88.3464L163.33 88.3464L163.328 88.3456C163.239 88.2958 163.176 88.2358 163.136 88.1673C163.095 88.0987 163.073 88.0161 163.073 87.9159C163.073 87.6978 163.16 87.5332 163.34 87.4117C163.526 87.2862 163.781 87.2185 164.117 87.2185C164.576 87.2185 164.995 87.37 165.19 87.7009C165.33 87.9379 165.562 88.2087 165.891 88.2087C166.142 88.2087 166.375 88.1017 166.525 87.932C166.676 87.7601 166.741 87.5219 166.641 87.2759C166.509 86.9479 166.297 86.6755 166.008 86.4602C165.51 86.0832 164.908 85.8968 164.209 85.8968C163.379 85.8968 162.734 86.0914 162.288 86.4968C161.846 86.8988 161.624 87.4064 161.624 88.0123C161.624 88.6715 161.852 89.1719 162.32 89.4924C162.595 89.6824 163.076 89.8506 163.748 90.0027L163.749 90.0027L164.432 90.1561Z" fill="black" stroke="black" stroke-width="0.2"/>
  <path d="M165.058 85.5107C165.058 85.0137 164.655 84.6107 164.158 84.6107C163.661 84.6107 163.258 85.0137 163.258 85.5107L165.058 85.5107ZM163.258 86.3806C163.258 86.8777 163.661 87.2806 164.158 87.2806C164.655 87.2806 165.058 86.8777 165.058 86.3806L163.258 86.3806ZM163.258 85.5107L163.258 86.3806L165.058 86.3806L165.058 85.5107L163.258 85.5107Z" fill="black"/>
  <path d="M165.058 92.4263C165.058 91.9292 164.655 91.5263 164.158 91.5263C163.661 91.5263 163.258 91.9292 163.258 92.4263L165.058 92.4263ZM163.258 93.2962C163.258 93.7932 163.661 94.1962 164.158 94.1962C164.655 94.1962 165.058 93.7932 165.058 93.2962L163.258 93.2962ZM163.258 92.4263L163.258 93.2962L165.058 93.2962L165.058 92.4263L163.258 92.4263Z" fill="black"/>
  <path d="M159.45 82.5058C163.401 79.6654 169.142 80.8831 171.613 85.1627C173.955 89.2193 172.565 94.4064 168.509 96.7484C164.452 99.0905 159.265 97.7006 156.923 93.644C155.666 91.4672 155.484 88.9648 156.212 86.7512" stroke="black" stroke-width="1.8" stroke-linecap="round" stroke-linejoin="round"/>
  <path d="M81.5967 42.8381L81.5967 106.756" stroke="black" stroke-width="1.8" stroke-linecap="round" stroke-linejoin="round"/>
  <circle r="10.1562" transform="matrix(-1 0 0 1 64.4532 54.4413)" fill="black"/>
  <path d="M67.5629 58.96C67.5629 59.4571 67.9658 59.86 68.4629 59.86C68.9599 59.86 69.3629 59.4571 69.3629 58.96L67.5629 58.96ZM59.5449 58.96C59.5449 59.4571 59.9478 59.86 60.4449 59.86C60.9419 59.86 61.3449 59.4571 61.3449 58.96L59.5449 58.96ZM67.5629 58.239L67.5629 58.96L69.3629 58.96L69.3629 58.239L67.5629 58.239ZM61.3449 58.96L61.3449 58.239L59.5449 58.239L59.5449 58.96L61.3449 58.96ZM62.3966 57.1874L66.5112 57.1874L66.5112 55.3874L62.3966 55.3874L62.3966 57.1874ZM61.3449 58.239C61.3449 57.6582 61.8157 57.1874 62.3966 57.1874L62.3966 55.3874C60.8216 55.3874 59.5449 56.6641 59.5449 58.239L61.3449 58.239ZM69.3629 58.239C69.3629 56.6641 68.0861 55.3874 66.5112 55.3874L66.5112 57.1874C67.092 57.1874 67.5629 57.6582 67.5629 58.239L69.3629 58.239Z" fill="white"/>
  <circle cx="64.4539" cy="51.4766" r="1.77267" stroke="white" stroke-width="1.8"/>
</svg>
