<svg width="327" height="192" viewBox="0 0 327 192" fill="none" xmlns="http://www.w3.org/2000/svg">
  <path d="M204.834 113.172L63.3562 113.172" stroke="black" stroke-width="1.8" stroke-linecap="round" stroke-linejoin="round"/>
  <rect x="-0.9" y="0.9" width="147.504" height="95.7845" rx="7.88261" transform="matrix(-1 0 0 1 203.905 35.5923)" stroke="black" stroke-width="1.8"/>
  <path d="M111.129 158.055L162.565 158.055C164.228 158.055 165.57 159.417 165.545 161.08V161.08C165.521 162.709 164.194 164.017 162.565 164.017L148.837 164.017" stroke="black" stroke-width="1.8" stroke-linecap="round" stroke-linejoin="round"/>
  <path d="M108.259 132.689L98.5003 163.428" stroke="black" stroke-width="1.8" stroke-linecap="round" stroke-linejoin="round"/>
  <path d="M148.756 132.689L140.461 158.061" stroke="black" stroke-width="1.8" stroke-linecap="round" stroke-linejoin="round"/>
  <path d="M255.68 151.13V155.778L257.515 164.017M261.872 151.13L269.9 164.017" stroke="black" stroke-width="1.8" stroke-linecap="round" stroke-linejoin="round"/>
  <path d="M233.46 151.13L236.793 163.795H215.24L227.239 154.685V151.13" stroke="black" stroke-width="1.8" stroke-linecap="round" stroke-linejoin="round"/>
  <path d="M221.018 61.5859C220.662 64.0744 221.61 68.5479 222.129 70.4736H235.905L237.682 60.4748C238.423 59.7342 240.571 58.2529 243.681 56.031C240.793 52.9203 237.756 51.8834 236.349 51.5872C233.238 51.5131 225.861 51.4094 223.017 51.5872C220.173 51.7649 217.388 55.5126 216.352 57.3642C217.092 57.9567 219.062 59.6306 221.018 61.5859Z" fill="black" stroke="black" stroke-width="1.8" stroke-linecap="round" stroke-linejoin="round"/>
  <path d="M223.755 35.5891C221.721 38.1996 219.544 46.2959 222.358 47.9362C224.298 49.0659 226.794 47.1543 226.794 47.1543L227.682 51.587" stroke="black" stroke-width="1.8" stroke-linecap="round" stroke-linejoin="round"/>
  <path d="M224.834 38.0199C229.473 42.533 227.232 51.4462 235.904 48.0319C240.348 46.2822 238.224 44.5352 235.904 41.3661C233.585 38.197 233.846 38.8862 232.955 36.1981C232.064 33.51 227.422 33.2488 224.834 34.6374C222.246 36.0261 224.834 38.0199 224.834 38.0199Z" fill="black" stroke="black" stroke-width="1.8" stroke-linecap="round" stroke-linejoin="round"/>
  <path d="M241.903 56.0308C245.236 59.4377 252.657 66.385 253.013 68.6958C253.457 71.5843 244.125 84.0272 239.681 84.0272C235.237 84.0272 231.016 84.0272 231.016 82.0274C231.904 78.4723 237.83 79.6573 239.681 80.0277L247.458 69.5846L236.793 60.4746" stroke="black" stroke-width="1.8" stroke-linecap="round" stroke-linejoin="round"/>
  <path d="M209.463 68.2515L216.253 57.0538L220.795 61.1413C215.906 68.2515 213.018 74.6951 209.463 74.6951C205.019 74.6951 202.13 65.8074 198.575 59.1416C193.671 59.1416 190.132 55.8087 191.465 54.4755C192.798 53.1422 197.225 53.9135 199.908 54.9199C203.463 56.2531 207.315 63.8076 209.463 68.2515Z" fill="white"/>
  <path d="M216.253 57.0538L216.855 56.3848C216.656 56.2055 216.387 56.1243 216.122 56.1634C215.857 56.2025 215.623 56.3579 215.484 56.5871L216.253 57.0538ZM209.463 68.2515L208.652 68.6431C208.796 68.9402 209.091 69.1348 209.42 69.1505C209.75 69.1661 210.061 69.0002 210.232 68.7182L209.463 68.2515ZM199.908 54.9199L199.592 55.7626L199.908 54.9199ZM191.465 54.4755L190.829 53.8391L190.829 53.8391L191.465 54.4755ZM198.575 59.1416L199.369 58.718C199.213 58.4248 198.908 58.2416 198.575 58.2416V59.1416ZM220.795 61.1413L221.536 61.6512C221.792 61.2789 221.732 60.7746 221.397 60.4723L220.795 61.1413ZM215.484 56.5871L208.693 67.7848L210.232 68.7182L217.023 57.5205L215.484 56.5871ZM210.273 67.8598C209.197 65.6342 207.678 62.5927 205.971 59.933C205.117 58.6033 204.203 57.3472 203.259 56.3287C202.326 55.3223 201.305 54.4824 200.224 54.0772L199.592 55.7626C200.289 56.024 201.083 56.6284 201.939 57.5523C202.784 58.4641 203.634 59.6243 204.456 60.9053C206.1 63.4672 207.58 66.4249 208.652 68.6431L210.273 67.8598ZM200.224 54.0772C198.816 53.5489 196.96 53.0844 195.265 52.9243C194.417 52.8442 193.575 52.8367 192.832 52.9514C192.108 53.0631 191.359 53.3088 190.829 53.8391L192.101 55.1118C192.238 54.9755 192.541 54.8176 193.107 54.7304C193.652 54.6462 194.334 54.6444 195.096 54.7163C196.618 54.8601 198.317 55.2844 199.592 55.7626L200.224 54.0772ZM190.829 53.8391C190.148 54.5197 190.184 55.4151 190.501 56.1308C190.806 56.8218 191.405 57.4755 192.14 58.0281C193.628 59.1455 195.929 60.0416 198.575 60.0416V58.2416C196.317 58.2416 194.396 57.4712 193.221 56.5889C192.626 56.1416 192.284 55.7121 192.147 55.4032C192.081 55.2544 192.08 55.1718 192.082 55.1457C192.083 55.1348 192.082 55.1311 192.101 55.1118L190.829 53.8391ZM197.781 59.5651C198.658 61.2086 199.494 62.9916 200.338 64.7698C201.177 66.5372 202.023 68.3008 202.902 69.8599C203.777 71.4125 204.714 72.8178 205.755 73.8433C206.799 74.8718 208.027 75.5951 209.463 75.5951V73.7951C208.677 73.7951 207.877 73.4074 207.018 72.5612C206.157 71.7119 205.317 70.4787 204.47 68.9761C203.627 67.4801 202.806 65.7719 201.964 63.9981C201.128 62.2351 200.27 60.4074 199.369 58.718L197.781 59.5651ZM209.463 75.5951C210.641 75.5951 211.688 75.0572 212.626 74.2649C213.561 73.476 214.46 72.375 215.362 71.1061C216.268 69.8322 217.212 68.3377 218.222 66.7395C219.237 65.1339 220.325 63.4123 221.536 61.6512L220.053 60.6314C218.82 62.4254 217.714 64.1755 216.701 65.7779C215.683 67.3876 214.767 68.8371 213.895 70.063C213.02 71.2937 212.225 72.248 211.465 72.8895C210.709 73.5275 210.062 73.7951 209.463 73.7951V75.5951ZM215.651 57.7227L220.192 61.8103L221.397 60.4723L216.855 56.3848L215.651 57.7227Z" fill="black"/>
  <path d="M56.4004 164.017L269.899 164.017" stroke="black" stroke-width="1.8" stroke-linecap="round" stroke-linejoin="round"/>
  <path d="M239.597 79.8057C238.198 75.4919 236.99 72.1067 236.136 70.6958C232.583 70.6958 224.825 70.6958 221.939 70.6958C220.015 73.9072 216.477 84.4525 217.721 100.943C218.964 117.433 221.051 141.272 221.939 151.13H265.011C260.571 140.301 251.899 116.268 248.347 106.768C245.938 100.328 243.269 91.4486 240.94 84.0274" stroke="black" stroke-width="1.8" stroke-linecap="round" stroke-linejoin="round"/>
  <path d="M118.332 56.5669C118.829 56.5669 119.232 56.1639 119.232 55.6669C119.232 55.1698 118.829 54.7669 118.332 54.7669V56.5669ZM112.407 54.7669C111.91 54.7669 111.507 55.1698 111.507 55.6669C111.507 56.1639 111.91 56.5669 112.407 56.5669V54.7669ZM118.332 59.8314C118.829 59.8314 119.232 59.4285 119.232 58.9314C119.232 58.4343 118.829 58.0314 118.332 58.0314V59.8314ZM112.407 58.0314C111.91 58.0314 111.507 58.4343 111.507 58.9314C111.507 59.4285 111.91 59.8314 112.407 59.8314V58.0314ZM118.332 54.7669H112.407V56.5669H118.332V54.7669ZM118.332 58.0314H112.407V59.8314H118.332V58.0314Z" fill="black"/>
  <path d="M122.171 66.9245L122.171 67.8245C122.41 67.8245 122.639 67.7297 122.807 67.5609C122.976 67.3921 123.071 67.1632 123.071 66.9245L122.171 66.9245ZM107.36 66.9245C107.36 67.4216 107.763 67.8245 108.26 67.8245C108.757 67.8245 109.16 67.4216 109.16 66.9245L107.36 66.9245ZM108.26 49.7419L108.26 48.8419C108.021 48.8419 107.792 48.9368 107.623 49.1055C107.455 49.2743 107.36 49.5032 107.36 49.7419L108.26 49.7419ZM114.465 66.0245C113.968 66.0245 113.565 66.4275 113.565 66.9245C113.565 67.4216 113.968 67.8245 114.465 67.8245L114.465 66.0245ZM119.04 49.7419L119.722 49.1542C119.551 48.9559 119.302 48.8419 119.04 48.8419L119.04 49.7419ZM122.171 53.3727L123.071 53.3727C123.071 53.157 122.993 52.9484 122.852 52.785L122.171 53.3727ZM109.16 66.9245L109.16 49.7419L107.36 49.7419L107.36 66.9245L109.16 66.9245ZM122.171 66.0245L114.465 66.0245L114.465 67.8245L122.171 67.8245L122.171 66.0245ZM108.26 50.6419L119.04 50.6419L119.04 48.8419L108.26 48.8419L108.26 50.6419ZM121.271 53.3727L121.271 66.9245L123.071 66.9245L123.071 53.3727L121.271 53.3727ZM118.359 50.3297L121.489 53.9605L122.852 52.785L119.722 49.1542L118.359 50.3297Z" fill="black"/>
  <path d="M154.37 56.1074L155.168 55.6909C155.34 56.0208 155.292 56.4225 155.046 56.7019L154.37 56.1074ZM151.557 50.7177L151.557 49.8177C151.892 49.8177 152.199 50.0041 152.354 50.3012L151.557 50.7177ZM138.833 50.324C139.05 49.877 139.589 49.691 140.036 49.9084C140.483 50.1259 140.669 50.6645 140.451 51.1115L138.833 50.324ZM137.048 56.0503L136.36 56.6311C136.13 56.359 136.082 55.9769 136.238 55.6565L137.048 56.0503ZM145.558 51.6177C145.061 51.6177 144.658 51.2148 144.658 50.7177C144.658 50.2207 145.061 49.8177 145.558 49.8177L145.558 51.6177ZM145.558 66.1228L146.234 66.7173C146.061 66.9139 145.811 67.0254 145.549 67.0228C145.288 67.0201 145.04 66.9037 144.871 66.7037L145.558 66.1228ZM153.572 56.5239L150.759 51.1342L152.354 50.3012L155.168 55.6909L153.572 56.5239ZM140.451 51.1115L137.857 56.444L136.238 55.6565L138.833 50.324L140.451 51.1115ZM151.557 51.6177L145.558 51.6177L145.558 49.8177L151.557 49.8177L151.557 51.6177ZM137.735 55.4694L146.246 65.5419L144.871 66.7037L136.36 56.6311L137.735 55.4694ZM144.883 65.5283L153.694 55.5129L155.046 56.7019L146.234 66.7173L144.883 65.5283Z" fill="black"/>
  <path d="M153.637 56.0503H137.047" stroke="black" stroke-width="1.8" stroke-linecap="round" stroke-linejoin="round"/>
  <path d="M123.873 87.706L124.773 87.706C124.773 87.3935 124.611 87.1033 124.345 86.9395L123.873 87.706ZM123.873 97.5583L123.873 98.4583C124.37 98.4583 124.773 98.0554 124.773 97.5583L123.873 97.5583ZM107.36 97.5583C107.36 98.0554 107.762 98.4583 108.26 98.4583C108.757 98.4583 109.16 98.0554 109.16 97.5583L107.36 97.5583ZM108.26 87.706L107.79 86.9379C107.523 87.1014 107.36 87.3924 107.36 87.706L108.26 87.706ZM114.22 96.6583C113.723 96.6583 113.32 97.0613 113.32 97.5583C113.32 98.0554 113.723 98.4583 114.22 98.4583L114.22 96.6583ZM116.096 82.9207L116.567 82.1541C116.279 81.9767 115.916 81.9761 115.627 82.1526L116.096 82.9207ZM122.973 87.706L122.973 97.5583L124.773 97.5583L124.773 87.706L122.973 87.706ZM109.16 97.5583L109.16 87.706L107.36 87.706L107.36 97.5583L109.16 97.5583ZM123.873 96.6583L114.22 96.6583L114.22 98.4583L123.873 98.4583L123.873 96.6583ZM108.729 88.4741L116.565 83.6888L115.627 82.1526L107.79 86.9379L108.729 88.4741ZM115.624 83.6872L123.401 88.4726L124.345 86.9395L116.567 82.1541L115.624 83.6872Z" fill="black"/>
  <path d="M138.602 85.6571L146.247 90.7571L153.693 85.6867L146.247 80.4812L142.519 82.9829" stroke="black" stroke-width="1.8" stroke-linecap="round" stroke-linejoin="round"/>
  <path d="M153.693 85.7286V94.5161L146.246 99.8906L138.51 94.5161V85.6189" stroke="black" stroke-width="1.8" stroke-linecap="round" stroke-linejoin="round"/>
  <path d="M146.248 91.1194V99.8904" stroke="black" stroke-width="1.8" stroke-linecap="round" stroke-linejoin="round"/>
  <path d="M176.432 90.1561L176.433 90.1562C176.829 90.2431 177.11 90.3409 177.282 90.446C177.441 90.5452 177.515 90.6788 177.515 90.856C177.515 91.0206 177.473 91.1522 177.394 91.2569C177.314 91.3623 177.191 91.4485 177.016 91.511C176.833 91.5759 176.587 91.6104 176.274 91.6104C175.719 91.6104 175.324 91.4323 175.129 91.049C175.001 90.7969 174.764 90.55 174.442 90.55C174.188 90.55 173.949 90.6566 173.794 90.827C173.638 90.9998 173.569 91.2405 173.667 91.492C173.792 91.8141 173.997 92.0884 174.28 92.3143L174.28 92.3145C174.785 92.7156 175.471 92.9101 176.327 92.9101C177.165 92.9101 177.829 92.7124 178.303 92.3031L178.303 92.303C178.777 91.8929 179.016 91.3748 179.016 90.7552C179.016 90.155 178.814 89.6839 178.4 89.3578C178.136 89.1494 177.752 88.9887 177.257 88.8703L176.144 88.603L176.144 88.603C175.713 88.5002 175.447 88.4139 175.33 88.3464L175.33 88.3464L175.328 88.3456C175.239 88.2958 175.176 88.2358 175.136 88.1673C175.095 88.0987 175.073 88.0161 175.073 87.9159C175.073 87.6978 175.16 87.5332 175.34 87.4117C175.526 87.2862 175.781 87.2185 176.117 87.2185C176.576 87.2185 176.995 87.37 177.19 87.7009C177.33 87.9379 177.562 88.2087 177.891 88.2087C178.142 88.2087 178.375 88.1017 178.525 87.932C178.676 87.7601 178.741 87.5219 178.641 87.2759C178.509 86.9479 178.297 86.6755 178.008 86.4602C177.51 86.0832 176.908 85.8968 176.209 85.8968C175.379 85.8968 174.734 86.0914 174.288 86.4968C173.846 86.8988 173.624 87.4064 173.624 88.0123C173.624 88.6715 173.852 89.1719 174.32 89.4924C174.595 89.6824 175.076 89.8506 175.748 90.0027L175.749 90.0027L176.432 90.1561Z" fill="black" stroke="black" stroke-width="0.2"/>
  <path d="M177.058 85.5107C177.058 85.0137 176.655 84.6107 176.158 84.6107C175.661 84.6107 175.258 85.0137 175.258 85.5107L177.058 85.5107ZM175.258 86.3806C175.258 86.8777 175.661 87.2806 176.158 87.2806C176.655 87.2806 177.058 86.8777 177.058 86.3806L175.258 86.3806ZM175.258 85.5107L175.258 86.3806L177.058 86.3806L177.058 85.5107L175.258 85.5107Z" fill="black"/>
  <path d="M177.058 92.4263C177.058 91.9292 176.655 91.5263 176.158 91.5263C175.661 91.5263 175.258 91.9292 175.258 92.4263L177.058 92.4263ZM175.258 93.2962C175.258 93.7932 175.661 94.1962 176.158 94.1962C176.655 94.1962 177.058 93.7932 177.058 93.2962L175.258 93.2962ZM175.258 92.4263L175.258 93.2962L177.058 93.2962L177.058 92.4263L175.258 92.4263Z" fill="black"/>
  <path d="M171.45 82.5058C175.401 79.6654 181.142 80.8831 183.613 85.1627C185.955 89.2193 184.565 94.4064 180.509 96.7484C176.452 99.0905 171.265 97.7006 168.923 93.644C167.666 91.4672 167.484 88.9648 168.212 86.7512" stroke="black" stroke-width="1.8" stroke-linecap="round" stroke-linejoin="round"/>
  <path d="M93.5967 42.8381L93.5967 106.756" stroke="black" stroke-width="1.8" stroke-linecap="round" stroke-linejoin="round"/>
  <circle r="10.1562" transform="matrix(-1 0 0 1 76.4532 54.4413)" fill="black"/>
  <path d="M79.5629 58.96C79.5629 59.4571 79.9658 59.86 80.4629 59.86C80.9599 59.86 81.3629 59.4571 81.3629 58.96L79.5629 58.96ZM71.5449 58.96C71.5449 59.4571 71.9478 59.86 72.4449 59.86C72.9419 59.86 73.3449 59.4571 73.3449 58.96L71.5449 58.96ZM79.5629 58.239L79.5629 58.96L81.3629 58.96L81.3629 58.239L79.5629 58.239ZM73.3449 58.96L73.3449 58.239L71.5449 58.239L71.5449 58.96L73.3449 58.96ZM74.3966 57.1874L78.5112 57.1874L78.5112 55.3874L74.3966 55.3874L74.3966 57.1874ZM73.3449 58.239C73.3449 57.6582 73.8157 57.1874 74.3966 57.1874L74.3966 55.3874C72.8216 55.3874 71.5449 56.6641 71.5449 58.239L73.3449 58.239ZM81.3629 58.239C81.3629 56.6641 80.0861 55.3874 78.5112 55.3874L78.5112 57.1874C79.092 57.1874 79.5629 57.6582 79.5629 58.239L81.3629 58.239Z" fill="white"/>
  <circle cx="76.4539" cy="51.4766" r="1.77267" stroke="white" stroke-width="1.8"/>
</svg>
