<svg viewBox="0 0 56 56" fill="none" xmlns="http://www.w3.org/2000/svg">
  <circle cx="28" cy="28" r="28" fill="#DCF4F2"/>
  <g clip-path="url(#clip0_2905_14215)">
    <path d="M28.3433 31.2027C28.8313 31.2027 29.2276 31.1489 29.532 31.0415C30.1096 30.8355 30.3984 30.4527 30.3984 29.893C30.3984 29.5662 30.2551 29.3132 29.9686 29.1341C29.682 28.9595 29.232 28.8051 28.6186 28.6707L27.571 28.4357C26.5412 28.2029 25.8293 27.9499 25.4353 27.6768C24.7682 27.2201 24.4346 26.506 24.4346 25.5344C24.4346 24.6479 24.757 23.9114 25.4017 23.3249C26.0464 22.7383 26.9934 22.4451 28.2426 22.4451C29.2858 22.4451 30.1745 22.7227 30.9088 23.2778C31.3296 23.5916 31.6364 23.9867 31.8292 24.4631C32.0852 25.0961 31.5045 25.6822 30.8216 25.6822C30.4066 25.6822 30.0897 25.3365 29.8788 24.9791C29.5393 24.4038 28.8299 24.1643 28.1015 24.1643C27.5687 24.1643 27.1434 24.2718 26.8255 24.4867C26.5076 24.7016 26.3487 25.0016 26.3487 25.3866C26.3487 25.7404 26.5054 26.0045 26.8188 26.1791C27.0203 26.2955 27.4501 26.4321 28.1082 26.5888L29.8141 26.9985C30.5618 27.1776 31.1259 27.4171 31.5065 27.7171C32.0975 28.1827 32.393 28.8565 32.393 29.7386C32.393 30.643 32.046 31.3952 31.352 31.9951C30.6625 32.5906 29.6865 32.8884 28.4239 32.8884C27.1344 32.8884 26.1203 32.5951 25.3816 32.0086C24.9687 31.6783 24.6712 31.2795 24.4891 30.8122C24.2363 30.1635 24.8379 29.5774 25.5342 29.5774C25.9433 29.5774 26.2663 29.8935 26.4516 30.2583C26.7864 30.9175 27.4618 31.2027 28.3433 31.2027Z" fill="#00857C"/>
    <path d="M29.1655 21.7002C29.1655 21.1479 28.7178 20.7002 28.1655 20.7002C27.6132 20.7002 27.1655 21.1479 27.1655 21.7002L29.1655 21.7002ZM27.1655 23.0336C27.1655 23.5858 27.6132 24.0336 28.1655 24.0336C28.7178 24.0336 29.1655 23.5858 29.1655 23.0336L27.1655 23.0336ZM27.1655 21.7002L27.1655 23.0336L29.1655 23.0336L29.1655 21.7002L27.1655 21.7002Z" fill="#00857C"/>
    <path d="M29.1655 32.2996C29.1655 31.7473 28.7178 31.2996 28.1655 31.2996C27.6132 31.2996 27.1655 31.7473 27.1655 32.2996L29.1655 32.2996ZM27.1655 33.6329C27.1655 34.1852 27.6132 34.6329 28.1655 34.6329C28.7178 34.6329 29.1655 34.1852 29.1655 33.6329L27.1655 33.6329ZM27.1655 32.2996L27.1655 33.6329L29.1655 33.6329L29.1655 32.2996L27.1655 32.2996Z" fill="#00857C"/>
    <path d="M17.3696 20.9182C14.8511 24.8757 14.5675 30.0648 17.0752 34.4083C20.665 40.6261 28.6157 42.7565 34.8335 39.1666C41.0513 35.5768 43.1817 27.6261 39.5918 21.4083C35.8046 14.8486 27.0053 12.9821 20.9493 17.3359" stroke="#00857C" stroke-width="2" stroke-linecap="round" stroke-linejoin="round"/>
  </g>
  <defs>
    <clipPath id="clip0_2905_14215">
      <rect width="32" height="32" fill="white" transform="translate(12 12)"/>
    </clipPath>
  </defs>
</svg>
