<svg viewBox="0 0 621 370" fill="none" xmlns="http://www.w3.org/2000/svg">
  <path d="M395.214 219.649L105.255 219.649" stroke="black" stroke-width="3" stroke-linecap="round" stroke-linejoin="round"/>
  <rect x="-1.5" y="1.5" width="303" height="197" rx="16.5" transform="matrix(-1 0 0 1 394 60.6494)" stroke="black" stroke-width="3"/>
  <path d="M203.166 311.639L308.584 311.639C311.993 311.639 314.743 314.429 314.692 317.838V317.838C314.643 321.177 311.922 323.857 308.584 323.857L280.45 323.857" stroke="black" stroke-width="3" stroke-linecap="round" stroke-linejoin="round"/>
  <path d="M197.283 259.649L177.283 322.649" stroke="black" stroke-width="3" stroke-linecap="round" stroke-linejoin="round"/>
  <path d="M280.283 259.649L263.283 311.649" stroke="black" stroke-width="3" stroke-linecap="round" stroke-linejoin="round"/>
  <path d="M499.422 297.444V306.97L503.182 323.857M512.114 297.444L528.567 323.857" stroke="black" stroke-width="3" stroke-linecap="round" stroke-linejoin="round"/>
  <path d="M453.883 297.444L460.714 323.401H416.541L441.132 304.731V297.444" stroke="black" stroke-width="3" stroke-linecap="round" stroke-linejoin="round"/>
  <path d="M428.381 113.924C427.653 119.024 429.596 128.192 430.658 132.139H458.892L462.535 111.646C464.053 110.129 468.456 107.093 474.831 102.539C468.911 96.1633 462.687 94.0382 459.803 93.4311C453.428 93.2793 438.309 93.0668 432.48 93.4311C426.651 93.7954 420.943 101.476 418.818 105.271C420.336 106.486 424.374 109.916 428.381 113.924Z" fill="black" stroke="black" stroke-width="4" stroke-linecap="round" stroke-linejoin="round"/>
  <path d="M433.994 60.6431C429.824 65.9932 425.362 82.5867 431.131 85.9485C435.106 88.2639 440.222 84.3461 440.222 84.3461L442.042 93.4309" stroke="black" stroke-width="3" stroke-linecap="round" stroke-linejoin="round"/>
  <path d="M436.203 65.6251C445.711 74.8748 441.119 93.1424 458.892 86.1448C468 82.5588 463.646 78.9782 458.892 72.4832C454.138 65.9881 454.674 67.4006 452.848 61.8913C451.022 56.3819 441.508 55.8467 436.203 58.6927C430.899 61.5388 436.203 65.6251 436.203 65.6251Z" fill="black" stroke="black" stroke-width="4" stroke-linecap="round" stroke-linejoin="round"/>
  <path d="M471.188 102.539C478.019 109.521 493.229 123.76 493.957 128.496C494.868 134.416 475.742 159.917 466.634 159.917C457.526 159.917 448.874 159.917 448.874 155.819C450.696 148.533 462.839 150.961 466.634 151.72L482.573 130.317L460.714 111.646" stroke="black" stroke-width="3" stroke-linecap="round" stroke-linejoin="round"/>
  <path d="M404.702 127.585L418.618 104.635L427.926 113.013C417.908 127.585 411.988 140.791 404.702 140.791C395.594 140.791 389.674 122.576 382.388 108.914C372.336 108.914 365.083 102.083 367.815 99.3509C370.547 96.6184 379.62 98.199 385.12 100.262C392.406 102.994 400.3 118.477 404.702 127.585Z" fill="white"/>
  <path d="M418.618 104.635L419.622 103.52C419.29 103.221 418.842 103.086 418.4 103.151C417.958 103.216 417.568 103.475 417.336 103.857L418.618 104.635ZM404.702 127.585L403.351 128.238C403.59 128.733 404.081 129.057 404.63 129.083C405.18 129.109 405.699 128.833 405.984 128.363L404.702 127.585ZM385.12 100.262L384.593 101.666L384.593 101.666L385.12 100.262ZM367.815 99.3509L368.876 100.411H368.876L367.815 99.3509ZM382.388 108.914L383.711 108.208C383.45 107.719 382.942 107.414 382.388 107.414V108.914ZM427.926 113.013L429.162 113.862C429.589 113.242 429.489 112.401 428.93 111.898L427.926 113.013ZM417.336 103.857L403.419 126.807L405.984 128.363L419.901 105.413L417.336 103.857ZM406.052 126.932C403.848 122.372 400.741 116.155 397.255 110.722C395.511 108.006 393.65 105.45 391.734 103.383C389.837 101.336 387.788 99.6602 385.647 98.8572L384.593 101.666C386.095 102.229 387.765 103.513 389.534 105.423C391.285 107.312 393.039 109.708 394.73 112.343C398.112 117.612 401.153 123.69 403.351 128.238L406.052 126.932ZM385.647 98.8572C382.785 97.7841 379.012 96.8399 375.571 96.5147C373.85 96.3523 372.155 96.3386 370.669 96.5679C369.217 96.7921 367.766 97.2788 366.754 98.2902L368.876 100.411C369.231 100.057 369.938 99.7163 371.127 99.5328C372.283 99.3544 373.711 99.3525 375.288 99.5015C378.441 99.7992 381.954 100.677 384.593 101.666L385.647 98.8572ZM366.754 98.2902C365.493 99.5521 365.542 101.22 366.154 102.604C366.747 103.947 367.925 105.244 369.406 106.356C372.395 108.602 377.038 110.414 382.388 110.414V107.414C377.685 107.414 373.676 105.811 371.208 103.958C369.961 103.021 369.21 102.098 368.898 101.392C368.604 100.727 368.771 100.516 368.876 100.411L366.754 98.2902ZM381.064 109.62C382.865 112.997 384.584 116.66 386.312 120.301C388.031 123.925 389.76 127.529 391.555 130.712C393.343 133.885 395.246 136.732 397.344 138.8C399.448 140.873 401.883 142.291 404.702 142.291V139.291C402.966 139.291 401.246 138.432 399.45 136.663C397.65 134.889 395.909 132.328 394.168 129.239C392.433 126.161 390.747 122.649 389.022 119.015C387.306 115.399 385.553 111.662 383.711 108.208L381.064 109.62ZM404.702 142.291C407.006 142.291 409.075 141.24 410.963 139.646C412.845 138.058 414.668 135.829 416.512 133.236C418.362 130.634 420.292 127.58 422.363 124.302C424.443 121.012 426.677 117.478 429.162 113.862L426.69 112.163C424.167 115.833 421.903 119.415 419.827 122.699C417.744 125.996 415.86 128.976 414.067 131.497C412.268 134.027 410.618 136.011 409.028 137.354C407.444 138.691 406.04 139.291 404.702 139.291V142.291ZM417.615 105.75L426.923 114.127L428.93 111.898L419.622 103.52L417.615 105.75Z" fill="black"/>
  <path d="M90.9999 323.857L528.566 323.857" stroke="black" stroke-width="3" stroke-linecap="round" stroke-linejoin="round"/>
  <path d="M466.461 151.265C463.593 142.424 461.118 135.486 459.367 132.594C452.086 132.594 436.186 132.594 430.271 132.594C426.327 139.176 419.077 160.789 421.625 194.585C424.173 228.382 428.451 277.24 430.271 297.444H518.548C509.447 275.25 491.674 225.994 484.393 206.524C479.458 193.325 473.986 175.127 469.214 159.917" stroke="black" stroke-width="3" stroke-linecap="round" stroke-linejoin="round"/>
  <path d="M217.927 103.293C218.755 103.293 219.427 102.621 219.427 101.793C219.427 100.964 218.755 100.293 217.927 100.293V103.293ZM205.784 100.293C204.955 100.293 204.284 100.964 204.284 101.793C204.284 102.621 204.955 103.293 205.784 103.293V100.293ZM217.927 109.983C218.755 109.983 219.427 109.312 219.427 108.483C219.427 107.655 218.755 106.983 217.927 106.983V109.983ZM205.784 106.983C204.955 106.983 204.284 107.655 204.284 108.483C204.284 109.312 204.955 109.983 205.784 109.983V106.983ZM217.927 100.293H205.784V103.293H217.927V100.293ZM217.927 106.983H205.784V109.983H217.927V106.983Z" fill="black"/>
  <path d="M225.794 124.865L225.794 126.365C226.192 126.365 226.573 126.207 226.854 125.926C227.136 125.645 227.294 125.263 227.294 124.865L225.794 124.865ZM195.783 124.865C195.783 125.694 196.455 126.365 197.283 126.365C198.112 126.365 198.783 125.694 198.783 124.865L195.783 124.865ZM197.283 89.6494L197.283 88.1494C196.885 88.1494 196.504 88.3074 196.222 88.5888C195.941 88.8701 195.783 89.2516 195.783 89.6494L197.283 89.6494ZM210 123.365C209.171 123.365 208.5 124.037 208.5 124.865C208.5 125.694 209.171 126.365 210 126.365L210 123.365ZM219.377 89.6494L220.513 88.6699C220.228 88.3394 219.814 88.1494 219.377 88.1494L219.377 89.6494ZM225.794 97.0907L227.294 97.0907C227.294 96.7311 227.165 96.3835 226.93 96.1112L225.794 97.0907ZM198.783 124.865L198.783 89.6494L195.783 89.6494L195.783 124.865L198.783 124.865ZM225.794 123.365L210 123.365L210 126.365L225.794 126.365L225.794 123.365ZM197.283 91.1494L219.377 91.1494L219.377 88.1494L197.283 88.1494L197.283 91.1494ZM224.294 97.0907L224.294 124.865L227.294 124.865L227.294 97.0907L224.294 97.0907ZM218.241 90.629L224.658 98.0703L226.93 96.1112L220.513 88.6699L218.241 90.629Z" fill="black"/>
  <path d="M291.786 102.696L293.116 102.001C293.403 102.551 293.322 103.221 292.912 103.686L291.786 102.696ZM286.02 91.6494L286.02 90.1494C286.578 90.1494 287.091 90.46 287.349 90.9553L286.02 91.6494ZM260.252 90.9932C260.614 90.2482 261.512 89.9381 262.257 90.3006C263.002 90.663 263.312 91.5607 262.949 92.3056L260.252 90.9932ZM256.283 102.578L255.138 103.547C254.754 103.093 254.675 102.456 254.934 101.922L256.283 102.578ZM273.726 93.1494C272.898 93.1494 272.226 92.4778 272.226 91.6494C272.226 90.821 272.898 90.1494 273.726 90.1494L273.726 93.1494ZM273.726 123.222L274.852 124.213C274.564 124.541 274.148 124.726 273.711 124.722C273.275 124.718 272.862 124.524 272.581 124.19L273.726 123.222ZM290.456 103.39L284.69 92.3436L287.349 90.9553L293.116 102.001L290.456 103.39ZM262.949 92.3056L257.632 103.235L254.934 101.922L260.252 90.9932L262.949 92.3056ZM286.02 93.1494L273.726 93.1494L273.726 90.1494L286.02 90.1494L286.02 93.1494ZM257.429 101.61L274.872 122.254L272.581 124.19L255.138 103.547L257.429 101.61ZM272.6 122.231L290.66 101.705L292.912 103.686L274.852 124.213L272.6 122.231Z" fill="black"/>
  <path d="M290.284 102.578H256.283" stroke="black" stroke-width="3" stroke-linecap="round" stroke-linejoin="round"/>
  <path d="M229.283 167.457L230.783 167.457C230.783 166.936 230.513 166.453 230.069 166.18L229.283 167.457ZM229.283 187.649L229.283 189.149C230.112 189.149 230.783 188.478 230.783 187.649L229.283 187.649ZM195.783 187.649C195.783 188.478 196.455 189.149 197.283 189.149C198.112 189.149 198.783 188.478 198.783 187.649L195.783 187.649ZM197.283 167.457L196.501 166.177C196.055 166.449 195.783 166.934 195.783 167.457L197.283 167.457ZM209.5 186.149C208.671 186.149 208 186.821 208 187.649C208 188.478 208.671 189.149 209.5 189.149L209.5 186.149ZM213.343 157.649L214.129 156.372C213.649 156.076 213.043 156.075 212.562 156.369L213.343 157.649ZM227.783 167.457L227.783 187.649L230.783 187.649L230.783 167.457L227.783 167.457ZM198.783 187.649L198.783 167.457L195.783 167.457L195.783 187.649L198.783 187.649ZM229.283 186.149L209.5 186.149L209.5 189.149L229.283 189.149L229.283 186.149ZM198.065 168.737L214.125 158.93L212.562 156.369L196.501 166.177L198.065 168.737ZM212.557 158.927L228.497 168.735L230.069 166.18L214.129 156.372L212.557 158.927Z" fill="black"/>
  <path d="M259.472 163.257L275.141 173.71L290.402 163.318L275.141 152.649L267.5 157.777" stroke="black" stroke-width="3" stroke-linecap="round" stroke-linejoin="round"/>
  <path d="M290.401 163.404V181.414L275.139 192.429L259.283 181.414V163.179" stroke="black" stroke-width="3" stroke-linecap="round" stroke-linejoin="round"/>
  <path d="M275.143 174.453V192.429" stroke="black" stroke-width="3" stroke-linecap="round" stroke-linejoin="round"/>
  <path d="M337.028 172.376L337.029 172.376C337.846 172.555 338.434 172.758 338.803 172.983C339.158 173.205 339.33 173.511 339.33 173.912C339.33 174.269 339.238 174.562 339.061 174.797C338.882 175.034 338.611 175.221 338.238 175.354C337.846 175.492 337.329 175.564 336.682 175.564C335.524 175.564 334.666 175.19 334.242 174.356C333.987 173.854 333.528 173.39 332.926 173.39C332.434 173.39 331.972 173.597 331.677 173.924C331.38 174.252 331.251 174.704 331.435 175.178C331.686 175.82 332.094 176.367 332.659 176.819L332.66 176.819C333.671 177.622 335.051 178.018 336.79 178.018C338.493 178.018 339.824 177.616 340.771 176.799L340.771 176.799C341.72 175.978 342.197 174.945 342.197 173.706C342.197 172.502 341.792 171.569 340.974 170.924C340.449 170.511 339.679 170.186 338.672 169.945L336.391 169.397L336.391 169.397C335.509 169.187 334.948 169.007 334.694 168.86L334.694 168.86L334.692 168.859C334.496 168.75 334.353 168.614 334.258 168.455C334.164 168.297 334.115 168.108 334.115 167.887C334.115 167.405 334.311 167.035 334.709 166.766C335.112 166.494 335.659 166.352 336.359 166.352C337.317 166.352 338.221 166.668 338.649 167.393C338.933 167.874 339.383 168.382 339.996 168.382C340.48 168.382 340.93 168.175 341.215 167.85C341.503 167.524 341.623 167.077 341.436 166.615C341.171 165.96 340.749 165.417 340.172 164.987C339.171 164.23 337.961 163.854 336.547 163.854C334.863 163.854 333.569 164.249 332.682 165.056C331.798 165.86 331.356 166.871 331.356 168.084C331.356 169.409 331.812 170.398 332.737 171.031C333.281 171.408 334.25 171.75 335.627 172.061L335.628 172.061L337.028 172.376Z" fill="black" stroke="black" stroke-width="0.2"/>
  <path d="M337.944 162.958C337.944 162.13 337.273 161.458 336.444 161.458C335.616 161.458 334.944 162.13 334.944 162.958L337.944 162.958ZM334.944 164.741C334.944 165.569 335.616 166.241 336.444 166.241C337.273 166.241 337.944 165.569 337.944 164.741L334.944 164.741ZM334.944 162.958L334.944 164.741L337.944 164.741L337.944 162.958L334.944 162.958Z" fill="black"/>
  <path d="M337.944 177.131C337.944 176.303 337.273 175.631 336.444 175.631C335.616 175.631 334.944 176.303 334.944 177.131L337.944 177.131ZM334.944 178.914C334.944 179.742 335.616 180.414 336.444 180.414C337.273 180.414 337.944 179.742 337.944 178.914L334.944 178.914ZM334.944 177.131L334.944 178.914L337.944 178.914L337.944 177.131L334.944 177.131Z" fill="black"/>
  <path d="M326.795 156.799C334.893 150.978 346.658 153.473 351.722 162.244C356.522 170.558 353.674 181.189 345.36 185.989C337.046 190.79 326.415 187.941 321.615 179.627C319.039 175.166 318.666 170.037 320.158 165.5" stroke="black" stroke-width="3" stroke-linecap="round" stroke-linejoin="round"/>
  <path d="M167.232 75.5L167.232 206.5" stroke="black" stroke-width="3" stroke-linecap="round" stroke-linejoin="round"/>
  <circle r="20.8151" transform="matrix(-1 0 0 1 132.098 99.2804)" fill="black"/>
  <path d="M138.814 108.542C138.814 109.371 139.486 110.042 140.314 110.042C141.143 110.042 141.814 109.371 141.814 108.542L138.814 108.542ZM122.381 108.542C122.381 109.371 123.053 110.042 123.881 110.042C124.71 110.042 125.381 109.371 125.381 108.542L122.381 108.542ZM138.814 107.064L138.814 108.542L141.814 108.542L141.814 107.064L138.814 107.064ZM125.381 108.542L125.381 107.064L122.381 107.064L122.381 108.542L125.381 108.542ZM127.881 104.564L136.314 104.564L136.314 101.564L127.881 101.564L127.881 104.564ZM125.381 107.064C125.381 105.684 126.501 104.564 127.881 104.564L127.881 101.564C124.844 101.564 122.381 104.027 122.381 107.064L125.381 107.064ZM141.814 107.064C141.814 104.027 139.352 101.564 136.314 101.564L136.314 104.564C137.695 104.564 138.814 105.684 138.814 107.064L141.814 107.064Z" fill="white"/>
  <circle cx="132.099" cy="93.2047" r="3.97766" stroke="white" stroke-width="3"/>
</svg>
