<svg viewBox="0 0 620 370" fill="none" xmlns="http://www.w3.org/2000/svg">
  <path d="M147.5 312.5L493 312.5" stroke="black" stroke-width="3" stroke-linecap="round" stroke-linejoin="round"/>
  <path d="M180.815 163.992L228.531 296.434L250.303 312.328H216.803L217.13 298.809H211.079L154.89 177.511" stroke="black" stroke-width="3" stroke-linecap="round" stroke-linejoin="round"/>
  <path d="M144.393 165.771L142.661 298.273H150.23L147.234 312.513H183.114L162.113 296.107L169.961 210.059" stroke="black" stroke-width="3" stroke-linecap="round" stroke-linejoin="round"/>
  <path d="M152.117 98.336C158.382 90.1245 149.088 85.5844 148.225 78.8844C147.362 72.1843 149.737 60.9442 160.548 63.3243C171.36 65.7044 177.572 94.4445 164.279 90.6957L165.112 99.4725" stroke="black" stroke-width="3" stroke-linecap="round" stroke-linejoin="round"/>
  <path d="M160.138 95.9561C171.818 96.8189 185.677 136.591 185.677 136.591L222.851 161.503L217.289 170.958L182.273 152.169V168.235H139.478C139.478 168.235 133.998 94.0222 160.138 95.9561Z" fill="black" stroke="black" stroke-width="3" stroke-linecap="round" stroke-linejoin="round"/>
  <path d="M215.76 173.878C215.76 173.878 179.996 154.463 174.325 148.156C168.654 141.848 157.954 117.46 157.954 117.46" stroke="white" stroke-width="3" stroke-linecap="round" stroke-linejoin="round"/>
  <path d="M218.738 169.841C218.738 169.841 238.611 186.986 239.749 182.42C240.888 177.853 230.013 166.137 227.636 164.443C225.259 162.748 222.367 161.946 222.367 161.946" stroke="black" stroke-width="3" stroke-linecap="round" stroke-linejoin="round"/>
  <path d="M169.664 95.7958C169.664 95.7958 173.77 99.4374 177.995 106.709C186.825 99.5683 196.69 84.4485 196.69 84.4485L191.264 77.5461L169.664 95.7958Z" fill="black" stroke="black" stroke-width="3" stroke-linecap="round" stroke-linejoin="round"/>
  <path d="M191.258 77.5462C191.258 77.5462 203.657 60.0062 206.247 62.9441C208.836 65.882 201.002 81.551 198.321 82.7759L195.399 84.5015" stroke="black" stroke-width="3" stroke-linecap="round" stroke-linejoin="round"/>
  <path d="M155.971 83.2954C158.024 86.8875 155.238 90.4064 153.405 89.9665C149.05 81.4436 141.54 82.2229 144.508 77.4326C141.184 76.5421 142.023 72.552 144.508 72.1262C141.95 70.5333 142.143 66.2371 146.101 65.8027C145.135 61.8927 148.035 60.1887 151.7 61.3617C151.7 56.5828 156.479 57.5964 157.927 60.1066C158.845 58.2723 162.457 57.5916 162.786 61.3617C165.746 58.4562 170.344 63.8172 166.287 67.2709C159.709 69.6281 156.474 71.492 158.941 77.9608C154.665 77.9608 153.919 79.7033 155.971 83.2954Z" fill="black" stroke="black" stroke-width="2" stroke-linejoin="round"/>
  <path d="M405.171 55.885C400.996 61.5772 396.528 79.2314 402.304 82.8082C406.284 85.2716 411.406 81.1033 411.406 81.1033L413.229 90.769" stroke="black" stroke-width="3" stroke-linecap="round" stroke-linejoin="round"/>
  <path d="M407.614 61.1946C417.468 71.0551 412.485 98.9873 430.905 91.5276C439.325 88.1248 434.155 76.5386 429.228 69.6147C424.301 62.6908 426.758 63.0874 424.865 57.2143C422.972 51.3411 413.112 50.7705 407.614 53.8045C402.117 56.8385 407.614 61.1946 407.614 61.1946Z" fill="black" stroke="black" stroke-width="3" stroke-linecap="round" stroke-linejoin="round"/>
  <path d="M449.497 193.303C454.16 189.099 454.953 182.343 452.232 171.981L444.074 137.537C444.074 137.537 443.806 106.315 442.275 101.882C438.442 90.783 433.055 90.783 419.165 90.783C405.276 90.783 399.364 92.8566 395.154 96.6769C388.773 102.453 384.698 139.639 384.698 139.639C384.698 139.639 377.646 167.378 369.321 175.963C363.628 182.96 360.334 194.199 362.862 194.788C365.391 195.377 367.625 189.566 375.504 182.009C383.384 174.451 388.321 157.785 393.631 145.398C396.505 138.697 400.286 116.022 400.286 116.022" stroke="black" stroke-width="3" stroke-linecap="round" stroke-linejoin="round"/>
  <path d="M433.083 104.805L435.449 137.03H405.165L397.941 105.939" stroke="black" stroke-width="3" stroke-linecap="round" stroke-linejoin="round"/>
  <path d="M379.438 269.726C384.019 226.204 382.408 176.778 405.157 137.023H435.435L465.614 269.726H379.438Z" fill="black" stroke="black" stroke-width="3" stroke-linecap="round" stroke-linejoin="round"/>
  <path d="M389.82 111.04H397.941" stroke="black" stroke-width="3" stroke-linecap="round" stroke-linejoin="round"/>
  <path d="M434.453 111.04H442.574" stroke="black" stroke-width="3" stroke-linecap="round" stroke-linejoin="round"/>
  <path d="M463.555 260.86L471.933 296.934L493 312.5" stroke="black" stroke-width="3" stroke-linecap="round" stroke-linejoin="round"/>
  <path d="M463.527 310.427C463.527 310.427 463.012 301.854 460.855 295.765C456.777 284.235 446.499 266.789 444.676 253.554" stroke="black" stroke-width="3" stroke-linecap="round" stroke-linejoin="round"/>
  <path d="M416.398 310.427C416.398 310.427 414.479 300.386 413.729 296.165C413.73 287.197 415.595 278.154 415.378 265.005" stroke="black" stroke-width="3" stroke-linecap="round" stroke-linejoin="round"/>
  <path d="M401.482 310.427C401.482 310.427 401.867 304.418 403.451 299.062C403.273 291.764 401.427 274.763 402.343 267.434" stroke="black" stroke-width="3" stroke-linecap="round" stroke-linejoin="round"/>
  <path d="M228 149L228 87.9784L277.185 58L326 87.9784L326 149L238.5 149" stroke="black" stroke-width="3" stroke-linecap="round" stroke-linejoin="round"/>
  <path d="M268.425 99.6501L302.725 99.6501" stroke="black" stroke-width="3" stroke-linecap="round" stroke-linejoin="round"/>
  <circle cx="255" cy="100" r="3" fill="black"/>
  <path d="M268.425 114.35L302.725 114.35" stroke="black" stroke-width="3" stroke-linecap="round" stroke-linejoin="round"/>
  <path d="M268.425 129.05L302.725 129.05" stroke="black" stroke-width="3" stroke-linecap="round" stroke-linejoin="round"/>
</svg>
