<svg viewBox="0 0 621 370" fill="none" xmlns="http://www.w3.org/2000/svg">
  <path d="M91 323.857L528.566 323.857" stroke="black" stroke-width="3" stroke-linecap="round" stroke-linejoin="round"/>
  <circle cx="108.5" cy="69.5" r="5.5" fill="black"/>
  <circle cx="125.5" cy="69.5" r="5.5" fill="black"/>
  <circle cx="142.5" cy="69.5" r="5.5" fill="black"/>
  <path d="M251 152C251 150.674 250.473 149.402 249.536 148.464C248.598 147.527 247.326 147 246 147C244.674 147 243.402 147.527 242.464 148.464C241.527 149.402 241 150.674 241 152L246 152H251Z" fill="black"/>
  <path d="M251 201C251 199.674 250.473 198.402 249.536 197.464C248.598 196.527 247.326 196 246 196C244.674 196 243.402 196.527 242.464 197.464C241.527 198.402 241 199.674 241 201L246 201H251Z" fill="black"/>
  <path d="M196 219C197.326 219 198.598 218.473 199.536 217.536C200.473 216.598 201 215.326 201 214C201 212.674 200.473 211.402 199.536 210.464C198.598 209.527 197.326 209 196 209L196 214L196 219Z" fill="black"/>
  <path d="M296 209C294.674 209 293.402 209.527 292.464 210.464C291.527 211.402 291 212.674 291 214C291 215.326 291.527 216.598 292.464 217.536C293.402 218.473 294.674 219 296 219L296 214L296 209Z" fill="black"/>
  <rect x="216" y="104" width="60" height="24" rx="6" fill="black" stroke="black" stroke-width="3"/>
  <rect x="216" y="153" width="60" height="24" rx="6" stroke="black" stroke-width="3"/>
  <rect x="216" y="202" width="60" height="24" rx="6" stroke="black" stroke-width="3"/>
  <rect x="136" y="202" width="60" height="24" rx="6" stroke="black" stroke-width="3"/>
  <rect x="296" y="202" width="60" height="24" rx="6" stroke="black" stroke-width="3"/>
  <path d="M246 129L246 151.5" stroke="black" stroke-width="3" stroke-linecap="round" stroke-linejoin="round"/>
  <path d="M246 178L246 200.5" stroke="black" stroke-width="3" stroke-linecap="round" stroke-linejoin="round"/>
  <path d="M216 165L209 165C207.343 165 206 166.343 206 168L206 211C206 212.657 204.657 214 203 214L198 214" stroke="black" stroke-width="3" stroke-linecap="round" stroke-linejoin="round"/>
  <path d="M276 165L283 165C284.657 165 286 166.343 286 168L286 211C286 212.657 287.343 214 289 214L294 214" stroke="black" stroke-width="3" stroke-linecap="round" stroke-linejoin="round"/>
  <path d="M400 166.135V259C400 265.627 394.627 271 388 271H103C96.3726 271 91 265.627 91 259V65C91 58.3726 96.3726 53 103 53H388C394.627 53 400 58.3726 400 65V133.468" stroke="black" stroke-width="3" stroke-linecap="round"/>
  <path d="M504.11 229.214C518.817 249.554 529.487 323.857 529.487 323.857H491.348C491.348 323.857 507.043 315.471 513.961 307.402C511.098 294.009 481.58 225.478 481.58 225.478" stroke="black" stroke-width="3" stroke-linecap="round" stroke-linejoin="round"/>
  <path d="M472.176 225.478C474.041 248.12 460.027 323.857 460.027 323.857H426.183C426.183 323.857 439.131 314.805 448.609 306.403C453.225 296.025 452.717 224.414 452.717 224.414" stroke="black" stroke-width="3" stroke-linecap="round" stroke-linejoin="round"/>
  <path d="M508.904 103.69C508.904 105.121 505.099 119.496 503.142 142.373C501.184 165.25 521.689 235.124 521.689 235.124H441.668C441.668 235.124 464.948 151.138 467.264 138.54C466.271 115.137 463.513 103.69 463.513 103.69C463.513 103.69 468.392 98.7581 473.914 98.7581H497.475C501.933 98.7581 508.904 103.69 508.904 103.69Z" fill="black" stroke="black" stroke-width="3" stroke-linecap="round" stroke-linejoin="round"/>
  <rect x="470.08" y="137.572" width="26.4709" height="33.9091" transform="rotate(-14.2865 470.08 137.572)" fill="white" stroke="black" stroke-width="3" stroke-linecap="round" stroke-linejoin="round"/>
  <path d="M531.849 146.2C528.177 128.007 515.278 106.659 509.231 103.935C503.184 101.211 504.676 109.593 506.098 116.365C507.52 124.045 515.846 133.571 522.209 145.044C514.786 143.116 507.865 142.468 503.209 142.007C495.548 141.248 488.582 147.176 490.694 150.255C492.806 153.334 500.326 150.255 503.967 150.255C523.27 157.191 534.227 157.975 531.849 146.2Z" fill="white"/>
  <path d="M531.849 146.2L530.379 146.497V146.497L531.849 146.2ZM503.967 150.255V148.755C504.14 148.755 504.311 148.785 504.474 148.844L503.967 150.255ZM503.209 142.007L503.356 140.514H503.356L503.209 142.007ZM522.209 145.044L523.521 144.316C523.812 144.841 523.762 145.488 523.395 145.962C523.027 146.437 522.413 146.646 521.832 146.495L522.209 145.044ZM506.098 116.365L507.566 116.057C507.568 116.068 507.571 116.08 507.573 116.092L506.098 116.365ZM509.847 102.568C511.717 103.41 513.848 105.516 515.975 108.198C518.154 110.945 520.492 114.508 522.74 118.535C527.232 126.58 531.444 136.613 533.32 145.904L530.379 146.497C528.582 137.594 524.508 127.856 520.121 119.998C517.93 116.074 515.68 112.653 513.625 110.062C511.518 107.406 509.769 105.823 508.615 105.303L509.847 102.568ZM533.32 145.904C533.947 149.011 533.776 151.655 532.453 153.616C531.103 155.617 528.824 156.515 526.164 156.739C523.507 156.963 520.224 156.543 516.46 155.664C512.677 154.781 508.313 153.411 503.46 151.667L504.474 148.844C509.272 150.567 513.516 151.896 517.142 152.743C520.788 153.594 523.715 153.934 525.912 153.749C528.107 153.565 529.328 152.884 529.967 151.938C530.633 150.951 530.94 149.277 530.379 146.497L533.32 145.904ZM503.967 151.755C503.22 151.755 502.201 151.918 500.938 152.161C499.731 152.394 498.319 152.695 496.977 152.894C495.638 153.092 494.217 153.214 492.944 153.041C491.663 152.866 490.317 152.358 489.457 151.104L491.931 149.407C492.126 149.692 492.513 149.954 493.349 150.068C494.194 150.183 495.277 150.113 496.537 149.926C497.794 149.74 499.078 149.464 500.371 149.215C501.607 148.977 502.894 148.755 503.967 148.755V151.755ZM489.457 151.104C488.525 149.745 488.708 148.186 489.332 146.904C489.949 145.639 491.059 144.458 492.404 143.479C495.101 141.516 499.119 140.095 503.356 140.514L503.061 143.5C499.638 143.161 496.342 144.324 494.169 145.905C493.079 146.698 492.365 147.529 492.029 148.218C491.702 148.89 491.807 149.226 491.931 149.407L489.457 151.104ZM503.356 140.514C508.004 140.974 515.035 141.63 522.586 143.592L521.832 146.495C514.537 144.601 507.726 143.962 503.061 143.5L503.356 140.514ZM520.897 145.771C517.746 140.089 514.136 134.935 511.037 130.09C507.998 125.339 505.395 120.806 504.623 116.638L507.573 116.092C508.223 119.604 510.494 123.674 513.564 128.474C516.575 133.18 520.309 138.526 523.521 144.316L520.897 145.771ZM504.63 116.673C503.931 113.348 503.143 109.331 503.368 106.471C503.477 105.092 503.852 103.491 505.099 102.569C506.454 101.569 508.173 101.813 509.847 102.568L508.615 105.303C507.266 104.695 506.904 104.966 506.882 104.982C506.752 105.078 506.455 105.485 506.359 106.707C506.174 109.05 506.842 112.61 507.566 116.057L504.63 116.673Z" fill="black"/>
  <path d="M465.998 101.942C458.566 105.921 442.046 135.882 442.046 135.882C442.046 135.882 423.194 140.827 411.996 144.859C397.879 144.859 387.739 147.871 394.102 151.833C400.464 155.795 407.423 153.806 415.512 151.833C422.935 150.022 444.145 148.97 451.811 141.963C459.478 134.957 471.451 107.924 471.451 107.924" stroke="black" stroke-width="3" stroke-linecap="round" stroke-linejoin="round"/>
  <path d="M491.763 89.2929L494.018 97.5997" stroke="black" stroke-width="3" stroke-linecap="round" stroke-linejoin="round"/>
  <path d="M483.794 92.7051C477.519 92.2201 472.783 84.882 473.305 75.9822C473.827 67.0825 481.18 58.1516 489.149 59.1242C497.118 60.0968 497.693 70.6314 496.794 77.5405C495.892 84.3542 490.294 93.2033 483.794 92.7051Z" stroke="black" stroke-width="3" stroke-linecap="round" stroke-linejoin="round"/>
  <path d="M486.81 56.6063C486.81 56.6063 487.718 74.6151 496.874 77.5322C497.468 86.9907 490.883 86.3524 492.915 91.5263C494.926 94.425 501.594 94.5778 503.274 89.6717C511.253 97.3894 518.905 87.9042 510.896 81.33C516.042 78.5982 512.04 68.7514 506.004 70.2761C508.037 67.2267 506.386 60.8006 500.358 60.8006C500.358 56.2045 492.448 53.324 486.81 56.6063Z" fill="black" stroke="black" stroke-width="3" stroke-linecap="round" stroke-linejoin="round"/>
  <path d="M486.81 56.606C487.552 59.5167 481.943 72.7695 473.452 73.7222C471.817 59.2024 486.069 53.6953 486.81 56.606Z" fill="black" stroke="black" stroke-width="3" stroke-linecap="round" stroke-linejoin="round"/>
  <path d="M472.757 79.3354C469.039 80.6872 468.969 85.7251 471.212 87.1078C467.243 92.484 474.571 96.0189 478.638 92.1791L474.977 87.3974L472.757 79.3354Z" fill="black" stroke="black" stroke-width="3" stroke-linecap="round"/>
</svg>
