<svg viewBox="0 0 513 344" fill="none" xmlns="http://www.w3.org/2000/svg">
  <path d="M228.039 333.999H101.652L105.414 254.759" stroke="black" stroke-width="4" stroke-linecap="round" stroke-linejoin="round"/>
  <path d="M374.737 186.838C336.822 195.894 227.537 196.145 176.13 194.384H109.928C121.212 150.613 143.781 114.389 188.919 109.861C234.057 105.333 351.639 138.828 362.701 143.821C378.499 150.953 390.536 158.16 374.737 186.838Z" stroke="black" stroke-width="4" stroke-linecap="round" stroke-linejoin="round"/>
  <path d="M374.74 187.594C391.629 220.383 408.671 285.808 412.355 334C401.915 334 398.026 334 391.629 334" stroke="black" stroke-width="4" stroke-linecap="round" stroke-linejoin="round"/>
  <path d="M367.974 234.382L377.002 333.998H225.789V266.833C192.437 268.091 112.859 263.671 87.3661 244.947C45.2371 214.006 79.7377 167.181 113.697 178.536" stroke="black" stroke-width="4" stroke-linecap="round" stroke-linejoin="round"/>
  <path d="M270.338 72.6558C262.992 83.3484 264.654 106.657 266.403 116.974L326.09 131.747C331.337 113.222 336.977 73.2185 317.563 61.4003C293.295 46.6276 279.521 59.2899 270.338 72.6558Z" fill="#090909" stroke="black" stroke-width="4" stroke-linecap="round" stroke-linejoin="round"/>
  <path d="M195.699 67.6003C213.754 47.2242 213.002 11.7547 187.423 11C154.322 11 159.588 35.1495 145.295 55.5256C131.001 75.9017 115.453 71.3736 106.927 84.203C87.6906 113.149 107.68 121.937 106.927 138.539C106.175 155.142 85.1105 163.443 78.3398 187.593C93.3859 170.99 103.166 175.518 114.45 176.273C139.276 109.107 176.891 103.07 215.259 109.862C212.249 97.0324 177.644 87.9764 195.699 67.6003Z" fill="black" stroke="black" stroke-width="4" stroke-linecap="round" stroke-linejoin="round"/>
  <path d="M200.961 16.2822C211.494 27.3507 234.063 54.3064 234.063 70.6185C234.063 91.7493 223.53 100.051 195.695 95.5226" stroke="black" stroke-width="4" stroke-linecap="round" stroke-linejoin="round"/>
  <path d="M103.156 333.999H52" stroke="black" stroke-width="4" stroke-linecap="round" stroke-linejoin="round"/>
  <path d="M460.498 333.999H409.342" stroke="black" stroke-width="4" stroke-linecap="round" stroke-linejoin="round"/>
</svg>
