<svg viewBox="0 0 293 223" fill="none" xmlns="http://www.w3.org/2000/svg">
  <path d="M69 223C48.9355 223 31.9829 216.215 19 202C6.01712 187.785 0 169.507 0 147C0 106.724 11.9849 72.6534 35 46C58.0151 19.3466 88.0514 4.1461 127 0V20C105.755 24.7384 87.1138 35.8234 70 53C53.4763 70.1767 44.5901 90.4927 44 113C54.0322 110.039 62.5086 108 69 108C86.1138 108 100.378 113.746 111 125C122.212 135.661 127 148.193 127 163C127 179.584 122.212 194.154 111 206C99.7875 217.254 85.5237 223 69 223ZM166 147C166 106.724 176.985 72.6534 200 46C223.015 19.3466 254.051 4.1461 293 0V20C271.755 24.7384 252.114 35.8234 235 53C218.476 70.1767 210.59 90.4927 210 113C220.032 110.039 228.509 108 235 108C252.114 108 265.378 113.746 276 125C287.212 135.661 293 148.193 293 163C293 179.584 287.212 194.154 276 206C264.788 217.254 251.524 223 235 223C214.936 223 197.983 216.215 185 202C172.017 187.785 166 169.507 166 147Z" fill="white"/>
</svg>
