<svg viewBox="0 0 619 370" fill="none" xmlns="http://www.w3.org/2000/svg">
  <path d="M289.432 315.017C289.432 315.017 298.914 266.379 314.214 228.598C323.453 205.69 335.167 185.872 347.183 185.684C360.642 183.736 358.517 227.173 371.255 227.173C386.791 227.173 403.794 163.523 420.545 127.801M420.545 127.801C427.08 113.867 433.576 104.182 439.931 104.182C446.305 104.182 451.088 116.958 451.088 127.801H420.545Z" stroke="black" stroke-width="3" stroke-linecap="round" stroke-linejoin="round"/>
  <path d="M224.332 185.684C238.424 149.985 252.906 104.182 266.735 104.182" stroke="black" stroke-width="3" stroke-linecap="round" stroke-linejoin="round"/>
  <path d="M175.662 185.684C175.105 185.603 174.543 185.603 173.986 185.684C142.118 186.167 116.283 315.017 116.283 315.017" stroke="black" stroke-width="3" stroke-linecap="round" stroke-linejoin="round"/>
  <path d="M173.986 185.683H175.663H224.331H347.134" stroke="black" stroke-width="3" stroke-linecap="round" stroke-linejoin="round"/>
  <path d="M289.431 315.017H116.283" stroke="black" stroke-width="3" stroke-linecap="round" stroke-linejoin="round"/>
  <path d="M439.531 104.182H266.383" stroke="black" stroke-width="3" stroke-linecap="round" stroke-linejoin="round"/>
  <path d="M371.079 227.173H314.73C323.881 204.911 335.362 185.932 347.134 185.744C360.544 183.841 358.478 226.878 371.079 227.173Z" fill="black" stroke="black" stroke-width="3" stroke-linecap="round" stroke-linejoin="round"/>
  <path d="M451.087 127.834H422.461C427.11 116.479 432.942 106.799 438.923 106.703C448.568 106.703 450.168 121.835 451.087 127.834Z" fill="black" stroke="black" stroke-width="3" stroke-linecap="round" stroke-linejoin="round"/>
  <path d="M179.76 218.708H203.625M285.255 218.708L215.465 218.708" stroke="black" stroke-width="3" stroke-linecap="round" stroke-linejoin="round"/>
  <path d="M212.869 259.441C212.869 259.441 239.891 245.762 235.887 280.764C246.268 265.759 263.218 266.099 263.948 280.764C263.948 280.764 274.29 268.41 281.923 269.821" stroke="black" stroke-width="3" stroke-linecap="round" stroke-linejoin="round"/>
  <path d="M349.061 132.826L350.443 133.408C350.72 132.75 350.495 131.988 349.904 131.586L349.061 132.826ZM338.084 158.892L338.084 160.392C338.687 160.392 339.232 160.031 339.466 159.475L338.084 158.892ZM294.448 158.31C294.127 159.074 294.485 159.953 295.248 160.275C296.012 160.596 296.891 160.238 297.213 159.475L294.448 158.31ZM306.808 132.826L306.202 131.454C305.852 131.608 305.574 131.891 305.425 132.244L306.808 132.826ZM307.633 157.392C306.804 157.392 306.133 158.064 306.133 158.892C306.133 159.721 306.804 160.392 307.633 160.392L307.633 157.392ZM332.442 121.523L333.285 120.283C332.857 119.992 332.31 119.942 331.836 120.151L332.442 121.523ZM347.678 132.244L336.701 158.31L339.466 159.475L350.443 133.408L347.678 132.244ZM297.213 159.475L308.19 133.408L305.425 132.244L294.448 158.31L297.213 159.475ZM338.084 157.392L307.633 157.392L307.633 160.392L338.084 160.392L338.084 157.392ZM307.413 134.199L333.047 122.896L331.836 120.151L306.202 131.454L307.413 134.199ZM331.598 122.764L348.217 134.067L349.904 131.586L333.285 120.283L331.598 122.764Z" fill="black"/>
  <path d="M451.088 200.328H372.504" stroke="black" stroke-width="3" stroke-linecap="round" stroke-linejoin="round"/>
  <path d="M375.407 256.808L330.408 211.809" stroke="black" stroke-width="3" stroke-linecap="round" stroke-linejoin="round"/>
  <path d="M215.822 185.684L151.459 111.376" stroke="black" stroke-width="3" stroke-linecap="round" stroke-linejoin="round"/>
  <path d="M330.408 211.809L344.369 225.77" stroke="white" stroke-width="3" stroke-linecap="round" stroke-linejoin="round"/>
  <path d="M403.666 263.082C404.616 266.787 407.571 274.74 411.79 276.906C413.643 271.633 407.942 263.082 403.666 263.082Z" fill="black" stroke="black" stroke-width="3" stroke-linecap="round" stroke-linejoin="round"/>
  <path d="M382.003 291.586C388.013 287.632 388.559 279.614 390.269 272.345C390.269 281.752 391.172 290.066 392.977 293.011C393.357 295.006 393.889 299.738 392.977 302.703C391.837 306.408 385.138 308.118 378.867 308.831C375.447 301.277 376.587 295.149 382.003 291.586Z" fill="black" stroke="black" stroke-width="3" stroke-linecap="round" stroke-linejoin="round"/>
  <path d="M421.867 291.586C415.856 287.632 414.212 282.18 412.502 274.911C412.502 284.318 411.314 291.063 409.509 294.009C409.129 296.004 409.98 299.738 410.892 302.703C412.032 306.408 418.731 308.119 425.002 308.831C428.423 301.277 427.282 295.149 421.867 291.586Z" fill="black" stroke="black" stroke-width="3" stroke-linecap="round" stroke-linejoin="round"/>
  <path d="M403.379 262.797C402.429 268.735 398.619 280.355 390.98 279.329C389.412 270.065 395.968 260.801 403.379 262.797Z" fill="black" stroke="black" stroke-width="3" stroke-linecap="round" stroke-linejoin="round"/>
  <circle cx="402.854" cy="290.395" r="43.1044" stroke="black" stroke-width="3"/>
  <path d="M408.83 293.099C408.082 296.59 408.276 302.947 410.927 305.095C416.011 309.216 427.022 306.743 434.602 318.312" stroke="black" stroke-width="3" stroke-linecap="round" stroke-linejoin="round"/>
  <path d="M393.673 293.099C394.421 296.59 394.226 302.947 391.576 305.095C386.492 309.216 377.498 305.891 369.918 317.46" stroke="black" stroke-width="3" stroke-linecap="round" stroke-linejoin="round"/>
  <path d="M412.631 277.789C412.631 290.133 408.516 296.866 400.628 296.866C394.455 296.866 391.026 290.881 389.997 278.911C388.968 266.941 395.484 261.704 400.628 261.704C405.772 261.704 412.631 265.445 412.631 277.789Z" stroke="black" stroke-width="3" stroke-linecap="round" stroke-linejoin="round"/>
  <circle cx="121.604" cy="79.6044" r="43.1044" stroke="black" stroke-width="3"/>
  <path d="M112.094 83.6934C112.987 87.8564 113.789 96.4502 109.864 97.5207C104.958 98.8588 96.4829 101.089 90.2383 106.442" stroke="black" stroke-width="3" stroke-linecap="round" stroke-linejoin="round"/>
  <path d="M130.381 83.2471C129.489 87.4101 128.686 96.0039 132.611 97.0744C137.518 98.4126 147.58 100.909 153.824 106.261" stroke="black" stroke-width="3" stroke-linecap="round" stroke-linejoin="round"/>
  <path d="M135.875 64.5134C135.875 79.2328 130.522 87.2616 120.263 87.2616C112.234 87.2616 107.774 80.1249 106.436 65.8515C105.098 51.5781 113.572 45.3335 120.263 45.3335C126.954 45.3335 135.875 49.7939 135.875 64.5134Z" stroke="black" stroke-width="3" stroke-linecap="round" stroke-linejoin="round"/>
  <path d="M122.26 122.721C104.703 122.721 93.4938 112.802 90.084 107.842C91.3859 104.68 102.917 97.7988 110.171 97.7988C117.61 104.309 127.096 102.821 134.535 97.7988C143.649 100.402 150.344 103.192 153.32 106.54C149.91 111.5 139.817 122.721 122.26 122.721Z" fill="black" stroke="black" stroke-width="3" stroke-linecap="round" stroke-linejoin="round"/>
  <path d="M107.009 64.507C112.898 63.7631 125.161 59.2995 127.095 47.3961C115.564 41.6304 104.963 54.8357 107.009 64.507Z" fill="black" stroke="black" stroke-width="3" stroke-linecap="round" stroke-linejoin="round"/>
  <path d="M127.466 48.1396C127.342 51.7974 128.731 60.0801 135.278 63.9487C136.468 56.9556 130.566 50.4956 127.466 48.1396Z" fill="black" stroke="black" stroke-width="3" stroke-linecap="round" stroke-linejoin="round"/>
  <path d="M486.325 206.697C487.217 210.86 488.02 219.454 484.095 220.525C479.188 221.863 470.713 224.093 464.469 229.445" stroke="black" stroke-width="3" stroke-linecap="round" stroke-linejoin="round"/>
  <path d="M504.614 206.251C503.722 210.414 502.919 219.008 506.844 220.079C511.751 221.417 520.959 223.201 527.203 228.553" stroke="black" stroke-width="3" stroke-linecap="round" stroke-linejoin="round"/>
  <path d="M510.107 187.517C510.107 202.237 504.754 210.266 494.495 210.266C486.467 210.266 482.006 203.129 480.668 188.855C479.33 174.582 487.805 168.337 494.495 168.337C501.186 168.337 510.107 172.798 510.107 187.517Z" stroke="black" stroke-width="3" stroke-linecap="round" stroke-linejoin="round"/>
  <circle cx="495.692" cy="200.328" r="43.1044" stroke="black" stroke-width="3"/>
  <ellipse cx="488.556" cy="172.352" rx="5.35253" ry="6.69066" fill="black" stroke="black" stroke-width="3" stroke-linecap="round" stroke-linejoin="round"/>
  <ellipse cx="481.864" cy="176.366" rx="4.01439" ry="6.24461" fill="black" stroke="black" stroke-width="3" stroke-linecap="round" stroke-linejoin="round"/>
  <ellipse cx="477.776" cy="184.487" rx="3.12231" ry="4.46044" transform="rotate(-34.6383 477.776 184.487)" fill="black" stroke="black" stroke-width="3" stroke-linecap="round" stroke-linejoin="round"/>
  <ellipse cx="510.496" cy="180.957" rx="3.54056" ry="5.05794" transform="rotate(22.7753 510.496 180.957)" fill="black" stroke="black" stroke-width="3" stroke-linecap="round" stroke-linejoin="round"/>
  <ellipse cx="497.476" cy="169.676" rx="5.35253" ry="6.69066" fill="black" stroke="black" stroke-width="3" stroke-linecap="round" stroke-linejoin="round"/>
  <ellipse cx="505.505" cy="173.244" rx="5.35253" ry="6.69066" fill="black" stroke="black" stroke-width="3" stroke-linecap="round" stroke-linejoin="round"/>
  <path d="M481.464 194.625C479.466 190.689 477.088 188.412 475.676 186.904L481.315 185.966C481.315 185.966 480.545 190.603 481.464 194.625Z" fill="black" stroke="black" stroke-width="3" stroke-linecap="round" stroke-linejoin="round"/>
  <path d="M509.901 192.089C511.136 183.614 512.418 184.897 513.924 181.886L509.901 184.125C509.901 184.125 510.411 187.127 509.901 192.089Z" fill="black" stroke="black" stroke-width="3" stroke-linecap="round" stroke-linejoin="round"/>
</svg>
