<svg viewBox="0 0 620 370" fill="none" xmlns="http://www.w3.org/2000/svg">
  <path d="M358.133 147.864C354.395 150.044 345.742 149.953 341.032 132.151C335.145 109.899 336.265 96.1139 341.253 87.3109C344.975 80.744 350.843 79.2912 353.267 80.9492" stroke="black" stroke-width="3" stroke-linecap="round" stroke-linejoin="round"/>
  <path d="M387.506 108.461C373.909 109.135 359.532 96.6872 354.8 86.6385C353.932 94.209 350.538 110.209 343.559 112.236" stroke="black" stroke-width="3" stroke-linecap="round" stroke-linejoin="round"/>
  <path d="M235.049 153.779H264.9" stroke="black" stroke-width="3" stroke-linecap="round" stroke-linejoin="round"/>
  <path d="M286.684 225.582C294.922 220.188 306.383 212.637 308.89 215.873C309.603 216.867 309.332 219.104 306.426 220.848" stroke="black" stroke-width="3" stroke-linecap="round" stroke-linejoin="round"/>
  <path d="M289.911 230.422C298.115 225.047 309.618 217.483 312.115 220.707C313.524 222.789 310.759 225.131 304.543 228.905" stroke="black" stroke-width="3" stroke-linecap="round" stroke-linejoin="round"/>
  <path d="M324.09 300.293C321.4 309.961 317.734 319.053 321.641 320.5C324.101 321.235 325.283 318.219 327.031 310.986" stroke="black" stroke-width="3" stroke-linecap="round" stroke-linejoin="round"/>
  <path d="M330.116 300.293C327.426 309.961 323.759 319.053 327.667 320.5C330.126 321.235 331.309 318.219 333.057 310.986" stroke="black" stroke-width="3" stroke-linecap="round" stroke-linejoin="round"/>
  <path d="M336.128 300.293C333.438 309.96 329.475 319.881 333.679 320.499C337.884 321.117 340.971 306.604 343.257 300.712" stroke="black" stroke-width="3" stroke-linecap="round" stroke-linejoin="round"/>
  <path d="M292.331 236.07C300.83 230.591 310.283 224.874 312.5 228.161" stroke="black" stroke-width="3" stroke-linecap="round" stroke-linejoin="round"/>
  <path d="M265.708 153.779C274.317 163.01 292.149 160.417 299.649 174.334C303.78 182.001 306.88 189.163 309.274 194.924" stroke="black" stroke-width="3" stroke-linecap="round" stroke-linejoin="round"/>
  <path d="M235.05 153.779C225.677 163.289 197.365 168.776 191.793 183.408C184.828 201.697 167.232 280.709 179.696 298.999" stroke="black" stroke-width="3" stroke-linecap="round" stroke-linejoin="round"/>
  <path d="M179.381 298.595C189.212 313.289 231.889 298.536 275.944 271.351C283.59 266.575 287.231 254.452 289.415 247.472C291.6 240.492 314.538 234.614 312.353 228.002" stroke="black" stroke-width="3" stroke-linecap="round" stroke-linejoin="round"/>
  <path d="M102 291.738L175.752 291.738M517.42 291.738L439.165 291.738M239.084 291.738L323.393 291.738" stroke="black" stroke-width="3" stroke-linecap="round" stroke-linejoin="round"/>
  <path d="M198.745 270.762C227.135 264.343 260.05 243.046 260.05 243.046L265.175 250.01C267.372 241.824 274.734 224.846 283.813 218.981C295.162 211.651 301.733 208.581 303.93 211.146C304.809 212.026 304.165 214.582 301.968 216.415" stroke="black" stroke-width="3" stroke-linecap="round" stroke-linejoin="round"/>
  <path d="M233.46 155.239C251.102 138.845 235.339 115.223 236.154 99.409C236.969 83.5947 247.022 58.6236 270.607 68.5276C294.193 78.4317 294.662 147.665 266.004 133.59L266.004 153.812" stroke="black" stroke-width="3" stroke-linecap="round" stroke-linejoin="round"/>
  <path d="M251.394 113.079C254.687 122.227 246.74 129.181 242.653 127.4C236.039 105.912 218.221 104.569 227.12 94.7569C219.745 91.312 223.353 82.4555 229.318 82.5123C224.018 77.7667 226.247 67.9339 235.648 68.5867C235.019 59.1605 242.479 56.4412 250.531 60.6807C252.511 49.6533 263.223 53.9908 265.557 60.3886C268.453 56.5395 277.149 56.4793 276.354 65.3164C284.453 59.8499 292.943 74.1433 282.062 80.4162C265.761 83.1046 257.455 86.053 260.522 102.011C250.561 100.223 248.1 103.932 251.394 113.079Z" fill="black" stroke="black" stroke-width="3" stroke-linejoin="round"/>
  <path d="M380.674 146.518C381.188 155.306 379.056 167.123 394.713 178.343C406.579 186.846 423.008 187.381 430.636 217.14C436.738 240.947 448.263 283.323 438.793 291.738C419.466 291.738 367.243 291.738 367.243 291.738" stroke="black" stroke-width="3" stroke-linecap="round" stroke-linejoin="round"/>
  <path d="M303.627 209.447C311.256 179.686 334.116 182.451 345.983 173.949C358.747 164.802 358.162 156.875 358.891 147.728" stroke="black" stroke-width="3" stroke-linecap="round" stroke-linejoin="round"/>
  <path d="M343.198 112.383C344.925 127.328 349.907 152.827 371.175 149.024C389.837 145.686 389.87 122.196 387.681 108.509" stroke="black" stroke-width="3" stroke-linecap="round" stroke-linejoin="round"/>
  <path d="M295.156 242.524C293.933 252.634 291.584 277.262 292.405 291.362" stroke="black" stroke-width="3" stroke-linecap="round" stroke-linejoin="round"/>
  <path d="M353.948 80.3431C357.055 76.1077 365.072 72.3387 373.07 73.3586C383.066 74.6335 393.702 90.6094 395.504 100.804C400.26 127.721 394.642 144.74 381.136 145.834" stroke="black" stroke-width="3" stroke-linecap="round" stroke-linejoin="round"/>
  <path d="M406.131 222.354C408.689 245.478 416.575 269.566 416.575 269.566C402.806 269.444 369.427 270.667 355.537 273.236C342.231 275.698 323.766 288.2 318.108 300.902C314.938 310.05 312.06 321.483 316.091 320.747M343.744 300.902C348.505 300.902 355.537 300.168 358.978 291.726" stroke="black" stroke-width="3" stroke-linecap="round" stroke-linejoin="round"/>
  <path d="M437.552 224.775C437.552 224.775 415.365 230.019 408.104 232.843C407.701 239.7 415.365 268.341 415.365 268.341C403.802 268.341 376.237 268.986 358.488 271.568C340.738 274.15 327.696 285.552 323.393 290.931H312.501L316.132 244.541L296.366 241.717L312.501 231.229C312.905 230.019 313.147 227.195 310.888 225.582C314.518 222.354 312.501 219.934 309.274 218.724C309.92 214.206 306.316 213.883 304.433 214.287C304.568 212.942 304.595 209.849 303.627 208.236C308.467 187.582 331.461 178.654 342.352 176.771C343.966 180.94 350.823 189.277 365.345 189.277C379.867 189.277 392.103 183.091 396.406 179.999C398.558 181.612 405.119 185.727 414.155 189.277C423.191 192.826 433.518 214.421 437.552 224.775Z" fill="black" stroke="black" stroke-width="3" stroke-linecap="round" stroke-linejoin="round"/>
</svg>
