<svg viewBox="0 0 303 192" fill="none" xmlns="http://www.w3.org/2000/svg">
  <path d="M74.0254 38.3711C73.6923 41.3036 74.4685 42.5187 75.6347 44.1493" stroke="#1A1B1C" stroke-width="1.8" stroke-linecap="round" stroke-linejoin="round"/>
  <path d="M53.0977 179.279L123.188 179.279" stroke="#1A1B1C" stroke-width="1.8" stroke-linecap="round" stroke-linejoin="round"/>
  <path d="M163.211 179.363L208.851 179.363" stroke="#1A1B1C" stroke-width="1.8" stroke-linecap="round" stroke-linejoin="round"/>
  <path d="M65.0382 44.1486C66.4455 38.8103 65.0293 34.0421 64.9199 33.5332" stroke="#1A1B1C" stroke-width="1.8" stroke-linecap="round" stroke-linejoin="round"/>
  <path d="M74.9817 21.706C74.7638 21.2592 74.9494 20.7204 75.3962 20.5026C75.843 20.2847 76.3818 20.4703 76.5996 20.9171L74.9817 21.706ZM73.9829 39.2688C73.4864 39.2459 73.1024 38.8249 73.1252 38.3284C73.1481 37.8318 73.5691 37.4478 74.0657 37.4707L73.9829 39.2688ZM76.5996 20.9171C77.6374 23.0456 79.5052 27.5246 79.9527 31.4703C80.1747 33.4274 80.0688 35.4235 79.1665 36.9322C78.207 38.5365 76.4813 39.3838 73.9829 39.2688L74.0657 37.4707C76.0778 37.5633 77.0841 36.9072 77.6217 36.0084C78.2163 35.014 78.3722 33.5073 78.1642 31.6731C77.7517 28.0362 75.9922 23.7785 74.9817 21.706L76.5996 20.9171Z" fill="#1A1B1C"/>
  <path d="M65.3654 34.8791C66.7494 35.7697 68.3592 34.3875 68.1387 32.422C65.0044 31.6439 65.4105 27.9548 67.1801 27.1687C68.9498 26.3827 69.6429 27.627 72.0767 27.0236C74.5104 26.4203 76.1783 22.1442 76.1783 22.1442C75.0916 18.0694 68.2506 15.3729 63.646 19.8213C59.0415 24.2696 61.6663 29.9564 65.3654 34.8791Z" fill="#1A1B1C"/>
  <path d="M65.3654 34.8791L64.9244 35.5644C64.8431 35.5122 64.7719 35.4459 64.7138 35.3687L65.3654 34.8791ZM68.1387 32.422L68.3351 31.6311C68.6659 31.7132 68.9106 31.9925 68.9486 32.3312L68.1387 32.422ZM76.1783 22.1442L76.9657 21.9342C77.0104 22.1016 77.0005 22.2789 76.9376 22.4403L76.1783 22.1442ZM65.8064 34.1937C66.161 34.4219 66.5127 34.3748 66.8167 34.1085C67.1428 33.8229 67.4125 33.2596 67.3288 32.5129L68.9486 32.3312C69.0853 33.5499 68.6604 34.6604 67.8907 35.3347C67.0989 36.0282 65.9538 36.2269 64.9244 35.5644L65.8064 34.1937ZM67.9423 33.213C66.0059 32.7323 65.0964 31.2963 65.007 29.8486C64.9234 28.4962 65.5669 26.9935 66.8493 26.4239L67.511 27.9136C67.0237 28.13 66.5793 28.8649 66.6339 29.7481C66.6826 30.536 67.1372 31.3337 68.3351 31.6311L67.9423 33.213ZM66.8493 26.4239C67.9766 25.9232 68.8064 26.0844 69.5366 26.228C70.2058 26.3596 70.8426 26.4899 71.8806 26.2326L72.2728 27.8147C70.877 28.1607 69.9504 27.9706 69.2221 27.8273C68.5549 27.6961 68.1533 27.6282 67.511 27.9136L66.8493 26.4239ZM71.8806 26.2326C72.2969 26.1294 72.7342 25.8529 73.1756 25.4229C73.6125 24.9973 74.0102 24.4634 74.3506 23.9231C74.6891 23.386 74.9583 22.863 75.1431 22.4728C75.2352 22.2785 75.3055 22.1189 75.3522 22.0094C75.3755 21.9547 75.3929 21.9126 75.4041 21.8851C75.4097 21.8713 75.4138 21.8611 75.4163 21.8549C75.4175 21.8518 75.4184 21.8496 75.4188 21.8484C75.419 21.8479 75.4192 21.8475 75.4192 21.8475C75.4192 21.8474 75.4192 21.8475 75.4192 21.8476C75.4191 21.8476 75.4191 21.8477 75.4191 21.8477C75.419 21.8479 75.419 21.848 76.1783 22.1442C76.9376 22.4403 76.9375 22.4405 76.9374 22.4407C76.9374 22.4408 76.9373 22.441 76.9372 22.4412C76.9371 22.4415 76.9369 22.442 76.9367 22.4424C76.9364 22.4434 76.9359 22.4446 76.9353 22.4461C76.9341 22.4491 76.9325 22.4531 76.9306 22.4581C76.9266 22.468 76.921 22.482 76.9138 22.4997C76.8994 22.535 76.8786 22.5854 76.8515 22.6488C76.7975 22.7755 76.7185 22.9547 76.6162 23.1707C76.4122 23.6012 76.1123 24.1849 75.7296 24.7922C75.3489 25.3964 74.8733 26.0446 74.313 26.5905C73.7572 27.1319 73.0734 27.6162 72.2728 27.8147L71.8806 26.2326ZM75.3908 22.3542C74.9428 20.6743 73.2463 19.1505 71.0269 18.5755C68.8493 18.0113 66.2887 18.4014 64.2123 20.4074L63.0798 19.2351C65.6079 16.7927 68.7701 16.3069 71.4358 16.9976C74.0598 17.6774 76.3271 19.5393 76.9657 21.9342L75.3908 22.3542ZM64.2123 20.4074C62.1348 22.4144 61.6969 24.6529 62.1895 27.0052C62.6951 29.4196 64.1878 31.9553 66.0169 34.3895L64.7138 35.3687C62.8438 32.8801 61.1746 30.1111 60.5941 27.3393C60.0007 24.5055 60.5526 21.6765 63.0798 19.2351L64.2123 20.4074Z" fill="#1A1B1C"/>
  <path d="M236.803 15.82L260.023 60.3016L187.299 142.96L117.058 59.83L138.47 15.82L236.803 15.82Z" stroke="#1A1B1C" stroke-width="1.8" stroke-linecap="round" stroke-linejoin="round"/>
  <path d="M247.973 59.8301L128.439 59.8301" stroke="#1A1B1C" stroke-width="1.8" stroke-linecap="round" stroke-linejoin="round"/>
  <path d="M109.321 172.3L85.8333 85.6387H60.4205C60.0583 86.0914 59.2252 88.4097 58.7905 94.0603C57.9212 105.144 63.3303 152.197 65.8658 172.3L53.3691 179.092H75.6339L74.2755 172.3H78.9058L73.7322 103.84H75.6339L95.2058 172.3H100.096V179.092H123.459L109.321 172.3Z" fill="#1A1B1C" stroke="#1A1B1C" stroke-width="2.17333" stroke-linecap="round" stroke-linejoin="round"/>
  <path d="M88.5028 90.5285H57.2732V60.4502H56.6173L49.1816 78.3799C49.1816 78.3799 51.9285 94.0601 53.2868 97.5918C54.6451 101.123 57.3617 107.644 54.1018 109.002C50.8419 110.36 47.4811 99.7651 47.4811 99.7651C44.8651 92.7018 42.8628 83.4651 42.3194 81.2918C40.7643 75.0717 45.2071 64.5249 48.7388 56.6465C51.5641 50.3439 57.4322 46.0517 64.7672 44.6933C67.2122 50.3983 75.9056 48.7683 75.9056 44.4217C83.784 43.0633 95.5715 53.2202 105.517 53.6581C111.222 52.5713 118.495 44.4216 121.211 37.9014C122.26 35.3849 124.464 33.6852 126.541 32.6966C128.522 31.7538 129.805 33.648 128.84 35.6182L124.262 44.9648C120.459 52.3 115.08 60.0153 107.69 61.5366C100.933 62.9279 91.2477 58.5555 84.5989 56.1032L84.0556 56.6465L88.5028 90.5285Z" fill="#F5F3ED"/>
  <path d="M57.2732 90.5285H56.3732C56.3732 91.0255 56.7761 91.4285 57.2732 91.4285V90.5285ZM88.5028 90.5285V91.4285C88.7619 91.4285 89.0084 91.3168 89.1793 91.122C89.3502 90.9272 89.4288 90.6683 89.3951 90.4114L88.5028 90.5285ZM84.0556 56.6465L83.4192 56.0101C83.2215 56.2079 83.1269 56.4864 83.1633 56.7637L84.0556 56.6465ZM107.69 61.5366L107.872 62.4181L107.69 61.5366ZM124.262 44.9648L125.061 45.3791C125.064 45.373 125.067 45.3668 125.07 45.3606L124.262 44.9648ZM128.84 35.6182L129.648 36.014V36.014L128.84 35.6182ZM126.541 32.6966L126.928 33.5092V33.5092L126.541 32.6966ZM121.211 37.9014L122.042 38.2476V38.2476L121.211 37.9014ZM105.517 53.6581L105.478 54.5572C105.547 54.5603 105.617 54.5553 105.686 54.5422L105.517 53.6581ZM64.7672 44.6933L65.5944 44.3388C65.4286 43.952 65.017 43.7318 64.6033 43.8084L64.7672 44.6933ZM48.7388 56.6465L49.56 57.0147L48.7388 56.6465ZM42.3194 81.2918L41.4463 81.5101L42.3194 81.2918ZM47.4811 99.7651L48.339 99.493C48.3346 99.4794 48.33 99.4659 48.3251 99.4526L47.4811 99.7651ZM53.2868 97.5918L54.1268 97.2687L53.2868 97.5918ZM49.1816 78.3799L48.3503 78.0351C48.2848 78.1932 48.2656 78.3666 48.2951 78.5352L49.1816 78.3799ZM57.2732 60.4502H58.1732C58.1732 59.9531 57.7702 59.5502 57.2732 59.5502V60.4502ZM54.1018 109.002L54.4479 109.833H54.4479L54.1018 109.002ZM56.6173 60.4502V59.5502C56.2534 59.5502 55.9253 59.7693 55.7859 60.1054L56.6173 60.4502ZM75.9056 44.4217L75.7527 43.5348C75.321 43.6092 75.0056 43.9836 75.0056 44.4217H75.9056ZM84.5989 56.1032L84.9104 55.2588C84.5809 55.1373 84.2109 55.2185 83.9626 55.4668L84.5989 56.1032ZM57.2732 91.4285H88.5028V89.6285H57.2732V91.4285ZM89.3951 90.4114L84.948 56.5294L83.1633 56.7637L87.6104 90.6456L89.3951 90.4114ZM107.872 62.4181C111.823 61.6047 115.173 59.1496 117.989 56.0344C120.806 52.9169 123.143 49.078 125.061 45.3791L123.463 44.5505C121.578 48.1868 119.323 51.8731 116.653 54.8274C113.981 57.784 110.947 59.9472 107.509 60.6551L107.872 62.4181ZM125.07 45.3606L129.648 36.014L128.032 35.2223L123.454 44.5689L125.07 45.3606ZM126.154 31.8839C123.963 32.9269 121.545 34.7601 120.381 37.5553L122.042 38.2476C122.975 36.0097 124.965 34.4435 126.928 33.5092L126.154 31.8839ZM120.381 37.5553C119.073 40.6947 116.644 44.2707 113.836 47.1937C111.003 50.1425 107.921 52.284 105.349 52.774L105.686 54.5422C108.818 53.9454 112.225 51.4686 115.134 48.4408C118.067 45.3872 120.634 41.6283 122.042 38.2476L120.381 37.5553ZM64.6033 43.8084C57.0158 45.2135 50.8788 49.6723 47.9175 56.2784L49.56 57.0147C52.2493 51.0154 57.8485 46.8899 64.931 45.5783L64.6033 43.8084ZM47.9175 56.2784C46.1512 60.2186 44.1371 64.869 42.7616 69.3256C41.3984 73.7423 40.6043 78.142 41.4463 81.5101L43.1926 81.0735C42.4795 78.2215 43.1292 74.2378 44.4815 69.8564C45.8215 65.515 47.7947 60.9528 49.56 57.0147L47.9175 56.2784ZM41.4463 81.5101C41.9782 83.6375 43.9985 92.9533 46.6371 100.078L48.3251 99.4526C45.7317 92.4504 43.7474 83.2928 43.1926 81.0735L41.4463 81.5101ZM54.1268 97.2687C53.8139 96.4552 53.4002 94.8746 52.9498 92.8999C52.5042 90.9459 52.0355 88.6648 51.608 86.488C51.1807 84.3123 50.7957 82.246 50.5174 80.7233C50.3783 79.9621 50.2659 79.337 50.1883 78.9024C50.1495 78.6851 50.1195 78.5154 50.0991 78.4002C50.0889 78.3426 50.0812 78.2986 50.076 78.269C50.0734 78.2542 50.0714 78.2431 50.0701 78.2356C50.0694 78.2319 50.0689 78.2291 50.0686 78.2273C50.0685 78.2264 50.0683 78.2257 50.0683 78.2252C50.0682 78.225 50.0682 78.2248 50.0682 78.2247C50.0682 78.2246 50.0681 78.2246 49.1816 78.3799C48.2951 78.5352 48.2952 78.5353 48.2952 78.5354C48.2952 78.5355 48.2952 78.5357 48.2953 78.536C48.2954 78.5365 48.2955 78.5372 48.2957 78.5382C48.296 78.5401 48.2965 78.543 48.2972 78.5469C48.2985 78.5545 48.3005 78.5659 48.3032 78.5809C48.3085 78.6109 48.3163 78.6554 48.3266 78.7135C48.3471 78.8297 48.3774 79.0003 48.4163 79.2187C48.4943 79.6554 48.6071 80.2829 48.7467 81.0469C49.0259 82.5746 49.4125 84.6491 49.8417 86.8349C50.2708 89.0197 50.7434 91.3208 51.1949 93.3001C51.6415 95.2587 52.0805 96.9626 52.4468 97.9149L54.1268 97.2687ZM56.3732 60.4502V90.5285H58.1732V60.4502H56.3732ZM47.4811 99.7651C46.6232 100.037 46.6233 100.037 46.6233 100.038C46.6234 100.038 46.6235 100.038 46.6235 100.038C46.6237 100.039 46.6239 100.039 46.6242 100.04C46.6247 100.042 46.6254 100.044 46.6263 100.047C46.6282 100.053 46.6309 100.061 46.6344 100.072C46.6413 100.094 46.6514 100.125 46.6647 100.165C46.6911 100.245 46.73 100.362 46.7804 100.509C46.8811 100.803 47.0282 101.221 47.2149 101.717C47.5872 102.705 48.1218 104.019 48.7651 105.297C49.4008 106.56 50.1751 107.855 51.0441 108.756C51.8803 109.624 53.09 110.398 54.4479 109.833L53.7557 108.171C53.4836 108.284 53.0508 108.244 52.34 107.507C51.662 106.804 50.9849 105.704 50.3729 104.488C49.7685 103.287 49.2591 102.038 48.8994 101.082C48.7201 100.606 48.5792 100.206 48.4834 99.9263C48.4355 99.7864 48.3989 99.6767 48.3746 99.6026C48.3624 99.5656 48.3533 99.5375 48.3473 99.519C48.3443 99.5097 48.3421 99.5029 48.3407 99.4985C48.34 99.4964 48.3395 99.4948 48.3392 99.4939C48.3391 99.4934 48.339 99.4931 48.3389 99.493C48.3389 99.4929 48.3389 99.4929 48.3389 99.4929C48.3389 99.4929 48.339 99.493 47.4811 99.7651ZM54.4479 109.833C55.5977 109.354 56.1923 108.404 56.421 107.33C56.6409 106.297 56.5388 105.104 56.3091 103.938C55.8489 101.601 54.7929 99.0006 54.1268 97.2687L52.4468 97.9149C53.139 99.7147 54.1204 102.14 54.5431 104.286C54.7548 105.361 54.8056 106.273 54.6604 106.955C54.5241 107.596 54.2358 107.971 53.7556 108.171L54.4479 109.833ZM50.013 78.7247L57.4486 60.7949L55.7859 60.1054L48.3503 78.0351L50.013 78.7247ZM56.6173 61.3502H57.2732V59.5502H56.6173V61.3502ZM75.0056 44.4217C75.0056 45.1772 74.6362 45.852 73.9507 46.3943C73.2552 46.9444 72.2643 47.3258 71.1674 47.431C68.9696 47.6417 66.6237 46.7404 65.5944 44.3388L63.9399 45.0479C65.3557 48.3512 68.5789 49.4874 71.3392 49.2228C72.7212 49.0902 74.0565 48.6057 75.0674 47.806C76.0883 46.9984 76.8056 45.8395 76.8056 44.4217H75.0056ZM105.557 52.759C100.805 52.5498 95.5584 50.0062 90.3179 47.5513C87.7364 46.342 85.1648 45.162 82.7351 44.3741C80.3119 43.5883 77.9334 43.1588 75.7527 43.5348L76.0586 45.3086C77.817 45.0054 79.8664 45.3361 82.1799 46.0863C84.4869 46.8345 86.961 47.9665 89.5544 49.1813C94.6637 51.5748 100.284 54.3286 105.478 54.5572L105.557 52.759ZM84.692 57.2829L85.2353 56.7396L83.9626 55.4668L83.4192 56.0101L84.692 57.2829ZM84.2875 56.9476C87.5613 58.1551 91.7135 59.8872 95.8459 61.1235C99.9692 62.3571 104.262 63.1613 107.872 62.4181L107.509 60.6551C104.361 61.3033 100.433 60.6169 96.3618 59.399C92.3 58.1838 88.2854 56.5036 84.9104 55.2588L84.2875 56.9476ZM129.648 36.014C130.242 34.8013 130.212 33.4613 129.517 32.5279C129.167 32.0561 128.659 31.7164 128.046 31.5953C127.438 31.4752 126.789 31.5818 126.154 31.8839L126.928 33.5092C127.284 33.34 127.538 33.3298 127.697 33.3612C127.852 33.3917 127.976 33.4719 128.073 33.6021C128.274 33.8727 128.403 34.4648 128.032 35.2223L129.648 36.014Z" fill="#1A1B1C"/>
  <path d="M46.1465 64.5L53.3572 67.5128" stroke="#1A1B1C" stroke-width="1.8" stroke-linecap="round" stroke-linejoin="round"/>
  <path d="M91.6621 57.9512L94.6961 51.2126" stroke="#1A1B1C" stroke-width="1.8" stroke-linecap="round" stroke-linejoin="round"/>
  <path d="M167.588 21L156.148 59.5581L182.157 117.966" stroke="#1A1B1C" stroke-width="1.8" stroke-linecap="round" stroke-linejoin="round"/>
  <path d="M210.682 28.3164L221.213 59.5581L189.589 132" stroke="#1A1B1C" stroke-width="1.8" stroke-linecap="round" stroke-linejoin="round"/>
</svg>
