<svg viewBox="0 0 326 192" fill="none" xmlns="http://www.w3.org/2000/svg">
  <path d="M100.438 38.3711C100.104 41.3036 100.881 42.5187 102.047 44.1493" stroke="#1A1B1C" stroke-width="1.8" stroke-linecap="round" stroke-linejoin="round"/>
  <path d="M79.5098 179.279L149.6 179.279" stroke="#1A1B1C" stroke-width="1.8" stroke-linecap="round" stroke-linejoin="round"/>
  <path d="M189.623 179.363L235.263 179.363" stroke="#1A1B1C" stroke-width="1.8" stroke-linecap="round" stroke-linejoin="round"/>
  <path d="M91.4504 44.1486C92.8576 38.8103 91.4414 34.0421 91.332 33.5332" stroke="#1A1B1C" stroke-width="1.8" stroke-linecap="round" stroke-linejoin="round"/>
  <path d="M101.394 21.706C101.176 21.2592 101.362 20.7204 101.808 20.5026C102.255 20.2847 102.794 20.4703 103.012 20.9171L101.394 21.706ZM100.395 39.2688C99.8985 39.2459 99.5145 38.8249 99.5374 38.3284C99.5602 37.8318 99.9813 37.4478 100.478 37.4707L100.395 39.2688ZM103.012 20.9171C104.05 23.0456 105.917 27.5246 106.365 31.4703C106.587 33.4274 106.481 35.4235 105.579 36.9322C104.619 38.5365 102.893 39.3838 100.395 39.2688L100.478 37.4707C102.49 37.5633 103.496 36.9072 104.034 36.0084C104.628 35.014 104.784 33.5073 104.576 31.6731C104.164 28.0362 102.404 23.7785 101.394 21.706L103.012 20.9171Z" fill="#1A1B1C"/>
  <path d="M91.7775 34.8791C93.1615 35.7697 94.7713 34.3875 94.5508 32.422C91.4165 31.6439 91.8226 27.9548 93.5922 27.1687C95.3619 26.3827 96.0551 27.627 98.4888 27.0236C100.923 26.4203 102.59 22.1442 102.59 22.1442C101.504 18.0694 94.6627 15.3729 90.0581 19.8213C85.4536 24.2696 88.0784 29.9564 91.7775 34.8791Z" fill="#1A1B1C"/>
  <path d="M91.7775 34.8791L91.3365 35.5644C91.2552 35.5122 91.184 35.4459 91.1259 35.3687L91.7775 34.8791ZM94.5508 32.422L94.7472 31.6311C95.078 31.7132 95.3227 31.9925 95.3607 32.3312L94.5508 32.422ZM102.59 22.1442L103.378 21.9342C103.423 22.1016 103.413 22.2789 103.35 22.4403L102.59 22.1442ZM92.2185 34.1937C92.5731 34.4219 92.9248 34.3748 93.2288 34.1085C93.5549 33.8229 93.8247 33.2596 93.7409 32.5129L95.3607 32.3312C95.4974 33.5499 95.0725 34.6604 94.3028 35.3347C93.511 36.0282 92.3659 36.2269 91.3365 35.5644L92.2185 34.1937ZM94.3544 33.213C92.418 32.7323 91.5085 31.2963 91.4191 29.8486C91.3355 28.4962 91.979 26.9935 93.2614 26.4239L93.9231 27.9136C93.4358 28.13 92.9914 28.8649 93.046 29.7481C93.0947 30.536 93.5493 31.3337 94.7472 31.6311L94.3544 33.213ZM93.2614 26.4239C94.3887 25.9232 95.2185 26.0844 95.9487 26.228C96.6179 26.3596 97.2547 26.4899 98.2927 26.2326L98.6849 27.8147C97.2892 28.1607 96.3625 27.9706 95.6342 27.8273C94.967 27.6961 94.5654 27.6282 93.9231 27.9136L93.2614 26.4239ZM98.2927 26.2326C98.709 26.1294 99.1463 25.8529 99.5877 25.4229C100.025 24.9973 100.422 24.4634 100.763 23.9231C101.101 23.386 101.37 22.863 101.555 22.4728C101.647 22.2785 101.718 22.1189 101.764 22.0094C101.788 21.9547 101.805 21.9126 101.816 21.8851C101.822 21.8713 101.826 21.8611 101.828 21.8549C101.83 21.8518 101.83 21.8496 101.831 21.8484C101.831 21.8479 101.831 21.8475 101.831 21.8475C101.831 21.8474 101.831 21.8475 101.831 21.8476C101.831 21.8476 101.831 21.8477 101.831 21.8477C101.831 21.8479 101.831 21.848 102.59 22.1442C103.35 22.4403 103.35 22.4405 103.35 22.4407C103.349 22.4408 103.349 22.441 103.349 22.4412C103.349 22.4415 103.349 22.442 103.349 22.4424C103.348 22.4434 103.348 22.4446 103.347 22.4461C103.346 22.4491 103.345 22.4531 103.343 22.4581C103.339 22.468 103.333 22.482 103.326 22.4997C103.312 22.535 103.291 22.5854 103.264 22.6488C103.21 22.7755 103.131 22.9547 103.028 23.1707C102.824 23.6012 102.524 24.1849 102.142 24.7922C101.761 25.3964 101.285 26.0446 100.725 26.5905C100.169 27.1319 99.4855 27.6162 98.6849 27.8147L98.2927 26.2326ZM101.803 22.3542C101.355 20.6743 99.6584 19.1505 97.439 18.5755C95.2614 18.0113 92.7008 18.4014 90.6244 20.4074L89.4919 19.2351C92.02 16.7927 95.1822 16.3069 97.8479 16.9976C100.472 17.6774 102.739 19.5393 103.378 21.9342L101.803 22.3542ZM90.6244 20.4074C88.5469 22.4144 88.109 24.6529 88.6016 27.0052C89.1072 29.4196 90.6 31.9553 92.429 34.3895L91.1259 35.3687C89.2559 32.8801 87.5867 30.1111 87.0062 27.3393C86.4128 24.5055 86.9648 21.6765 89.4919 19.2351L90.6244 20.4074Z" fill="#1A1B1C"/>
  <path d="M263.215 15.82L286.435 60.3016L213.711 142.96L143.47 59.83L164.882 15.82L263.215 15.82Z" stroke="#1A1B1C" stroke-width="1.8" stroke-linecap="round" stroke-linejoin="round"/>
  <path d="M274.385 59.8301L154.851 59.8301" stroke="#1A1B1C" stroke-width="1.8" stroke-linecap="round" stroke-linejoin="round"/>
  <path d="M135.733 172.3L112.245 85.6387H86.8326C86.4704 86.0914 85.6373 88.4097 85.2026 94.0603C84.3333 105.144 89.7424 152.197 92.2779 172.3L79.7812 179.092H102.046L100.688 172.3H105.318L100.144 103.84H102.046L121.618 172.3H126.508V179.092H149.871L135.733 172.3Z" fill="#1A1B1C" stroke="#1A1B1C" stroke-width="2.17333" stroke-linecap="round" stroke-linejoin="round"/>
  <path d="M114.915 90.5285H83.6853V60.4502H83.0294L75.5938 78.3799C75.5938 78.3799 78.3406 94.0601 79.6989 97.5918C81.0572 101.123 83.7738 107.644 80.5139 109.002C77.254 110.36 73.8932 99.7651 73.8932 99.7651C71.2772 92.7018 69.2749 83.4651 68.7316 81.2918C67.1764 75.0717 71.6192 64.5249 75.1509 56.6465C77.9762 50.3439 83.8443 46.0517 91.1793 44.6933C93.6243 50.3983 102.318 48.7683 102.318 44.4217C110.196 43.0633 121.984 53.2202 131.929 53.6581C137.634 52.5713 144.907 44.4216 147.623 37.9014C148.672 35.3849 150.876 33.6852 152.953 32.6966C154.934 31.7538 156.217 33.648 155.252 35.6182L150.674 44.9648C146.871 52.3 141.492 60.0153 134.103 61.5366C127.345 62.9279 117.66 58.5555 111.011 56.1032L110.468 56.6465L114.915 90.5285Z" fill="#F5F3ED"/>
  <path d="M83.6853 90.5285H82.7853C82.7853 91.0255 83.1882 91.4285 83.6853 91.4285V90.5285ZM114.915 90.5285V91.4285C115.174 91.4285 115.421 91.3168 115.591 91.122C115.762 90.9272 115.841 90.6683 115.807 90.4114L114.915 90.5285ZM110.468 56.6465L109.831 56.0101C109.634 56.2079 109.539 56.4864 109.575 56.7637L110.468 56.6465ZM134.103 61.5366L134.284 62.4181L134.103 61.5366ZM150.674 44.9648L151.473 45.3791C151.476 45.373 151.479 45.3668 151.482 45.3606L150.674 44.9648ZM155.252 35.6182L156.06 36.014V36.014L155.252 35.6182ZM152.953 32.6966L153.34 33.5092V33.5092L152.953 32.6966ZM147.623 37.9014L148.454 38.2476V38.2476L147.623 37.9014ZM131.929 53.6581L131.89 54.5572C131.959 54.5603 132.029 54.5553 132.098 54.5422L131.929 53.6581ZM91.1793 44.6933L92.0065 44.3388C91.8407 43.952 91.4291 43.7318 91.0154 43.8084L91.1793 44.6933ZM75.1509 56.6465L75.9721 57.0147L75.1509 56.6465ZM68.7316 81.2918L67.8584 81.5101L68.7316 81.2918ZM73.8932 99.7651L74.7511 99.493C74.7468 99.4794 74.7421 99.4659 74.7372 99.4526L73.8932 99.7651ZM79.6989 97.5918L80.5389 97.2687L79.6989 97.5918ZM75.5938 78.3799L74.7624 78.0351C74.6969 78.1932 74.6777 78.3666 74.7073 78.5352L75.5938 78.3799ZM83.6853 60.4502H84.5853C84.5853 59.9531 84.1823 59.5502 83.6853 59.5502V60.4502ZM80.5139 109.002L80.86 109.833H80.86L80.5139 109.002ZM83.0294 60.4502V59.5502C82.6655 59.5502 82.3374 59.7693 82.198 60.1054L83.0294 60.4502ZM102.318 44.4217L102.165 43.5348C101.733 43.6092 101.418 43.9836 101.418 44.4217H102.318ZM111.011 56.1032L111.322 55.2588C110.993 55.1373 110.623 55.2185 110.375 55.4668L111.011 56.1032ZM83.6853 91.4285H114.915V89.6285H83.6853V91.4285ZM115.807 90.4114L111.36 56.5294L109.575 56.7637L114.023 90.6456L115.807 90.4114ZM134.284 62.4181C138.235 61.6047 141.585 59.1496 144.401 56.0344C147.218 52.9169 149.555 49.078 151.473 45.3791L149.875 44.5505C147.99 48.1868 145.736 51.8731 143.065 54.8274C140.393 57.784 137.36 59.9472 133.921 60.6551L134.284 62.4181ZM151.482 45.3606L156.06 36.014L154.444 35.2223L149.866 44.5689L151.482 45.3606ZM152.567 31.8839C150.375 32.9269 147.957 34.7601 146.793 37.5553L148.454 38.2476C149.387 36.0097 151.377 34.4435 153.34 33.5092L152.567 31.8839ZM146.793 37.5553C145.485 40.6947 143.056 44.2707 140.248 47.1937C137.415 50.1425 134.333 52.284 131.761 52.774L132.098 54.5422C135.23 53.9454 138.637 51.4686 141.546 48.4408C144.48 45.3872 147.046 41.6283 148.454 38.2476L146.793 37.5553ZM91.0154 43.8084C83.4279 45.2135 77.291 49.6723 74.3296 56.2784L75.9721 57.0147C78.6615 51.0154 84.2607 46.8899 91.3431 45.5783L91.0154 43.8084ZM74.3296 56.2784C72.5633 60.2186 70.5492 64.869 69.1737 69.3256C67.8105 73.7423 67.0164 78.142 67.8584 81.5101L69.6047 81.0735C68.8916 78.2215 69.5413 74.2378 70.8936 69.8564C72.2336 65.515 74.2068 60.9528 75.9721 57.0147L74.3296 56.2784ZM67.8584 81.5101C68.3903 83.6375 70.4106 92.9533 73.0492 100.078L74.7372 99.4526C72.1438 92.4504 70.1595 83.2928 69.6047 81.0735L67.8584 81.5101ZM80.5389 97.2687C80.226 96.4552 79.8123 94.8746 79.3619 92.8999C78.9163 90.9459 78.4476 88.6648 78.0201 86.488C77.5928 84.3123 77.2078 82.246 76.9295 80.7233C76.7904 79.9621 76.678 79.337 76.6004 78.9024C76.5616 78.6851 76.5316 78.5154 76.5112 78.4002C76.501 78.3426 76.4933 78.2986 76.4881 78.269C76.4855 78.2542 76.4835 78.2431 76.4822 78.2356C76.4815 78.2319 76.4811 78.2291 76.4807 78.2273C76.4806 78.2264 76.4804 78.2257 76.4804 78.2252C76.4803 78.225 76.4803 78.2248 76.4803 78.2247C76.4803 78.2246 76.4803 78.2246 75.5938 78.3799C74.7073 78.5352 74.7073 78.5353 74.7073 78.5354C74.7073 78.5355 74.7073 78.5357 74.7074 78.536C74.7075 78.5365 74.7076 78.5372 74.7078 78.5382C74.7081 78.5401 74.7086 78.543 74.7093 78.5469C74.7107 78.5545 74.7127 78.5659 74.7153 78.5809C74.7206 78.6109 74.7284 78.6554 74.7387 78.7135C74.7592 78.8297 74.7895 79.0003 74.8284 79.2187C74.9064 79.6554 75.0192 80.2829 75.1588 81.0469C75.438 82.5746 75.8246 84.6491 76.2538 86.8349C76.6829 89.0197 77.1555 91.3208 77.607 93.3001C78.0537 95.2587 78.4926 96.9626 78.8589 97.9149L80.5389 97.2687ZM82.7853 60.4502V90.5285H84.5853V60.4502H82.7853ZM73.8932 99.7651C73.0353 100.037 73.0354 100.037 73.0354 100.038C73.0355 100.038 73.0356 100.038 73.0356 100.038C73.0358 100.039 73.036 100.039 73.0363 100.04C73.0368 100.042 73.0375 100.044 73.0385 100.047C73.0403 100.053 73.043 100.061 73.0465 100.072C73.0534 100.094 73.0636 100.125 73.0768 100.165C73.1032 100.245 73.1421 100.362 73.1925 100.509C73.2932 100.803 73.4403 101.221 73.627 101.717C73.9993 102.705 74.5339 104.019 75.1772 105.297C75.8129 106.56 76.5872 107.855 77.4562 108.756C78.2924 109.624 79.5021 110.398 80.86 109.833L80.1678 108.171C79.8957 108.284 79.4629 108.244 78.7521 107.507C78.0741 106.804 77.397 105.704 76.785 104.488C76.1806 103.287 75.6712 102.038 75.3115 101.082C75.1322 100.606 74.9913 100.206 74.8955 99.9263C74.8476 99.7864 74.811 99.6767 74.7867 99.6026C74.7745 99.5656 74.7654 99.5375 74.7594 99.519C74.7564 99.5097 74.7542 99.5029 74.7528 99.4985C74.7521 99.4964 74.7516 99.4948 74.7513 99.4939C74.7512 99.4934 74.7511 99.4931 74.7511 99.493C74.751 99.4929 74.751 99.4929 74.751 99.4929C74.751 99.4929 74.7511 99.493 73.8932 99.7651ZM80.86 109.833C82.0098 109.354 82.6044 108.404 82.8331 107.33C83.053 106.297 82.9509 105.104 82.7212 103.938C82.261 101.601 81.205 99.0006 80.5389 97.2687L78.8589 97.9149C79.5511 99.7147 80.5325 102.14 80.9552 104.286C81.167 105.361 81.2177 106.273 81.0725 106.955C80.9362 107.596 80.6479 107.971 80.1678 108.171L80.86 109.833ZM76.4251 78.7247L83.8607 60.7949L82.198 60.1054L74.7624 78.0351L76.4251 78.7247ZM83.0294 61.3502H83.6853V59.5502H83.0294V61.3502ZM101.418 44.4217C101.418 45.1772 101.048 45.852 100.363 46.3943C99.6673 46.9444 98.6764 47.3258 97.5795 47.431C95.3817 47.6417 93.0358 46.7404 92.0065 44.3388L90.352 45.0479C91.7678 48.3512 94.9911 49.4874 97.7513 49.2228C99.1333 49.0902 100.469 48.6057 101.48 47.806C102.5 46.9984 103.218 45.8395 103.218 44.4217H101.418ZM131.969 52.759C127.217 52.5498 121.971 50.0062 116.73 47.5513C114.149 46.342 111.577 45.162 109.147 44.3741C106.724 43.5883 104.346 43.1588 102.165 43.5348L102.471 45.3086C104.229 45.0054 106.279 45.3361 108.592 46.0863C110.899 46.8345 113.373 47.9665 115.966 49.1813C121.076 51.5748 126.696 54.3286 131.89 54.5572L131.969 52.759ZM111.104 57.2829L111.647 56.7396L110.375 55.4668L109.831 56.0101L111.104 57.2829ZM110.7 56.9476C113.973 58.1551 118.126 59.8872 122.258 61.1235C126.381 62.3571 130.674 63.1613 134.284 62.4181L133.921 60.6551C130.773 61.3033 126.845 60.6169 122.774 59.399C118.712 58.1838 114.697 56.5036 111.322 55.2588L110.7 56.9476ZM156.06 36.014C156.654 34.8013 156.624 33.4613 155.93 32.5279C155.579 32.0561 155.071 31.7164 154.458 31.5953C153.85 31.4752 153.201 31.5818 152.567 31.8839L153.34 33.5092C153.696 33.34 153.95 33.3298 154.11 33.3612C154.264 33.3917 154.388 33.4719 154.485 33.6021C154.686 33.8727 154.815 34.4648 154.444 35.2223L156.06 36.014Z" fill="#1A1B1C"/>
  <path d="M72.5586 64.5L79.7693 67.5128" stroke="#1A1B1C" stroke-width="1.8" stroke-linecap="round" stroke-linejoin="round"/>
  <path d="M118.074 57.9512L121.108 51.2126" stroke="#1A1B1C" stroke-width="1.8" stroke-linecap="round" stroke-linejoin="round"/>
  <path d="M194 21L182.561 59.5581L208.569 117.966" stroke="#1A1B1C" stroke-width="1.8" stroke-linecap="round" stroke-linejoin="round"/>
  <path d="M237.094 28.3164L247.625 59.5581L216.001 132" stroke="#1A1B1C" stroke-width="1.8" stroke-linecap="round" stroke-linejoin="round"/>
</svg>
