<svg viewBox="0 0 620 370" fill="none" xmlns="http://www.w3.org/2000/svg">
  <path d="M194.852 83.5049C194.239 88.9022 195.667 91.1386 197.813 94.1396" stroke="#1A1B1C" stroke-width="3" stroke-linecap="round" stroke-linejoin="round"/>
  <path d="M156.336 343L285.336 343" stroke="#1A1B1C" stroke-width="3" stroke-linecap="round" stroke-linejoin="round"/>
  <path d="M359 343L443 343" stroke="#1A1B1C" stroke-width="3" stroke-linecap="round" stroke-linejoin="round"/>
  <path d="M178.315 94.1392C180.905 84.3141 178.299 75.5382 178.098 74.6016" stroke="#1A1B1C" stroke-width="3" stroke-linecap="round" stroke-linejoin="round"/>
  <path d="M196.755 52.7654C196.392 52.0207 196.701 51.1228 197.446 50.7597C198.191 50.3966 199.088 50.706 199.452 51.4506L196.755 52.7654ZM194.783 85.0019C193.956 84.9638 193.316 84.262 193.354 83.4345C193.392 82.6069 194.094 81.9669 194.921 82.005L194.783 85.0019ZM199.452 51.4506C201.359 55.3632 204.788 63.5875 205.608 70.8227C206.015 74.4141 205.816 78.0454 204.182 80.7775C202.453 83.6688 199.339 85.2115 194.783 85.0019L194.921 82.005C198.667 82.1774 200.581 80.9533 201.607 79.2377C202.729 77.3629 203.011 74.5472 202.627 71.1608C201.865 64.4402 198.617 56.5847 196.755 52.7654L199.452 51.4506Z" fill="#1A1B1C"/>
  <path d="M178.913 77.0777C181.461 78.7168 184.424 76.1729 184.018 72.5555C178.249 71.1233 178.997 64.3336 182.254 62.8869C185.511 61.4401 186.786 63.7302 191.266 62.6198C195.745 61.5093 198.815 53.6392 198.815 53.6392C196.814 46.1396 184.224 41.1766 175.749 49.3639C167.274 57.5511 172.105 68.0174 178.913 77.0777Z" fill="#1A1B1C"/>
  <path d="M178.913 77.0777L178.102 78.3391C177.952 78.2429 177.821 78.1209 177.714 77.9788L178.913 77.0777ZM184.018 72.5555L184.379 71.0997C184.988 71.2509 185.438 71.7649 185.508 72.3883L184.018 72.5555ZM198.815 53.6392L200.264 53.2527C200.346 53.5608 200.328 53.8871 200.212 54.1843L198.815 53.6392ZM179.725 75.8163C180.378 76.2362 181.025 76.1495 181.585 75.6594C182.185 75.1338 182.681 74.0971 182.527 72.7227L185.508 72.3883C185.76 74.6314 184.978 76.6753 183.561 77.9161C182.104 79.1926 179.996 79.5583 178.102 78.3391L179.725 75.8163ZM183.656 74.0113C180.092 73.1265 178.418 70.4836 178.254 67.8191C178.1 65.3301 179.284 62.5644 181.645 61.516L182.862 64.2577C181.966 64.6561 181.148 66.0086 181.248 67.6341C181.338 69.0843 182.175 70.5523 184.379 71.0997L183.656 74.0113ZM181.645 61.516C183.719 60.5944 185.247 60.8911 186.591 61.1554C187.822 61.3976 188.994 61.6375 190.905 61.1639L191.627 64.0757C189.058 64.7125 187.352 64.3626 186.012 64.099C184.784 63.8575 184.045 63.7325 182.862 64.2577L181.645 61.516ZM190.905 61.1639C191.671 60.9739 192.476 60.465 193.288 59.6737C194.092 58.8903 194.824 57.9076 195.451 56.9134C196.074 55.9247 196.569 54.9621 196.909 54.244C197.079 53.8864 197.208 53.5927 197.294 53.3912C197.337 53.2905 197.369 53.213 197.39 53.1623C197.4 53.1369 197.407 53.1183 197.412 53.1067C197.414 53.101 197.416 53.097 197.417 53.0949C197.417 53.0938 197.417 53.0932 197.417 53.0931C197.417 53.093 197.417 53.0931 197.417 53.0933C197.417 53.0934 197.417 53.0936 197.417 53.0936C197.417 53.0939 197.417 53.0941 198.815 53.6392C200.212 54.1843 200.212 54.1846 200.212 54.185C200.212 54.1851 200.211 54.1855 200.211 54.1859C200.211 54.1865 200.211 54.1873 200.21 54.1882C200.21 54.1899 200.209 54.1922 200.208 54.1949C200.206 54.2004 200.203 54.2077 200.199 54.2169C200.192 54.2352 200.181 54.2609 200.168 54.2934C200.142 54.3585 200.103 54.4512 200.054 54.5679C199.954 54.8011 199.809 55.131 199.62 55.5285C199.245 56.3208 198.693 57.3951 197.989 58.5128C197.288 59.6248 196.413 60.8179 195.381 61.8225C194.358 62.8191 193.1 63.7104 191.627 64.0757L190.905 61.1639ZM197.365 54.0257C196.541 50.9339 193.418 48.1293 189.334 47.071C185.326 46.0326 180.613 46.7507 176.791 50.4427L174.707 48.2851C179.36 43.7898 185.18 42.8958 190.086 44.1669C194.915 45.4182 199.088 48.8449 200.264 53.2527L197.365 54.0257ZM176.791 50.4427C172.968 54.1365 172.162 58.2565 173.068 62.5859C173.999 67.0295 176.746 71.6966 180.113 76.1766L177.714 77.9788C174.273 73.3985 171.2 68.3023 170.132 63.2008C169.04 57.9852 170.056 52.7784 174.707 48.2851L176.791 50.4427Z" fill="#1A1B1C"/>
  <path d="M494.444 42L537.182 123.868L403.333 276L274.055 123L313.463 42L494.444 42Z" stroke="#1A1B1C" stroke-width="3" stroke-linecap="round" stroke-linejoin="round"/>
  <path d="M515 123L295 123" stroke="#1A1B1C" stroke-width="3" stroke-linecap="round" stroke-linejoin="round"/>
  <path d="M259.814 330L216.586 170.5H169.814C169.147 171.333 167.614 175.6 166.814 186C165.214 206.4 175.169 293 179.836 330L156.836 342.5H197.814L195.314 330H203.836L194.314 204H197.814L233.836 330H242.836V342.5H285.836L259.814 330Z" fill="#1A1B1C" stroke="#1A1B1C" stroke-width="4" stroke-linecap="round" stroke-linejoin="round"/>
  <path d="M221.5 179.5H164.022V124.141H162.815L149.13 157.14C149.13 157.14 154.185 186 156.685 192.5C159.185 199 164.185 211 158.185 213.5C152.186 215.999 146 196.5 146 196.5C141.185 183.5 137.5 166.5 136.5 162.5C133.638 151.051 141.815 131.64 148.315 117.14C153.515 105.54 164.315 97.6403 177.815 95.1403C182.315 105.64 198.315 102.64 198.315 94.6403C212.815 92.1403 234.51 110.834 252.815 111.64C263.315 109.64 276.7 94.6402 281.7 82.6399C283.63 78.0082 287.686 74.88 291.51 73.0604C295.155 71.3252 297.516 74.8115 295.74 78.4376L287.315 95.6399C280.315 109.14 270.415 123.34 256.815 126.14C244.377 128.701 226.552 120.654 214.315 116.14L213.315 117.14L221.5 179.5Z" fill="#F5F3ED"/>
  <path d="M164.022 179.5H162.522C162.522 180.328 163.194 181 164.022 181V179.5ZM221.5 179.5V181C221.932 181 222.343 180.813 222.628 180.489C222.912 180.164 223.043 179.732 222.987 179.304L221.5 179.5ZM213.315 117.14L212.254 116.079C211.925 116.409 211.767 116.873 211.828 117.335L213.315 117.14ZM256.815 126.14L256.512 124.671L256.815 126.14ZM287.315 95.6399L288.646 96.3304C288.652 96.3202 288.657 96.31 288.662 96.2997L287.315 95.6399ZM295.74 78.4376L297.087 79.0974V79.0974L295.74 78.4376ZM291.51 73.0604L290.865 71.706V71.706L291.51 73.0604ZM281.7 82.6399L283.084 83.2169V83.2169L281.7 82.6399ZM252.815 111.64L252.749 113.138C252.865 113.144 252.981 113.135 253.095 113.113L252.815 111.64ZM177.815 95.1403L179.194 94.5495C178.917 93.9049 178.231 93.5377 177.542 93.6654L177.815 95.1403ZM148.315 117.14L146.946 116.527L148.315 117.14ZM136.5 162.5L135.045 162.863H135.045L136.5 162.5ZM146 196.5L147.43 196.046C147.423 196.023 147.415 196.001 147.407 195.979L146 196.5ZM149.13 157.14L147.744 156.566C147.635 156.829 147.603 157.118 147.652 157.399L149.13 157.14ZM164.022 124.141H165.522C165.522 123.312 164.851 122.641 164.022 122.641V124.141ZM162.815 124.141V122.641C162.209 122.641 161.662 123.006 161.43 123.566L162.815 124.141ZM198.315 94.6403L198.06 93.1622C197.341 93.2862 196.815 93.9103 196.815 94.6403H198.315ZM214.315 116.14L214.834 114.733C214.285 114.53 213.668 114.666 213.254 115.079L214.315 116.14ZM164.022 181H221.5V178H164.022V181ZM222.987 179.304L214.802 116.945L211.828 117.335L220.013 179.695L222.987 179.304ZM257.117 127.609C264.344 126.122 270.483 121.628 275.653 115.909C280.825 110.185 285.119 103.133 288.646 96.3304L285.983 94.9495C282.51 101.647 278.354 108.445 273.427 113.897C268.496 119.352 262.885 123.359 256.512 124.671L257.117 127.609ZM288.662 96.2997L297.087 79.0974L294.393 77.7778L285.968 94.9801L288.662 96.2997ZM290.865 71.706C286.851 73.6162 282.439 76.9669 280.315 82.063L283.084 83.2169C284.821 79.0496 288.521 76.1438 292.154 74.4148L290.865 71.706ZM280.315 82.063C277.899 87.862 273.417 94.4596 268.238 99.8507C263.018 105.285 257.317 109.255 252.534 110.166L253.095 113.113C258.813 112.024 265.054 107.495 270.401 101.929C275.79 96.3204 280.501 89.4181 283.084 83.2169L280.315 82.063ZM177.542 93.6654C163.621 96.2434 152.373 104.421 146.946 116.527L149.684 117.754C154.657 106.659 165.009 99.0373 178.088 96.6153L177.542 93.6654ZM146.946 116.527C143.695 123.778 139.992 132.33 137.463 140.522C134.955 148.648 133.506 156.709 135.045 162.863L137.955 162.136C136.632 156.842 137.84 149.474 140.33 141.407C142.799 133.406 146.434 125.002 149.684 117.754L146.946 116.527ZM135.045 162.863C136.026 166.787 139.741 183.919 144.593 197.02L147.407 195.979C142.63 183.08 138.974 166.212 137.955 162.136L135.045 162.863ZM158.085 191.961C157.505 190.452 156.741 187.532 155.913 183.899C155.092 180.3 154.229 176.1 153.442 172.093C152.655 168.088 151.947 164.284 151.434 161.481C151.178 160.08 150.971 158.929 150.829 158.129C150.757 157.729 150.702 157.417 150.664 157.205C150.646 157.099 150.631 157.018 150.622 156.963C150.617 156.936 150.613 156.915 150.611 156.902C150.61 156.895 150.609 156.89 150.608 156.886C150.608 156.885 150.608 156.883 150.608 156.882C150.607 156.882 150.607 156.882 150.607 156.882C150.607 156.881 150.607 156.881 149.13 157.14C147.652 157.399 147.652 157.399 147.652 157.399C147.652 157.4 147.653 157.4 147.653 157.4C147.653 157.401 147.653 157.403 147.653 157.404C147.654 157.408 147.655 157.413 147.656 157.42C147.659 157.435 147.662 157.455 147.667 157.483C147.677 157.538 147.691 157.62 147.71 157.727C147.748 157.941 147.804 158.255 147.875 158.656C148.019 159.46 148.226 160.615 148.483 162.021C148.997 164.832 149.708 168.649 150.498 172.671C151.288 176.692 152.157 180.925 152.988 184.566C153.81 188.172 154.616 191.297 155.285 193.038L158.085 191.961ZM162.522 124.141V179.5H165.522V124.141H162.522ZM146 196.5C144.57 196.953 144.57 196.953 144.57 196.954C144.57 196.954 144.571 196.954 144.571 196.955C144.571 196.956 144.571 196.957 144.572 196.958C144.573 196.961 144.574 196.965 144.576 196.971C144.579 196.981 144.584 196.997 144.59 197.016C144.603 197.056 144.622 197.113 144.646 197.187C144.695 197.334 144.766 197.548 144.858 197.818C145.043 198.359 145.314 199.125 145.656 200.036C146.341 201.853 147.322 204.266 148.503 206.611C149.671 208.932 151.088 211.297 152.67 212.939C154.198 214.524 156.357 215.886 158.762 214.884L157.608 212.115C157.013 212.363 156.149 212.225 154.83 210.857C153.566 209.545 152.311 207.504 151.183 205.263C150.067 203.046 149.127 200.74 148.464 198.979C148.133 198.1 147.873 197.363 147.697 196.847C147.608 196.589 147.541 196.386 147.496 196.249C147.473 196.181 147.456 196.129 147.445 196.095C147.44 196.077 147.436 196.065 147.433 196.056C147.432 196.052 147.431 196.049 147.43 196.048C147.43 196.047 147.43 196.046 147.43 196.046C147.43 196.046 147.43 196.046 147.43 196.046C147.43 196.046 147.43 196.046 146 196.5ZM158.762 214.884C160.82 214.027 161.888 212.329 162.301 210.39C162.699 208.519 162.516 206.348 162.094 204.21C161.251 199.926 159.314 195.154 158.085 191.961L155.285 193.038C156.557 196.345 158.37 200.823 159.151 204.789C159.542 206.776 159.64 208.48 159.367 209.765C159.108 210.982 158.55 211.722 157.608 212.115L158.762 214.884ZM150.515 157.715L164.201 124.715L161.43 123.566L147.744 156.566L150.515 157.715ZM162.815 125.641H164.022V122.641H162.815V125.641ZM196.815 94.6403C196.815 96.0885 196.105 97.3725 194.814 98.3936C193.507 99.4279 191.653 100.139 189.609 100.335C185.515 100.727 181.122 99.048 179.194 94.5495L176.436 95.7312C179.008 101.733 184.864 103.803 189.896 103.321C192.415 103.079 194.842 102.197 196.675 100.746C198.525 99.2832 199.815 97.1922 199.815 94.6403H196.815ZM252.881 110.141C244.097 109.755 234.408 105.055 224.774 100.542C220.022 98.3159 215.298 96.1484 210.836 94.7017C206.386 93.2584 202.037 92.4765 198.06 93.1622L198.57 96.1185C201.843 95.5542 205.644 96.1715 209.911 97.5554C214.168 98.9358 218.73 101.023 223.502 103.259C232.917 107.669 243.228 112.719 252.749 113.138L252.881 110.141ZM214.376 118.201L215.376 117.201L213.254 115.079L212.254 116.079L214.376 118.201ZM213.796 117.547C219.83 119.773 227.46 122.957 235.06 125.23C242.644 127.499 250.514 128.969 257.117 127.609L256.512 124.671C250.678 125.872 243.416 124.599 235.92 122.356C228.438 120.118 221.037 117.021 214.834 114.733L213.796 117.547ZM297.087 79.0974C298.161 76.9049 298.096 74.5036 296.862 72.8434C296.238 72.0047 295.338 71.402 294.249 71.1871C293.168 70.9737 292.009 71.1615 290.865 71.706L292.154 74.4148C292.833 74.0918 293.336 74.0647 293.668 74.1302C293.992 74.1942 294.254 74.3643 294.454 74.6336C294.868 75.1893 295.095 76.3441 294.393 77.7778L297.087 79.0974Z" fill="#1A1B1C"/>
  <path d="M143.543 131.595L156.814 137.14" stroke="#1A1B1C" stroke-width="3" stroke-linecap="round" stroke-linejoin="round"/>
  <path d="M227.314 119.542L232.899 107.14" stroke="#1A1B1C" stroke-width="3" stroke-linecap="round" stroke-linejoin="round"/>
  <path d="M364.868 65L346 122.5L393.868 230" stroke="#1A1B1C" stroke-width="3" stroke-linecap="round" stroke-linejoin="round"/>
  <path d="M446.368 65L465.75 122.5L417.368 230" stroke="#1A1B1C" stroke-width="3" stroke-linecap="round" stroke-linejoin="round"/>
</svg>
