<svg width="32" height="32" viewBox="0 0 32 32" fill="none" xmlns="http://www.w3.org/2000/svg">
<path d="M6 27.6665C4.34315 27.6665 3 26.3234 3 24.6665L3 11.3332C3 9.67632 4.34315 8.33317 6 8.33317L26 8.33317C27.6569 8.33317 29 9.67632 29 11.3332L29 24.6665C29 26.3234 27.6569 27.6665 26 27.6665L6 27.6665Z" stroke="#00857C" stroke-width="2"/>
<path d="M12.002 9.3335L12.002 5.69409L10.002 5.69409L10.002 9.3335L12.002 9.3335ZM13.002 4.69409L18.9996 4.69409L18.9996 2.69409L13.002 2.69409L13.002 4.69409ZM19.9996 5.69409L19.9996 9.3335L21.9996 9.3335L21.9996 5.69409L19.9996 5.69409ZM18.9996 4.69409C19.5519 4.69409 19.9996 5.14181 19.9996 5.69409L21.9996 5.69409C21.9996 4.03723 20.6565 2.69409 18.9996 2.69409L18.9996 4.69409ZM12.002 5.69409C12.002 5.1418 12.4497 4.69409 13.002 4.69409L13.002 2.69409C11.3451 2.69409 10.002 4.03724 10.002 5.69409L12.002 5.69409Z" fill="#00857C"/>
<path d="M27.9824 11.3926L27.9824 13.6565L29.9824 13.6565L29.9824 11.3926L27.9824 11.3926ZM26.9824 14.6565L5.01775 14.6565L5.01775 16.6565L26.9824 16.6565L26.9824 14.6565ZM4.01774 13.6565L4.01774 11.3926L2.01774 11.3926L2.01774 13.6565L4.01774 13.6565ZM5.01775 14.6565C4.46546 14.6565 4.01774 14.2088 4.01774 13.6565L2.01774 13.6565C2.01774 15.3134 3.36089 16.6565 5.01775 16.6565L5.01775 14.6565ZM27.9824 13.6565C27.9824 14.2088 27.5347 14.6565 26.9824 14.6565L26.9824 16.6565C28.6393 16.6565 29.9824 15.3134 29.9824 13.6565L27.9824 13.6565Z" fill="#00857C"/>
<path d="M17 16C17 15.4477 16.5523 15 16 15C15.4477 15 15 15.4477 15 16L17 16ZM15 18.4248C15 18.9771 15.4477 19.4248 16 19.4248C16.5523 19.4248 17 18.9771 17 18.4248L15 18.4248ZM15 16L15 18.4248L17 18.4248L17 16L15 16Z" fill="#00857C"/>
</svg>
