<svg width="32" height="32" viewBox="0 0 32 32" fill="none" xmlns="http://www.w3.org/2000/svg">
<path d="M11 28.999L5 28.999C3.52725 28.999 2.33334 27.8051 2.33334 26.3324L2.33334 15.6489C2.33334 13.4398 4.1242 11.6489 6.33334 11.6489L9.33333 11.6489" stroke="#00857C" stroke-width="2" stroke-linecap="round" stroke-linejoin="round"/>
<circle cx="8.66602" cy="5.3877" r="3.06667" stroke="#00857C" stroke-width="1.86667"/>
<circle cx="22.666" cy="5.3877" r="3.06667" stroke="#00857C" stroke-width="1.86667"/>
<circle cx="15.999" cy="13.3643" r="2.43093" stroke="#00857C" stroke-width="1.86667"/>
<path d="M21 29L21 21.6667C21 20.1939 19.8061 19 18.3333 19L13.6667 19C12.1939 19 11 20.1939 11 21.6667L11 29" stroke="#00857C" stroke-width="2" stroke-linecap="round" stroke-linejoin="round"/>
<path d="M21 28.999L27 28.999C28.4728 28.999 29.6667 27.8051 29.6667 26.3324L29.6667 15.6489C29.6667 13.4398 27.8758 11.6489 25.6667 11.6489L22.6667 11.6489" stroke="#00857C" stroke-width="2" stroke-linecap="round" stroke-linejoin="round"/>
</svg>
