<svg width="32" height="32" viewBox="0 0 32 32" fill="none" xmlns="http://www.w3.org/2000/svg">
<path d="M20.2844 6.66683C20.8366 6.66683 21.2844 6.21911 21.2844 5.66683C21.2844 5.11455 20.8366 4.66683 20.2844 4.66683L20.2844 6.66683ZM30 12.99C30 12.4377 29.5523 11.99 29 11.99C28.4477 11.99 28 12.4377 28 12.99L30 12.99ZM4 26.2668L4 5.7335L2 5.7335L2 26.2668L4 26.2668ZM28.9333 25.3335L3.06667 25.3335L3.06667 27.3335L28.9333 27.3335L28.9333 25.3335ZM28 16.0002L28 26.2668L30 26.2668L30 16.0002L28 16.0002ZM3.06667 6.66683L16 6.66683L16 4.66683L3.06667 4.66683L3.06667 6.66683ZM16 6.66683L20.2844 6.66683L20.2844 4.66683L16 4.66683L16 6.66683ZM28 12.99L28 16.0002L30 16.0002L30 12.99L28 12.99ZM28.9333 27.3335C29.5225 27.3335 30 26.8559 30 26.2668L28 26.2668C28 25.7514 28.4178 25.3335 28.9333 25.3335L28.9333 27.3335ZM4 5.7335C4 6.24895 3.58214 6.66683 3.06667 6.66683L3.06667 4.66683C2.47755 4.66683 2 5.14441 2 5.7335L4 5.7335ZM2 26.2668C2 26.8559 2.47758 27.3335 3.06667 27.3335L3.06667 25.3335C3.58212 25.3335 4 25.7513 4 26.2668L2 26.2668Z" fill="#00857C"/>
<path d="M24.4082 4.4082L29.2582 9.25816" stroke="#00857C" stroke-width="1.8" stroke-linecap="round" stroke-linejoin="round"/>
<path d="M29.2578 4.4082L24.4079 9.25816" stroke="#00857C" stroke-width="1.8" stroke-linecap="round" stroke-linejoin="round"/>
<path d="M8 10.3335H20.1973" stroke="#00857C" stroke-width="2" stroke-linecap="round" stroke-linejoin="round"/>
<path d="M15.8023 21.6963C15.7626 22.1733 16.117 22.5922 16.594 22.632C17.071 22.6717 17.4899 22.3172 17.5297 21.8403L15.8023 21.6963ZM23.9451 21.5435C24.3732 21.7575 24.8938 21.584 25.1079 21.1559C25.3219 20.7277 25.1484 20.2072 24.7203 19.9931L23.9451 21.5435ZM19.666 17.435L19.9879 16.6303L19.666 17.435ZM20.3327 21.7683L19.5575 22.1559V22.1559L20.3327 21.7683ZM17.5297 21.8403C17.6894 19.9234 18.1499 18.9604 18.5424 18.5294C18.8909 18.1468 19.1786 18.1734 19.3441 18.2397L19.9879 16.6303C19.1151 16.2812 18.0694 16.4745 17.2609 17.3623C16.4963 18.2019 15.9759 19.6132 15.8023 21.6963L17.5297 21.8403ZM19.3441 18.2397C19.4686 18.2894 19.5411 18.363 19.5957 18.5465C19.6625 18.7712 19.675 19.0966 19.6362 19.5232C19.5965 19.9605 19.5233 20.3444 19.4634 20.7876C19.4363 20.9885 19.4119 21.2069 19.4101 21.4104C19.4085 21.5898 19.4205 21.8818 19.5575 22.1559L21.1079 21.3807C21.1616 21.4881 21.1423 21.5405 21.1433 21.4257C21.1441 21.3349 21.1562 21.2043 21.1811 21.0198C21.2254 20.6922 21.3189 20.1594 21.3625 19.6801C21.407 19.19 21.4195 18.5988 21.2572 18.0526C21.0826 17.4653 20.6968 16.9139 19.9879 16.6303L19.3441 18.2397ZM19.5575 22.1559C19.6373 22.3154 19.7719 22.4918 19.9876 22.6124C20.2037 22.7332 20.4225 22.7541 20.5942 22.739C20.8887 22.7131 21.1363 22.5718 21.2629 22.4958C21.415 22.4046 21.5785 22.288 21.72 22.1873C21.872 22.0791 22.0203 21.9733 22.1785 21.8709C22.8388 21.4437 23.3863 21.2641 23.9451 21.5435L24.7203 19.9931C23.279 19.2725 21.9933 19.9262 21.2369 20.4157C21.0409 20.5425 20.8611 20.671 20.7149 20.7751C20.5582 20.8866 20.4535 20.9601 20.3712 21.0095C20.2634 21.0742 20.3106 21.024 20.4423 21.0124C20.5326 21.0044 20.6795 21.0133 20.8335 21.0995C20.9872 21.1854 21.0698 21.3045 21.1079 21.3807L19.5575 22.1559Z" fill="#00857C"/>
</svg>
