<svg viewBox="0 0 264 311" fill="none" xmlns="http://www.w3.org/2000/svg">
  <g filter="url(#filter0_d_401_40)">
    <path d="M11.5019 38.1484C11.1388 34.8547 13.5146 31.8903 16.8084 31.5272L217.592 9.39578C220.886 9.03272 223.851 11.4085 224.214 14.7023L252.152 268.167C252.515 271.461 250.139 274.425 246.845 274.788L46.0613 296.92C42.7675 297.283 39.8031 294.907 39.44 291.613L11.5019 38.1484Z" fill="#76DCD4"/>
  </g>
  <g filter="url(#filter1_ddd_401_40)">
    <path d="M19.8463 32.1984C19.6403 28.8911 22.1545 26.043 25.4618 25.8371L225.075 13.4069C228.382 13.201 231.231 15.7151 231.436 19.0224L247.161 271.533C247.367 274.841 244.852 277.689 241.545 277.895L41.9317 290.325C38.6244 290.531 35.7764 288.017 35.5704 284.709L19.8463 32.1984Z" fill="#01867D"/>
  </g>
  <path d="M28.8655 28.572C28.8655 24.706 31.9995 21.572 35.8655 21.572H228.865C232.731 21.572 235.865 24.706 235.865 28.572V278.572C235.865 282.438 232.731 285.572 228.865 285.572H35.8655C31.9995 285.572 28.8655 282.438 28.8655 278.572L28.8655 28.572Z" fill="#EFFEB2"/>
  <mask id="mask0_401_40" style="mask-type:alpha" maskUnits="userSpaceOnUse" x="28" y="21" width="208" height="264">
    <path d="M28.0005 28C28.0005 24.134 31.1345 21 35.0005 21H228C231.866 21 235 24.134 235 28V278C235 281.866 231.866 285 228 285H35.0005C31.1345 285 28.0005 281.866 28.0005 278L28.0005 28Z" fill="#EFFEB2"/>
  </mask>
  <g mask="url(#mask0_401_40)">
    <path d="M77.8415 53.5996V50.2178C77.8415 48.4699 76.8139 47.4118 75.0452 47.4118C73.3325 47.4118 71.895 48.4129 71.895 49.5747C71.895 49.8755 71.9961 50.1297 72.2039 50.4046L73.4336 49.9844C73.2764 49.6992 73.1978 49.471 73.1978 49.2012C73.1978 48.4803 73.7649 47.9046 74.6521 47.9046C75.8201 47.9046 76.5276 48.7707 76.5276 50.1763V50.4046L75.4607 50.6224C73.0405 51.1203 71.9007 51.7583 71.9007 53.1276C71.9007 54.1961 72.7654 54.9948 74.0288 54.9948C75.0508 54.9948 75.9941 54.4813 76.5219 53.3714V54.777H78.9365V54.4658C78.3244 54.3776 77.8415 54.2324 77.8415 53.5996ZM76.5332 52.972C76.0671 53.7604 75.3596 54.2168 74.6016 54.2168C73.8098 54.2168 73.2932 53.7033 73.2932 52.9461C73.2932 51.9865 73.866 51.4834 75.6067 51.0944L76.5332 50.8921V52.972ZM92.0704 54.4658V54.777H88.5384V54.4658C89.1729 54.3672 89.6558 54.222 89.6558 53.584V46.6909C89.6558 46.1774 89.4032 45.9492 88.8023 45.8817L88.5384 45.8558V45.5602L90.689 45H90.9642V49.0353C91.8177 47.9098 92.6487 47.4118 93.5865 47.4118C94.8499 47.4118 95.8999 48.2002 95.8999 49.8081V53.584C95.8999 54.2168 96.3828 54.3568 97.0005 54.4658V54.777H93.5135V54.4658C94.1143 54.3672 94.586 54.222 94.586 53.584V49.9015C94.586 48.7915 93.9739 48.3039 93.0642 48.3039C92.3624 48.3039 91.6885 48.6411 90.9698 49.4813V53.5944C90.9642 54.222 91.4415 54.3672 92.0704 54.4658ZM87.8927 53.8537C87.5726 54.0871 87.2919 54.2324 86.8539 54.2324C86.1688 54.2324 85.6522 53.8693 85.6522 52.8527V48.1432H87.9937V47.6297H85.6522V45.7002H85.2535L83.0243 47.7697V48.138H84.3439V52.8371C84.3439 54.3102 85.0289 55 86.2081 55C87.0279 55 87.6175 54.471 88.0443 54.1079L87.8927 53.8537ZM82.8502 54.4658V54.777H79.3183V54.4658C79.9528 54.3672 80.4357 54.222 80.4357 53.584V46.7894C80.4357 46.2241 80.2336 45.9129 79.4868 45.8714L79.3127 45.8558V45.5602L81.4689 45H81.7497V53.5944C81.7497 54.222 82.2326 54.3672 82.8502 54.4658ZM70.918 50.8351H65.5667C65.6285 52.7697 66.6842 53.9886 68.262 53.9886C69.357 53.9886 70.0982 53.4025 70.5923 52.7541L70.8675 52.8734C70.4688 54.0508 69.3177 55 67.7286 55C65.6004 55 64.2696 53.3454 64.2696 51.3952C64.2696 48.9004 65.8194 47.417 67.9588 47.417C69.941 47.4118 70.918 49.0041 70.918 50.8351ZM69.503 50.3216C69.4131 48.9575 68.9358 47.9409 67.6893 47.9409C66.3697 47.9409 65.6959 48.916 65.578 50.3216H69.503ZM63.7699 48.584L61.0409 55H60.6872L58.3569 49.7355L56.122 55H55.7683L52.927 48.5685C52.7698 48.2261 52.5732 48.0965 52.0005 47.9616V47.6349H55.4594V47.9564C54.4599 48.1224 54.2746 48.2832 54.5217 48.89L56.3354 53.2884L58.0649 49.0456L57.8459 48.5685C57.6999 48.2573 57.509 48.0965 56.9081 47.9616V47.6349H60.3783V47.9564C59.3844 48.1224 59.1935 48.2832 59.4406 48.89L61.2768 53.2728L63.0511 48.89C63.2982 48.2417 63.068 48.1172 62.0573 47.9564V47.6349H64.6908V47.9564C64.1349 48.0602 63.9159 48.2054 63.7699 48.584Z" fill="#00534F"/>
    <path d="M221.981 93.5356L222.829 93.5457C222.832 93.2509 222.683 92.9754 222.433 92.8183L221.981 93.5356ZM221.792 109.512L221.782 110.36C222.25 110.365 222.634 109.99 222.639 109.522L221.792 109.512ZM195.545 109.201C195.54 109.669 195.915 110.053 196.383 110.058C196.851 110.064 197.235 109.689 197.241 109.221L195.545 109.201ZM196.583 93.2341L196.151 92.5049C195.896 92.6557 195.739 92.9282 195.735 93.224L196.583 93.2341ZM202.244 108.432C201.776 108.427 201.392 108.802 201.386 109.27C201.38 109.738 201.755 110.122 202.224 110.128L202.244 108.432ZM209.422 85.6255L209.874 84.9082C209.605 84.7387 209.263 84.7341 208.99 84.8962L209.422 85.6255ZM221.134 93.5255L220.944 109.502L222.639 109.522L222.829 93.5457L221.134 93.5255ZM197.241 109.221L197.43 93.2442L195.735 93.224L195.545 109.201L197.241 109.221ZM221.802 108.664L202.244 108.432L202.224 110.128L221.782 110.36L221.802 108.664ZM197.015 93.9634L209.854 86.3547L208.99 84.8962L196.151 92.5049L197.015 93.9634ZM208.97 86.3427L221.53 94.2529L222.433 92.8183L209.874 84.9082L208.97 86.3427Z" fill="#00534F"/>
    <rect x="185.97" y="72.9998" width="81.9426" height="49.7307" rx="5.65121" transform="rotate(0.680097 185.97 72.9998)" stroke="#00534F" stroke-width="1.69536"/>
    <path d="M223.126 152.291L223.882 151.908C224.041 152.221 223.991 152.598 223.756 152.859L223.126 152.291ZM218.564 143.293L218.574 142.445C218.889 142.449 219.177 142.628 219.32 142.909L218.564 143.293ZM198.047 142.655C198.27 142.243 198.784 142.09 199.196 142.312C199.608 142.534 199.761 143.049 199.539 143.461L198.047 142.655ZM193.995 151.946L193.35 152.495C193.123 152.229 193.083 151.851 193.249 151.543L193.995 151.946ZM204.629 143.975C204.161 143.969 203.786 143.585 203.792 143.117C203.797 142.649 204.181 142.274 204.649 142.28L204.629 143.975ZM208.307 168.737L208.937 169.304C208.773 169.486 208.54 169.588 208.296 169.584C208.051 169.581 207.82 169.473 207.662 169.287L208.307 168.737ZM222.37 152.675L217.808 143.676L219.32 142.909L223.882 151.908L222.37 152.675ZM199.539 143.461L194.741 152.348L193.249 151.543L198.047 142.655L199.539 143.461ZM218.554 144.14L204.629 143.975L204.649 142.28L218.574 142.445L218.554 144.14ZM194.64 151.396L208.952 168.187L207.662 169.287L193.35 152.495L194.64 151.396ZM207.677 168.169L222.496 151.724L223.756 152.859L208.937 169.304L207.677 168.169Z" fill="#00534F"/>
    <path d="M222.127 151.923L195.011 151.601" stroke="#00534F" stroke-width="1.69536" stroke-linecap="round" stroke-linejoin="round"/>
    <rect x="184.84" y="130.077" width="81.9426" height="49.7307" rx="5.65121" transform="rotate(0.680097 184.84 130.077)" stroke="#00534F" stroke-width="1.69536"/>
    <path d="M176.839 63.1736C180.76 63.2201 182.811 59.9547 182.875 54.5148C182.811 59.9547 184.784 63.2679 188.705 63.3144C184.836 63.2685 182.746 65.3947 182.674 71.4672C182.746 65.3947 180.708 63.2195 176.839 63.1736Z" stroke="#00534F" stroke-width="1.69536" stroke-linecap="round" stroke-linejoin="round"/>
    <path d="M161.876 85.7196C167.665 85.7884 170.692 80.9993 170.787 73.0207C170.692 80.9993 173.605 85.8589 179.394 85.9276C173.681 85.8598 170.597 88.9779 170.492 97.8843C170.597 88.9779 167.588 85.7874 161.876 85.7196Z" stroke="#00534F" stroke-width="1.69536" stroke-linecap="round" stroke-linejoin="round"/>
  </g>
  <path d="M52 253V261H53.0824V257.831H54.8708C56.8004 257.831 57.8004 256.876 57.8004 255.416C57.8004 253.955 56.8004 253 54.8708 253H52ZM53.0824 253.899H54.7884C56.0591 253.899 56.6827 254.472 56.6827 255.416C56.6827 256.36 56.0591 256.933 54.7884 256.933H53.0824V253.899Z" fill="#00534F"/>
  <path d="M59.2501 253V261H61.8032C64.5799 261 66.1447 259.562 66.1447 257C66.1447 254.438 64.5799 253 61.8032 253H59.2501ZM60.3325 253.921H61.7914C63.8857 253.921 65.0034 255 65.0034 257C65.0034 259 63.8857 260.079 61.7914 260.079H60.3325V253.921Z" fill="#00534F"/>
  <path d="M73 253.921V253H67.7526V261H68.835V257.573H72.7412V256.652H68.835V253.921H73Z" fill="#00534F"/>
  <defs>
    <filter id="filter0_d_401_40" x="0.16266" y="0.317188" width="263.328" height="310.202" filterUnits="userSpaceOnUse" color-interpolation-filters="sRGB">
      <feFlood flood-opacity="0" result="BackgroundImageFix"/>
      <feColorMatrix in="SourceAlpha" type="matrix" values="0 0 0 0 0 0 0 0 0 0 0 0 0 0 0 0 0 0 127 0" result="hardAlpha"/>
      <feOffset dy="2.26049"/>
      <feGaussianBlur stdDeviation="5.65121"/>
      <feComposite in2="hardAlpha" operator="out"/>
      <feColorMatrix type="matrix" values="0 0 0 0 0 0 0 0 0 0 0 0 0 0 0 0 0 0 0.15 0"/>
      <feBlend mode="normal" in2="BackgroundImageFix" result="effect1_dropShadow_401_40"/>
      <feBlend mode="normal" in="SourceGraphic" in2="effect1_dropShadow_401_40" result="shape"/>
    </filter>
    <filter id="filter1_ddd_401_40" x="17.0089" y="11.6997" width="232.989" height="282.593" filterUnits="userSpaceOnUse" color-interpolation-filters="sRGB">
      <feFlood flood-opacity="0" result="BackgroundImageFix"/>
      <feColorMatrix in="SourceAlpha" type="matrix" values="0 0 0 0 0 0 0 0 0 0 0 0 0 0 0 0 0 0 127 0" result="hardAlpha"/>
      <feMorphology radius="0.565121" operator="dilate" in="SourceAlpha" result="effect1_dropShadow_401_40"/>
      <feOffset dy="1.13024"/>
      <feGaussianBlur stdDeviation="1.13024"/>
      <feColorMatrix type="matrix" values="0 0 0 0 0.25098 0 0 0 0 0.254902 0 0 0 0 0.270588 0 0 0 0.1 0"/>
      <feBlend mode="normal" in2="BackgroundImageFix" result="effect1_dropShadow_401_40"/>
      <feColorMatrix in="SourceAlpha" type="matrix" values="0 0 0 0 0 0 0 0 0 0 0 0 0 0 0 0 0 0 127 0" result="hardAlpha"/>
      <feOffset dy="0.565121"/>
      <feGaussianBlur stdDeviation="0.565121"/>
      <feColorMatrix type="matrix" values="0 0 0 0 0.25098 0 0 0 0 0.254902 0 0 0 0 0.270588 0 0 0 0.15 0"/>
      <feBlend mode="normal" in2="effect1_dropShadow_401_40" result="effect2_dropShadow_401_40"/>
      <feColorMatrix in="SourceAlpha" type="matrix" values="0 0 0 0 0 0 0 0 0 0 0 0 0 0 0 0 0 0 127 0" result="hardAlpha"/>
      <feOffset dy="-0.565121"/>
      <feGaussianBlur stdDeviation="0.282561"/>
      <feComposite in2="hardAlpha" operator="out"/>
      <feColorMatrix type="matrix" values="0 0 0 0 0.25098 0 0 0 0 0.254902 0 0 0 0 0.270588 0 0 0 0.05 0"/>
      <feBlend mode="normal" in2="effect2_dropShadow_401_40" result="effect3_dropShadow_401_40"/>
      <feBlend mode="normal" in="SourceGraphic" in2="effect3_dropShadow_401_40" result="shape"/>
    </filter>
  </defs>
</svg>
