<svg width="24" height="24" viewBox="0 0 24 24" fill="none" xmlns="http://www.w3.org/2000/svg">
<path d="M4 20L20 20" stroke="#00857C" stroke-width="2" stroke-linecap="round"/>
<path fill-rule="evenodd" clip-rule="evenodd" d="M12 2C12.5523 2 13 2.44772 13 3V14.0001L16.2929 10.2928C16.6834 9.90231 17.3166 9.90231 17.7071 10.2928C18.0976 10.6834 18.0976 11.3165 17.7071 11.707L12.7071 16.707C12.5196 16.8946 12.2652 16.9999 12 16.9999C11.7348 16.9999 11.4804 16.8946 11.2929 16.707L6.29288 11.7068C5.90236 11.3162 5.90238 10.6831 6.29291 10.2926C6.68344 9.90206 7.31661 9.90207 7.70712 10.2926L11 14V3C11 2.44772 11.4477 2 12 2Z" fill="#00857C"/>
</svg>
