<svg viewBox="0 0 279 279" fill="none" xmlns="http://www.w3.org/2000/svg">
  <path
    d="M201.79 206.294H129.137H15.5442C10.2612 206.294 5.97852 202.012 5.97852 196.729V42.0829C5.97852 36.7999 10.2612 32.5172 15.5442 32.5172L240.339 32.5172C245.621 32.5172 249.904 36.7999 249.904 42.0829V196.729C249.904 202.012 245.621 206.294 240.338 206.294H219.812"
    stroke="#1A1B1C" stroke-width="3.18857" stroke-linecap="round"/>
  <path d="M5.97852 271.826H272.224" stroke="#1A1B1C" stroke-width="3.18857" stroke-linecap="round"
        stroke-linejoin="round"/>
  <path
    d="M249.284 185.958C262.627 204.412 272.308 271.825 272.308 271.825H237.705C237.705 271.825 251.945 264.218 258.222 256.896C255.624 244.745 228.843 182.568 228.843 182.568"
    fill="#F5F3ED"/>
  <path
    d="M249.284 185.958C262.627 204.412 272.308 271.825 272.308 271.825H237.705C237.705 271.825 251.945 264.218 258.222 256.896C255.624 244.745 228.843 182.568 228.843 182.568"
    stroke="#1A1B1C" stroke-width="3.18857" stroke-linecap="round" stroke-linejoin="round"/>
  <path
    d="M220.31 182.568C222.003 203.111 209.289 271.826 209.289 271.826H178.582C178.582 271.826 190.329 263.614 198.929 255.99C203.117 246.574 202.656 181.604 202.656 181.604"
    stroke="#1A1B1C" stroke-width="3.18857" stroke-linecap="round" stroke-linejoin="round"/>
  <path
    d="M253.634 72.0727C253.634 73.3716 252.661 88.0396 250.885 108.795C249.109 129.551 256.137 191.321 256.137 191.321H192.632C192.632 191.321 213.753 115.122 215.854 103.691C214.954 82.4585 212.451 72.0727 212.451 72.0727C212.451 72.0727 216.878 67.5981 221.888 67.5981H243.264C247.309 67.5981 253.634 72.0727 253.634 72.0727Z"
    fill="#1A1B1C" stroke="#1A1B1C" stroke-width="3.18857" stroke-linecap="round" stroke-linejoin="round"/>
  <path
    d="M276.042 112.994C272.71 96.4871 256.541 72.7834 251.055 70.3119C245.568 67.8404 246.921 75.4449 248.212 81.5893C249.502 88.5568 260 98.4084 265.772 108.817C259.037 107.068 249.815 105.272 245.59 104.854C238.64 104.165 229.397 107.59 232.296 112.337C235.194 117.085 244.909 112.994 248.212 112.994C265.725 119.286 278.199 123.677 276.042 112.994Z"
    fill="#F5F3ED"/>
  <path
    d="M251.055 70.3119L250.4 71.7655L251.055 70.3119ZM276.042 112.994L277.605 112.678L276.042 112.994ZM248.212 112.994V111.4C248.396 111.4 248.578 111.431 248.751 111.493L248.212 112.994ZM232.296 112.337L230.935 113.168L232.296 112.337ZM245.59 104.854L245.433 106.44L245.59 104.854ZM265.772 108.817L267.166 108.044C267.476 108.601 267.423 109.289 267.032 109.793C266.642 110.297 265.989 110.52 265.371 110.36L265.772 108.817ZM248.212 81.5893L249.772 81.2616C249.775 81.274 249.777 81.2865 249.779 81.299L248.212 81.5893ZM251.709 68.8583C252.642 69.2782 253.65 70.0665 254.66 71.0178C255.696 71.9938 256.837 73.2397 258.033 74.6861C260.428 77.5807 263.109 81.3525 265.711 85.5496C270.895 93.9108 275.884 104.152 277.605 112.678L274.479 113.309C272.868 105.329 268.107 95.4649 263.001 87.2297C260.459 83.1286 257.861 79.4794 255.576 76.7186C254.434 75.3373 253.385 74.1969 252.474 73.3391C251.537 72.4566 250.839 71.9635 250.4 71.7655L251.709 68.8583ZM277.605 112.678C278.181 115.534 277.913 118.021 276.113 119.588C274.432 121.051 271.916 121.226 269.33 120.944C264.056 120.37 256.341 117.609 247.673 114.494L248.751 111.493C257.596 114.671 264.874 117.251 269.676 117.775C272.128 118.042 273.421 117.704 274.019 117.183C274.499 116.765 274.981 115.795 274.479 113.309L277.605 112.678ZM248.212 114.588C247.598 114.588 246.566 114.793 245.078 115.117C243.679 115.421 241.994 115.801 240.314 116.026C238.645 116.25 236.847 116.342 235.217 116.004C233.551 115.658 231.953 114.835 230.935 113.168L233.656 111.506C234.088 112.213 234.791 112.659 235.865 112.882C236.975 113.112 238.355 113.071 239.89 112.866C241.414 112.662 242.958 112.315 244.4 112.001C245.753 111.706 247.174 111.4 248.212 111.4V114.588ZM230.935 113.168C229.917 111.501 229.922 109.771 230.794 108.268C231.59 106.896 233.017 105.867 234.555 105.122C237.66 103.62 242.006 102.897 245.748 103.267L245.433 106.44C242.225 106.122 238.474 106.768 235.944 107.992C234.666 108.611 233.89 109.285 233.552 109.868C233.289 110.321 233.225 110.799 233.656 111.506L230.935 113.168ZM245.748 103.267C250.086 103.697 259.397 105.514 266.173 107.274L265.371 110.36C258.678 108.621 249.544 106.847 245.433 106.44L245.748 103.267ZM264.378 109.59C261.562 104.513 257.593 99.5702 254.04 94.8747C252.283 92.5534 250.627 90.2881 249.326 88.1474C248.034 86.0225 247.019 83.9045 246.644 81.8796L249.779 81.299C250.05 82.7578 250.83 84.484 252.051 86.4912C253.261 88.4825 254.832 90.6371 256.582 92.9507C260.044 97.5251 264.21 102.712 267.166 108.044L264.378 109.59ZM246.652 81.9169C246.02 78.9092 245.295 75.2292 245.503 72.5943C245.602 71.3306 245.948 69.7853 247.167 68.885C248.5 67.9004 250.165 68.1625 251.709 68.8583L250.4 71.7655C249.828 71.508 249.459 71.4354 249.25 71.4282C249.152 71.4248 249.1 71.4363 249.081 71.4416C249.065 71.4462 249.062 71.4492 249.062 71.4495C249.031 71.472 248.768 71.7485 248.681 72.845C248.517 74.9306 249.113 78.125 249.772 81.2616L246.652 81.9169Z"
    fill="#1A1B1C"/>
  <path
    d="M212.228 72.3459C207.281 78.1807 205.744 104.376 203.324 108.968C200.904 113.561 190.479 123.235 183.89 127.093C177.301 130.95 168.808 135.305 171.113 138.941C173.417 142.576 184.284 138.152 190.453 133.791C196.114 129.789 209.456 119.313 213.591 110.846C217.726 102.379 218.822 75.5766 218.822 75.5766"
    stroke="#1A1B1C" stroke-width="3.18857" stroke-linecap="round" stroke-linejoin="round"/>
  <path d="M215.353 120.625H245.888" stroke="#F5F3ED" stroke-width="3.18857" stroke-linecap="round"
        stroke-linejoin="round"/>
  <circle cx="19.9285" cy="45.6701" r="4.38429" fill="#1A1B1C"/>
  <circle cx="33.48" cy="45.6701" r="4.38429" fill="#1A1B1C"/>
  <circle cx="47.0315" cy="45.6701" r="4.38429" fill="#1A1B1C"/>
  <path
    d="M221.361 33.4747C216.865 39.2432 212.054 57.1338 218.274 60.7585C222.56 63.2549 228.075 59.0308 228.075 59.0308L230.039 68.8259"
    stroke="#1A1B1C" stroke-width="3.18857" stroke-linecap="round" stroke-linejoin="round"/>
  <path
    d="M223.742 38.8466C233.993 48.8195 229.042 68.5152 248.205 60.9705C258.024 57.1042 255.096 53.1188 249.971 46.116C244.845 39.1132 243.657 40.761 241.688 34.8209C239.719 28.8808 229.461 28.3037 223.742 31.3723C218.023 34.4409 223.742 38.8466 223.742 38.8466Z"
    fill="#1A1B1C" stroke="#1A1B1C" stroke-width="3.18857" stroke-linecap="round" stroke-linejoin="round"/>
  <circle cx="118.497" cy="112.552" r="3.50835" fill="#1A1B1C"/>
  <circle cx="138.769" cy="112.552" r="3.50835" fill="#1A1B1C"/>
  <path d="M141.067 131.065C135.415 123.702 121.849 123.702 116.197 131.065" stroke="#1A1B1C" stroke-width="3.18857"
        stroke-linecap="round"/>
  <path
    d="M140.654 89.0304C136.742 87.3915 132.448 86.4861 127.941 86.4861C109.76 86.4861 95.0215 101.225 95.0215 119.406C95.0215 137.587 109.76 152.326 127.941 152.326C146.122 152.326 160.861 137.587 160.861 119.406C160.861 112.17 158.526 105.479 154.569 100.045"
    stroke="#1A1B1C" stroke-width="3.18857" stroke-linecap="round"/>
</svg>
