    <svg width="48" height="48" viewBox="0 0 48 48" fill="none" xmlns="http://www.w3.org/2000/svg">
      <path d="M43.8794 40.8649C43.8794 41.6933 44.551 42.3649 45.3794 42.3649C46.2078 42.3649 46.8794 41.6933 46.8794 40.8649L43.8794 40.8649ZM28.6831 40.8649C28.6831 41.6933 29.3546 42.3649 30.1831 42.3649C31.0115 42.3649 31.6831 41.6933 31.6831 40.8649L28.6831 40.8649ZM43.8794 39.4966L43.8794 40.8649L46.8794 40.8649L46.8794 39.4966L43.8794 39.4966ZM31.6831 40.8649L31.6831 39.4966L28.6831 39.4966L28.6831 40.8649L31.6831 40.8649ZM36.1831 34.9966L39.3794 34.9966L39.3794 31.9966L36.1831 31.9966L36.1831 34.9966ZM31.6831 39.4966C31.6831 37.0113 33.6978 34.9966 36.1831 34.9966L36.1831 31.9966C32.0409 31.9966 28.6831 35.3544 28.6831 39.4966L31.6831 39.4966ZM46.8794 39.4966C46.8794 35.3544 43.5215 31.9966 39.3794 31.9966L39.3794 34.9966C41.8647 34.9966 43.8794 37.0113 43.8794 39.4966L46.8794 39.4966Z" fill="#00857C"/>
      <path d="M28.6831 40.2645C28.6831 41.0929 29.3547 41.7645 30.1831 41.7645C31.0115 41.7645 31.6831 41.0929 31.6831 40.2645L28.6831 40.2645ZM1.12028 40.2645C1.12028 41.0929 1.79186 41.7645 2.62028 41.7645C3.44871 41.7645 4.12028 41.0929 4.12028 40.2645L1.12028 40.2645ZM28.6831 39.8553L28.6831 40.2645L31.6831 40.2645L31.6831 39.8553L28.6831 39.8553ZM4.12028 40.2645L4.12028 39.8553L1.12028 39.8553L1.12028 40.2645L4.12028 40.2645ZM13.503 30.4727L19.3004 30.4727L19.3004 27.4727L13.503 27.4727L13.503 30.4727ZM4.12028 39.8553C4.12028 34.6734 8.32105 30.4727 13.503 30.4727L13.503 27.4727C6.6642 27.4727 1.12028 33.0166 1.12028 39.8553L4.12028 39.8553ZM31.6831 39.8553C31.6831 33.0166 26.1392 27.4727 19.3004 27.4727L19.3004 30.4727C24.4823 30.4727 28.6831 34.6734 28.6831 39.8553L31.6831 39.8553Z" fill="#00857C"/>
      <circle cx="37.7814" cy="22.8532" r="4.84901" stroke="#00857C" stroke-width="2.9"/>
      <path d="M23.3315 16.5544C23.3315 20.3214 20.2431 23.4005 16.4019 23.4005C12.5606 23.4005 9.47217 20.3214 9.47217 16.5544C9.47217 12.7874 12.5606 9.70825 16.4019 9.70825C20.2431 9.70825 23.3315 12.7874 23.3315 16.5544Z" stroke="#00857C" stroke-width="3"/>
    </svg>
