
<svg width="48" height="48" viewBox="0 0 48 48" fill="none" xmlns="http://www.w3.org/2000/svg">
    <path d="M37.9678 36.5493C37.9678 37.3777 38.6393 38.0493 39.4678 38.0493C40.2962 38.0493 40.9678 37.3777 40.9678 36.5493L37.9678 36.5493ZM7.03311 36.5493C7.03311 37.3777 7.70468 38.0493 8.53311 38.0493C9.36154 38.0493 10.0331 37.3777 10.0331 36.5493L7.03311 36.5493ZM37.9678 32.4844L37.9678 36.5493L40.9678 36.5493L40.9678 32.4844L37.9678 32.4844ZM10.0331 36.5493L10.0331 32.4844L7.03311 32.4844L7.03311 36.5493L10.0331 36.5493ZM16.5331 25.9844L31.4678 25.9844L31.4678 22.9844L16.5331 22.9844L16.5331 25.9844ZM10.0331 32.4844C10.0331 28.8945 12.9433 25.9844 16.5331 25.9844L16.5331 22.9844C11.2864 22.9844 7.03311 27.2377 7.03311 32.4844L10.0331 32.4844ZM40.9678 32.4844C40.9678 27.2377 36.7145 22.9844 31.4678 22.9844L31.4678 25.9844C35.0576 25.9844 37.9678 28.8945 37.9678 32.4844L40.9678 32.4844Z" fill="#00857C"/>
    <circle cx="24" cy="12.0146" r="6.5" stroke="#00857C" stroke-width="3"/>
</svg>
