
<svg width="48" height="48" viewBox="0 0 48 48" fill="none" xmlns="http://www.w3.org/2000/svg">
    <path d="M22.4104 40.0001C22.4104 40.8285 23.082 41.5001 23.9104 41.5001C24.7388 41.5001 25.4104 40.8285 25.4104 40.0001L22.4104 40.0001ZM0.500032 40.0001C0.500032 40.8285 1.17161 41.5001 2.00003 41.5001C2.82846 41.5001 3.50003 40.8285 3.50003 40.0001L0.500032 40.0001ZM22.4104 39.0953L22.4104 40.0001L25.4104 40.0001L25.4104 39.0953L22.4104 39.0953ZM3.50003 40.0001L3.50003 39.0953L0.500032 39.0953L0.500032 40.0001L3.50003 40.0001ZM9.90908 32.6863L16.0013 32.6863L16.0013 29.6863L9.90908 29.6863L9.90908 32.6863ZM3.50003 39.0953C3.50003 35.5557 6.36946 32.6863 9.90908 32.6863L9.90908 29.6863C4.71261 29.6863 0.500032 33.8989 0.500032 39.0953L3.50003 39.0953ZM25.4104 39.0953C25.4104 33.8989 21.1978 29.6863 16.0013 29.6863L16.0013 32.6863C19.541 32.6863 22.4104 35.5557 22.4104 39.0953L25.4104 39.0953Z" fill="#00857C"/>
    <path d="M44.3196 40.0001C44.3196 40.8285 44.9912 41.5001 45.8196 41.5001C46.648 41.5001 47.3196 40.8285 47.3196 40.0001L44.3196 40.0001ZM22.4092 40.0001C22.4092 40.8285 23.0808 41.5001 23.9092 41.5001C24.7376 41.5001 25.4092 40.8285 25.4092 40.0001L22.4092 40.0001ZM23.9092 39.0953L22.4092 39.0953L22.4092 39.0953L23.9092 39.0953ZM44.3196 39.0953L44.3196 40.0001L47.3196 40.0001L47.3196 39.0953L44.3196 39.0953ZM25.4092 40.0001L25.4092 39.0953L22.4092 39.0953L22.4092 40.0001L25.4092 40.0001ZM31.8183 32.6863L37.9105 32.6863L37.9105 29.6863L31.8183 29.6863L31.8183 32.6863ZM25.4092 39.0953C25.4092 35.5557 28.2786 32.6863 31.8183 32.6863L31.8183 29.6863C26.6218 29.6863 22.4092 33.8988 22.4092 39.0953L25.4092 39.0953ZM47.3196 39.0953C47.3196 33.8989 43.107 29.6863 37.9105 29.6863L37.9105 32.6863C41.4501 32.6863 44.3196 35.5557 44.3196 39.0953L47.3196 39.0953Z" fill="#00857C"/>
    <circle cx="12.9486" cy="16.909" r="6.40905" stroke="#00857C" stroke-width="3"/>
    <circle cx="34.859" cy="16.909" r="6.40905" stroke="#00857C" stroke-width="3"/>
</svg>
