
    <svg xmlns="http://www.w3.org/2000/svg" width="48" height="48" viewBox="0 0 48 48" fill="none">
      <path d="M43.4546 16.5421L44.9546 16.5421C44.9546 16.0158 44.6788 15.528 44.2278 15.2567L43.4546 16.5421ZM43.4546 40.5396L43.4546 42.0396C44.283 42.0396 44.9546 41.368 44.9546 40.5396L43.4546 40.5396ZM3.05486 40.5396C3.05486 41.368 3.72643 42.0396 4.55486 42.0396C5.38329 42.0396 6.05486 41.368 6.05486 40.5396L3.05486 40.5396ZM4.55487 16.5421L3.78595 15.2541C3.33254 15.5248 3.05487 16.014 3.05487 16.5421L4.55487 16.5421ZM13.5 39.0396C12.6716 39.0396 12 39.7111 12 40.5396C12 41.368 12.6716 42.0396 13.5 42.0396L13.5 39.0396ZM24.0781 4.88623L24.8513 3.60087C24.3771 3.31561 23.7843 3.31462 23.3091 3.5983L24.0781 4.88623ZM41.9546 16.5421L41.9546 40.5396L44.9546 40.5396L44.9546 16.5421L41.9546 16.5421ZM6.05486 40.5396L6.05487 16.5421L3.05487 16.5421L3.05486 40.5396L6.05486 40.5396ZM43.4546 39.0396L13.5 39.0396L13.5 42.0396L43.4546 42.0396L43.4546 39.0396ZM5.32379 17.83L24.847 6.17416L23.3091 3.5983L3.78595 15.2541L5.32379 17.83ZM23.3049 6.17159L42.6814 17.8274L44.2278 15.2567L24.8513 3.60087L23.3049 6.17159Z" fill="#00857C"/>
      <path d="M22.849 30.0261L21.8182 31.1158C22.4164 31.6818 23.3592 31.6596 23.9301 31.066L22.849 30.0261ZM18.8362 24.1647C18.2344 23.5953 17.285 23.6216 16.7157 24.2234C16.1463 24.8252 16.1726 25.7746 16.7744 26.3439L18.8362 24.1647ZM31.8863 22.7941C32.4605 22.197 32.4421 21.2475 31.845 20.6732C31.2479 20.0989 30.2984 20.1174 29.7241 20.7144L31.8863 22.7941ZM23.8799 28.9365L18.8362 24.1647L16.7744 26.3439L21.8182 31.1158L23.8799 28.9365ZM23.9301 31.066L31.8863 22.7941L29.7241 20.7144L21.768 28.9863L23.9301 31.066Z" fill="#00857C"/>
    </svg>
