
    <svg width="48" height="48" viewBox="0 0 48 48" fill="none" xmlns="http://www.w3.org/2000/svg">
      <path d="M11.2568 14.0361C10.4284 14.0361 9.75684 14.7077 9.75684 15.5361C9.75684 16.3646 10.4284 17.0361 11.2568 17.0361L11.2568 14.0361ZM36.7429 17.0361C37.5713 17.0361 38.2429 16.3646 38.2429 15.5361C38.2429 14.7077 37.5713 14.0361 36.7429 14.0361L36.7429 17.0361ZM11.2568 17.0361L36.7429 17.0361L36.7429 14.0361L11.2568 14.0361L11.2568 17.0361Z" fill="#00857C"/>
      <path d="M18.7148 20.0098C17.8864 20.0098 17.2148 20.6813 17.2148 21.5098C17.2148 22.3382 17.8864 23.0098 18.7148 23.0098V20.0098ZM29.2848 23.0098C30.1132 23.0098 30.7848 22.3382 30.7848 21.5098C30.7848 20.6813 30.1132 20.0098 29.2848 20.0098V23.0098ZM18.7148 23.0098H29.2848V20.0098H18.7148V23.0098Z" fill="#00857C"/>
      <path d="M43.3555 7.53223L44.8555 7.53223C44.8555 6.7038 44.1839 6.03223 43.3555 6.03223L43.3555 7.53223ZM43.3555 40.577L43.3555 42.077C44.1839 42.077 44.8555 41.4054 44.8555 40.577L43.3555 40.577ZM3.01732 40.577C3.01732 41.4054 3.6889 42.077 4.51732 42.077C5.34575 42.077 6.01732 41.4054 6.01732 40.577L3.01732 40.577ZM4.51733 7.53222L4.51733 6.03222C3.6889 6.03222 3.01733 6.7038 3.01733 7.53222L4.51733 7.53222ZM12.4998 39.077C11.6713 39.077 10.9998 39.7485 10.9998 40.577C10.9998 41.4054 11.6713 42.077 12.4998 42.077L12.4998 39.077ZM41.8555 7.53223L41.8555 40.577L44.8555 40.577L44.8555 7.53223L41.8555 7.53223ZM6.01732 40.577L6.01733 7.53223L3.01733 7.53222L3.01732 40.577L6.01732 40.577ZM4.51733 9.03222L43.3555 9.03223L43.3555 6.03223L4.51733 6.03222L4.51733 9.03222ZM43.3555 39.077L12.4998 39.077L12.4998 42.077L43.3555 42.077L43.3555 39.077Z" fill="#00857C"/>
    </svg>

