<svg width="32" height="32" viewBox="0 0 32 32" fill="none" xmlns="http://www.w3.org/2000/svg">
<circle cx="21.9082" cy="9.4526" r="7.03708" stroke="#00857C" stroke-width="2"/>
<circle cx="7.81957" cy="18.0017" r="5.67308" stroke="#00857C" stroke-width="2"/>
<circle cx="21.4254" cy="25.3058" r="4.31016" stroke="#00857C" stroke-width="2"/>
<path d="M19.3809 8.45166C18.8286 8.45166 18.3809 8.89938 18.3809 9.45166C18.3809 10.0039 18.8286 10.4517 19.3809 10.4517V8.45166ZM24.4352 10.4517C24.9874 10.4517 25.4352 10.0039 25.4352 9.45166C25.4352 8.89938 24.9874 8.45166 24.4352 8.45166V10.4517ZM19.3809 10.4517H24.4352V8.45166H19.3809V10.4517Z" fill="#00857C"/>
<path d="M22.9082 6.92529C22.9082 6.37301 22.4605 5.92529 21.9082 5.92529C21.3559 5.92529 20.9082 6.37301 20.9082 6.92529L22.9082 6.92529ZM20.9082 11.9796C20.9082 12.5319 21.3559 12.9796 21.9082 12.9796C22.4605 12.9796 22.9082 12.5319 22.9082 11.9796L20.9082 11.9796ZM20.9082 6.92529L20.9082 11.9796L22.9082 11.9796L22.9082 6.92529L20.9082 6.92529Z" fill="#00857C"/>
</svg>
