<svg viewBox="0 0 72 72" fill="none" xmlns="http://www.w3.org/2000/svg">
  <g opacity="0.35">
    <path d="M23.8069 61H12.5C11.6716 61 11 60.3284 11 59.5V48.1212M48.2394 61H59.4167C60.2451 61 60.9167 60.3284 60.9167 59.5V48.1591M11 23.7914V12.5C11 11.6716 11.6716 11 12.5 11H23.8788M48.1212 11H59.5C60.3284 11 61 11.6716 61 12.5V23.8788" stroke="#1A1B1C" stroke-width="4" stroke-linecap="round"/>
    <path d="M47 49C47 50.1046 47.8954 51 49 51C50.1046 51 51 50.1046 51 49L47 49ZM21 49C21 50.1046 21.8954 51 23 51C24.1046 51 25 50.1046 25 49L21 49ZM47 48L47 49L51 49L51 48L47 48ZM25 49L25 48L21 48L21 49L25 49ZM31 42L41 42L41 38L31 38L31 42ZM25 48C25 44.6863 27.6863 42 31 42L31 38C25.4772 38 21 42.4772 21 48L25 48ZM51 48C51 42.4772 46.5228 38 41 38L41 42C44.3137 42 47 44.6863 47 48L51 48Z" fill="#1A1B1C"/>
    <circle cx="35.9941" cy="27.0381" r="5.5" stroke="#1A1B1C" stroke-width="4"/>
  </g>
</svg>
