<svg viewBox="0 0 72 72" fill="none" xmlns="http://www.w3.org/2000/svg">
  <g opacity="0.35">
    <path d="M12.0005 7.00012C12.0005 5.89555 11.1051 5.00012 10.0005 5.00012C8.89592 5.00012 8.00049 5.89555 8.00049 7.00012L12.0005 7.00012ZM62.0005 7.00012L64.0005 7.00012C64.0005 6.46969 63.7898 5.96098 63.4147 5.58591C63.0396 5.21084 62.5309 5.00012 62.0005 5.00012L62.0005 7.00012ZM36.0005 69.0001L34.8205 70.6149C35.5233 71.1285 36.4777 71.1285 37.1805 70.6149L36.0005 69.0001ZM20.0005 5.00013C18.8959 5.00013 18.0005 5.89556 18.0005 7.00013C18.0005 8.10469 18.8959 9.00013 20.0005 9.00013L20.0005 5.00013ZM62.0005 41.8096L64.0005 41.8096L62.0005 41.8096ZM55.3875 54.8327L56.5675 56.4475L55.3875 54.8327ZM12.0005 41.8096L12.0005 7.00012L8.00049 7.00012L8.00049 41.8096L12.0005 41.8096ZM60.0005 7.00012L60.0005 41.8096L64.0005 41.8096L64.0005 7.00012L60.0005 7.00012ZM54.2075 53.2179L34.8205 67.3853L37.1805 70.6149L56.5675 56.4475L54.2075 53.2179ZM37.1805 67.3853L17.7935 53.2179L15.4334 56.4475L34.8205 70.6149L37.1805 67.3853ZM20.0005 9.00013L62.0005 9.00012L62.0005 5.00012L20.0005 5.00013L20.0005 9.00013ZM60.0005 41.8096C60.0005 46.3189 57.8482 50.5573 54.2075 53.2179L56.5675 56.4475C61.239 53.0337 64.0005 47.5954 64.0005 41.8096L60.0005 41.8096ZM8.00049 41.8096C8.00049 47.5954 10.762 53.0337 15.4334 56.4475L17.7935 53.2179C14.1527 50.5573 12.0005 46.3189 12.0005 41.8096L8.00049 41.8096Z" fill="#1A1B1C"/>
    <path d="M25 33.9998L33 41.9998L47 25.9998" stroke="#1A1B1C" stroke-width="3.85714" stroke-linecap="round" stroke-linejoin="round"/>
  </g>
</svg>
