<svg viewBox="0 0 72 72" fill="none" xmlns="http://www.w3.org/2000/svg">
  <g opacity="0.35">
    <path d="M31 65L53.5 65C57.6421 65 61 61.6421 61 57.5L61 33.5C61 29.3579 57.6421 26 53.5 26L18.5 26C14.3579 26 11 29.3579 11 33.5L11 57.5C11 61.6421 14.3579 65 18.5 65L21 65" stroke="#1A1B1C" stroke-width="4.5" stroke-linecap="round" stroke-linejoin="round"/>
    <path d="M23.7505 26C23.7505 27.2426 24.7578 28.25 26.0005 28.25C27.2431 28.25 28.2505 27.2426 28.2505 26L23.7505 26ZM43.7505 26C43.7505 27.2426 44.7578 28.25 46.0005 28.25C47.2431 28.25 48.2505 27.2426 48.2505 26L43.7505 26ZM28.2505 26L28.2505 17L23.7505 17L23.7505 26L28.2505 26ZM43.7505 17L43.7505 26L48.2505 26L48.2505 17L43.7505 17ZM28.2505 17C28.2505 12.7198 31.7203 9.25 36.0005 9.25L36.0005 4.75C29.235 4.75 23.7505 10.2345 23.7505 17L28.2505 17ZM36.0005 9.25C40.2807 9.25 43.7505 12.7198 43.7505 17L48.2505 17C48.2505 10.2345 42.766 4.75 36.0005 4.75L36.0005 9.25Z" fill="#1A1B1C"/>
    <path d="M38.25 39C38.25 37.7574 37.2426 36.75 36 36.75C34.7574 36.75 33.75 37.7574 33.75 39L38.25 39ZM33.75 52C33.75 53.2426 34.7574 54.25 36 54.25C37.2426 54.25 38.25 53.2426 38.25 52L33.75 52ZM33.75 39L33.75 52L38.25 52L38.25 39L33.75 39Z" fill="#1A1B1C"/>
  </g>
</svg>
