<svg viewBox="0 0 600 370" fill="none" xmlns="http://www.w3.org/2000/svg">
  <path d="M137.5 312.5L483 312.5" stroke="black" stroke-width="3" stroke-linecap="round" stroke-linejoin="round"/>
  <path d="M170.815 163.992L218.531 296.434L240.303 312.328H206.803L207.13 298.809H201.078L144.889 177.511" stroke="black" stroke-width="3" stroke-linecap="round" stroke-linejoin="round"/>
  <path d="M134.393 165.771L132.662 298.273H140.23L137.234 312.513H173.115L152.113 296.107L159.962 210.06" stroke="black" stroke-width="3" stroke-linecap="round" stroke-linejoin="round"/>
  <path d="M142.117 98.336C148.382 90.1245 139.088 85.5844 138.225 78.8844C137.362 72.1843 139.737 60.9442 150.548 63.3243C161.36 65.7044 167.572 94.4445 154.279 90.6957L155.112 99.4725" stroke="black" stroke-width="3" stroke-linecap="round" stroke-linejoin="round"/>
  <path d="M150.138 95.9561C161.818 96.8189 175.677 136.591 175.677 136.591L212.851 161.503L207.289 170.958L172.273 152.169V168.235H129.478C129.478 168.235 123.998 94.0222 150.138 95.9561Z" fill="black" stroke="black" stroke-width="3" stroke-linecap="round" stroke-linejoin="round"/>
  <path d="M205.76 173.878C205.76 173.878 169.995 154.462 164.325 148.155C158.654 141.848 147.954 117.46 147.954 117.46" stroke="white" stroke-width="3" stroke-linecap="round" stroke-linejoin="round"/>
  <path d="M208.737 169.84C208.737 169.84 228.611 186.986 229.749 182.419C230.887 177.852 220.012 166.137 217.636 164.442C215.259 162.747 212.367 161.946 212.367 161.946" stroke="black" stroke-width="3" stroke-linecap="round" stroke-linejoin="round"/>
  <path d="M159.664 95.7955C159.664 95.7955 163.77 99.4371 167.995 106.708C176.825 99.568 186.691 84.4483 186.691 84.4483L181.264 77.5459L159.664 95.7955Z" fill="black" stroke="black" stroke-width="3" stroke-linecap="round" stroke-linejoin="round"/>
  <path d="M181.258 77.5462C181.258 77.5462 193.657 60.0062 196.247 62.9441C198.837 65.882 191.002 81.551 188.321 82.7759L185.399 84.5015" stroke="black" stroke-width="3" stroke-linecap="round" stroke-linejoin="round"/>
  <path d="M145.972 83.2954C148.024 86.8875 145.238 90.4064 143.406 89.9665C139.051 81.4436 131.54 82.2229 134.508 77.4326C131.184 76.5421 132.023 72.552 134.508 72.1262C131.95 70.5333 132.143 66.2371 136.101 65.8027C135.136 61.8927 138.035 60.1887 141.701 61.3617C141.701 56.5828 146.48 57.5964 147.928 60.1066C148.845 58.2723 152.457 57.5916 152.786 61.3617C155.746 58.4562 160.344 63.8172 156.287 67.2709C149.709 69.6281 146.474 71.492 148.941 77.9608C144.665 77.9608 143.919 79.7033 145.972 83.2954Z" fill="black" stroke="black" stroke-width="2" stroke-linejoin="round"/>
  <path d="M395.171 55.8848C390.996 61.577 386.528 79.2312 392.304 82.808C396.285 85.2714 401.406 81.1031 401.406 81.1031L403.229 90.7687" stroke="black" stroke-width="3" stroke-linecap="round" stroke-linejoin="round"/>
  <path d="M397.614 61.1946C407.467 71.0551 402.485 98.9873 420.905 91.5276C429.325 88.1248 424.154 76.5386 419.228 69.6147C414.301 62.6908 416.757 63.0874 414.864 57.2143C412.972 51.3411 403.111 50.7705 397.614 53.8045C392.116 56.8385 397.614 61.1946 397.614 61.1946Z" fill="black" stroke="black" stroke-width="3" stroke-linecap="round" stroke-linejoin="round"/>
  <path d="M439.497 193.303C444.16 189.1 444.953 182.343 442.232 171.981L434.074 137.537C434.074 137.537 433.806 106.315 432.275 101.882C428.442 90.7832 423.055 90.7832 409.165 90.7832C395.276 90.7832 389.364 92.8568 385.154 96.6772C378.773 102.453 374.698 139.639 374.698 139.639C374.698 139.639 367.646 167.378 359.321 175.963C353.628 182.961 350.334 194.199 352.862 194.788C355.391 195.377 357.625 189.567 365.504 182.009C373.384 174.451 378.321 157.785 383.631 145.398C386.505 138.697 390.286 116.022 390.286 116.022" stroke="black" stroke-width="3" stroke-linecap="round" stroke-linejoin="round"/>
  <path d="M423.083 104.805L425.449 137.03H395.164L387.941 105.939" stroke="black" stroke-width="3" stroke-linecap="round" stroke-linejoin="round"/>
  <path d="M369.438 269.726C374.019 226.204 372.408 176.778 395.157 137.023H425.435L455.615 269.726H369.438Z" fill="black" stroke="black" stroke-width="3" stroke-linecap="round" stroke-linejoin="round"/>
  <path d="M379.82 111.04H387.941" stroke="black" stroke-width="3" stroke-linecap="round" stroke-linejoin="round"/>
  <path d="M424.453 111.04H432.574" stroke="black" stroke-width="3" stroke-linecap="round" stroke-linejoin="round"/>
  <path d="M453.554 260.86L461.933 296.934L483 312.5" stroke="black" stroke-width="3" stroke-linecap="round" stroke-linejoin="round"/>
  <path d="M453.527 310.427C453.527 310.427 453.012 301.854 450.855 295.765C446.777 284.235 436.499 266.789 434.676 253.554" stroke="black" stroke-width="3" stroke-linecap="round" stroke-linejoin="round"/>
  <path d="M406.399 310.428C406.399 310.428 404.479 300.386 403.73 296.165C403.73 287.197 405.595 278.154 405.378 265.005" stroke="black" stroke-width="3" stroke-linecap="round" stroke-linejoin="round"/>
  <path d="M391.482 310.427C391.482 310.427 391.866 304.418 393.451 299.062C393.273 291.764 391.427 274.763 392.343 267.434" stroke="black" stroke-width="3" stroke-linecap="round" stroke-linejoin="round"/>
  <path d="M218 149L218 87.9784L267.185 58L316 87.9784L316 149L228.5 149" stroke="#050505" stroke-width="3" stroke-linecap="round" stroke-linejoin="round"/>
  <path d="M258.425 99.6494L292.725 99.6494" stroke="black" stroke-width="3" stroke-linecap="round" stroke-linejoin="round"/>
  <circle cx="245" cy="100" r="3" fill="black"/>
  <circle cx="245" cy="114.35" r="3" fill="black"/>
  <circle cx="245" cy="129.049" r="3" fill="black"/>
  <path d="M258.425 114.35L292.725 114.35" stroke="black" stroke-width="3" stroke-linecap="round" stroke-linejoin="round"/>
  <path d="M258.425 129.05L292.725 129.05" stroke="black" stroke-width="3" stroke-linecap="round" stroke-linejoin="round"/>
</svg>
