<svg viewBox="0 0 620 336" fill="none" xmlns="http://www.w3.org/2000/svg">
  <circle cx="316.943" cy="192.021" r="16.8687" fill="black" stroke="black" stroke-width="3" stroke-linecap="round" stroke-linejoin="round"/>
  <path d="M322.218 198.965C322.218 199.711 322.822 200.315 323.568 200.315C324.313 200.315 324.918 199.711 324.918 198.965L322.218 198.965ZM308.968 198.965C308.968 199.711 309.573 200.315 310.318 200.315C311.064 200.315 311.668 199.711 311.668 198.965L308.968 198.965ZM322.218 198.549L322.218 198.965L324.918 198.965L324.918 198.549L322.218 198.549ZM311.668 198.965L311.668 198.549L308.968 198.549L308.968 198.965L311.668 198.965ZM314.318 195.899L319.568 195.899L319.568 193.199L314.318 193.199L314.318 195.899ZM311.668 198.549C311.668 197.085 312.855 195.899 314.318 195.899L314.318 193.199C311.364 193.199 308.968 195.594 308.968 198.549L311.668 198.549ZM324.918 198.549C324.918 195.594 322.522 193.199 319.568 193.199L319.568 195.899C321.031 195.899 322.218 197.085 322.218 198.549L324.918 198.549Z" fill="white"/>
  <circle cx="316.943" cy="186.6" r="3.06642" stroke="white" stroke-width="2.7"/>
  <path d="M90.5 306.857L528.066 306.857" stroke="black" stroke-width="3" stroke-linecap="round" stroke-linejoin="round"/>
  <path d="M333.67 191.971H367.116" stroke="black" stroke-width="3" stroke-linecap="round" stroke-linejoin="round"/>
  <path d="M211.364 235.1C214.392 235.63 224.489 247.443 225.353 255.485" stroke="black" stroke-width="3" stroke-linecap="round" stroke-linejoin="round"/>
  <path d="M158.131 189.793C161.709 212.157 177.817 249.6 184.658 262.032" stroke="black" stroke-width="3" stroke-linecap="round" stroke-linejoin="round"/>
  <path d="M354.706 111.668C342.849 111.668 335.172 117.71 330.482 123.825H351.952C362.687 134.928 375.991 135.977 374.912 128.964C373.123 117.335 366.563 111.668 354.706 111.668Z" stroke="black" stroke-width="3" stroke-linecap="round" stroke-linejoin="round"/>
  <path d="M220.637 117.057C224.647 128.586 226.139 130.611 228.355 138.534C238.758 141.554 264.283 145.586 266.968 154.311" stroke="black" stroke-width="3" stroke-linecap="round" stroke-linejoin="round"/>
  <path d="M187.646 84.2695C187.9 91.5102 187.618 106.885 186.49 118.462C185.211 121.872 182.653 129.227 181.48 135.089C172.755 140.123 129.36 141.554 124.326 161.018C119.293 180.482 129.024 213.368 146.474 252.967C163.925 292.565 174.466 299.002 184.73 299.528C197.818 300.199 237.323 235.718 245.135 232.496C266.968 223.491 280.767 224.107 284.123 218.402C286.832 213.797 280.754 209.518 271.792 207.222C262.831 204.925 242.335 201.377 226.342 218.402C218.02 227.261 194.015 253.052 184.73 262.001" stroke="black" stroke-width="3" stroke-linecap="round" stroke-linejoin="round"/>
  <path d="M267.409 194.533L267.409 135.813C267.409 129.186 272.782 123.813 279.409 123.813L351.654 123.813M267.409 237.092L267.409 248.129C267.409 254.756 272.782 260.129 279.409 260.129L448.627 260.129C455.254 260.129 460.627 254.756 460.627 248.129L460.627 135.813C460.627 129.186 455.254 123.813 448.627 123.813L374.912 123.813" stroke="black" stroke-width="3" stroke-linecap="round"/>
  <path d="M240.772 60.3438C238.623 94.8128 232.27 116.721 219.63 116.721C212.248 116.721 203.523 110.009 200.838 101.284" stroke="black" stroke-width="3" stroke-linecap="round" stroke-linejoin="round"/>
  <path d="M144.713 249.73C145.508 262.851 146.621 293.742 144.713 306.386" stroke="black" stroke-width="3" stroke-linecap="round" stroke-linejoin="round"/>
  <path d="M254.146 188.602C254.181 193.605 254.017 197.658 254.146 204.456M260.408 305.789C257.519 289.061 255.849 257.469 254.967 229.474" stroke="black" stroke-width="3" stroke-linecap="round" stroke-linejoin="round"/>
  <circle cx="410.38" cy="161.054" r="16.8687" stroke="black" stroke-width="3" stroke-linecap="round" stroke-linejoin="round"/>
  <circle cx="410.38" cy="223.021" r="16.8687" stroke="black" stroke-width="3" stroke-linecap="round" stroke-linejoin="round"/>
  <path d="M186.527 118.583C187.399 127.492 200.471 131.365 208.896 131.365C217.321 131.365 221.769 123.789 220.916 118.582" stroke="black" stroke-width="3" stroke-linecap="round" stroke-linejoin="round"/>
  <path d="M415.655 168C415.655 168.746 416.26 169.35 417.005 169.35C417.751 169.35 418.355 168.746 418.355 168L415.655 168ZM402.406 168C402.406 168.746 403.01 169.35 403.756 169.35C404.501 169.35 405.106 168.746 405.106 168L402.406 168ZM415.655 167.584L415.655 168L418.355 168L418.355 167.584L415.655 167.584ZM405.106 168L405.106 167.584L402.406 167.584L402.406 168L405.106 168ZM407.756 164.934L413.005 164.934L413.005 162.234L407.756 162.234L407.756 164.934ZM405.106 167.584C405.106 166.12 406.292 164.934 407.756 164.934L407.756 162.234C404.801 162.234 402.406 164.629 402.406 167.584L405.106 167.584ZM418.355 167.584C418.355 164.629 415.96 162.234 413.005 162.234L413.005 164.934C414.469 164.934 415.655 166.12 415.655 167.584L418.355 167.584Z" fill="black"/>
  <circle cx="410.381" cy="155.635" r="3.06642" stroke="black" stroke-width="2.7"/>
  <path d="M415.655 229.965C415.655 230.711 416.26 231.315 417.005 231.315C417.751 231.315 418.355 230.711 418.355 229.965L415.655 229.965ZM402.406 229.965C402.406 230.711 403.01 231.315 403.756 231.315C404.501 231.315 405.106 230.711 405.106 229.965L402.406 229.965ZM415.655 229.549L415.655 229.965L418.355 229.965L418.355 229.549L415.655 229.549ZM405.106 229.965L405.106 229.549L402.406 229.549L402.406 229.965L405.106 229.965ZM407.756 226.899L413.005 226.899L413.005 224.199L407.756 224.199L407.756 226.899ZM405.106 229.549C405.106 228.085 406.292 226.899 407.756 226.899L407.756 224.199C404.801 224.199 402.406 226.594 402.406 229.549L405.106 229.549ZM418.355 229.549C418.355 226.594 415.96 224.199 413.005 224.199L413.005 226.899C414.469 226.899 415.655 228.085 415.655 229.549L418.355 229.549Z" fill="black"/>
  <circle cx="410.381" cy="217.6" r="3.06642" stroke="black" stroke-width="2.7"/>
  <path d="M357.926 191.971L371.95 191.971C373.607 191.971 374.95 193.314 374.95 194.971L374.95 219.874C374.95 221.531 376.293 222.874 377.95 222.874L392.074 222.874" stroke="black" stroke-width="3" stroke-linecap="round" stroke-linejoin="round"/>
  <path d="M392.727 161.068L378.703 161.068C377.046 161.068 375.703 162.412 375.703 164.068L375.703 188.972C375.703 190.629 374.359 191.972 372.703 191.972L357.926 191.972" stroke="black" stroke-width="3" stroke-linecap="round" stroke-linejoin="round"/>
  <path d="M189.012 68.489C179.605 71.9788 191.44 89.7309 189.012 88.9722C181.142 86.5127 179.959 67.0591 178.825 60.7093C177.684 54.315 182.346 51.5747 184.82 51.0038C181.966 49.291 181.235 45.5009 181.965 41.0126C183.963 28.7378 209.655 29.5943 233.633 36.7307C257.612 43.8672 251.01 65.5317 240.448 59.5371C229.886 53.5425 198.704 50.7104 199.093 57.8548C199.482 64.9993 200.089 78.0479 189.012 68.489Z" fill="black" stroke="black" stroke-width="3" stroke-linecap="round" stroke-linejoin="round"/>
  <path d="M181.587 134.98C183.898 139.742 191.737 150.702 202.154 153.895C206.187 147.005 209.715 140.242 210.975 137.721L220.428 150.324C223.135 148.212 227.897 142.734 228.045 137.721" stroke="black" stroke-width="3" stroke-linecap="round" stroke-linejoin="round"/>
</svg>
