<svg viewBox="0 0 600 370" fill="none" xmlns="http://www.w3.org/2000/svg">
  <path d="M473.303 56L429.284 313H195.985L240.004 56H473.303Z" stroke="black" stroke-width="3" stroke-linecap="round" stroke-linejoin="round"/>
  <path d="M334.941 214.378C344.951 214.378 353.079 197.598 355.892 189.207C360.15 196.622 370.285 207.046 379.015 207.919C379.015 199.483 373.497 179.605 356.765 180.914C340.033 182.224 331.449 196.919 334.941 214.378Z" fill="black" stroke="black" stroke-width="3" stroke-linecap="round" stroke-linejoin="round"/>
  <path d="M348.298 244.558C346.411 253.173 328.519 252.222 321.976 260.499C315.433 268.776 312.122 277.743 307.018 288.779" stroke="black" stroke-width="3" stroke-linecap="round" stroke-linejoin="round"/>
  <path d="M368.781 244.558C370.668 253.173 388.56 252.222 395.104 260.499C401.647 268.776 403.952 277.302 409.057 288.338" stroke="black" stroke-width="3" stroke-linecap="round" stroke-linejoin="round"/>
  <path d="M317.988 174.715C322.643 186.075 330.425 186.291 339.183 190.449" stroke="black" stroke-width="3" stroke-linecap="round" stroke-linejoin="round"/>
  <path d="M293.801 289.196H223.535L242.978 175.734C254.211 172.875 279.027 177.307 285.498 165.957" stroke="black" stroke-width="3" stroke-linecap="round" stroke-linejoin="round"/>
  <path d="M242.978 175.734L259.516 79.1191H445.865L409.876 289.179H286.337" stroke="black" stroke-width="3" stroke-linecap="round" stroke-linejoin="round"/>
  <path d="M448.023 209.322L484.137 312.331" stroke="black" stroke-width="3" stroke-linecap="round" stroke-linejoin="round"/>
  <path d="M306.963 166.034C318.471 171.073 332.455 155.166 338.642 145.286C341.616 140.53 350.773 127.445 351.579 117.402C352.436 106.571 348.44 99.1385 338.642 99.1386C334.267 84.7751 304.483 83.1574 291.722 110.72C288.558 117.555 290.872 122.8 294.547 124.161C293.287 129.277 286.14 156.925 306.963 166.034Z" stroke="black" stroke-width="3" stroke-linecap="round" stroke-linejoin="round"/>
  <path d="M285.497 166C289.876 157.817 292.408 141.393 292.408 141.393" stroke="black" stroke-width="3" stroke-linecap="round" stroke-linejoin="round"/>
  <path d="M316.306 179.479C318.045 172.122 319.396 164.992 319.396 164.992" stroke="black" stroke-width="3" stroke-linecap="round" stroke-linejoin="round"/>
  <path d="M108 313L493 313" stroke="black" stroke-width="3" stroke-linecap="round" stroke-linejoin="round"/>
  <path d="M286.072 165.121C286.072 165.121 276.563 200.615 292.255 204.432C307.946 208.249 314.501 186.834 316.909 177.07" stroke="black" stroke-width="3" stroke-linecap="round" stroke-linejoin="round"/>
  <path d="M348.314 244.857C348.314 244.857 348.807 258.245 358.143 259.295C367.479 260.346 369.632 250.412 368.809 244.857" stroke="black" stroke-width="3" stroke-linecap="round" stroke-linejoin="round"/>
  <path d="M295.037 124.378C306.638 127.405 323.457 120.354 333.024 110.058C339.828 111.72 348.678 117.324 341.449 140.819" stroke="black" stroke-width="3" stroke-linecap="round" stroke-linejoin="round"/>
  <path d="M240.005 56L259.516 79.1362" stroke="black" stroke-width="3" stroke-linecap="round" stroke-linejoin="round"/>
  <path d="M472.386 56.4688L445.865 79.1358" stroke="black" stroke-width="3" stroke-linecap="round" stroke-linejoin="round"/>
  <path d="M414.349 295.387L428.298 312.152" stroke="black" stroke-width="3" stroke-linecap="round" stroke-linejoin="round"/>
  <path d="M358.498 235.89C372.934 235.236 377.262 223.05 378.818 211.834C380.374 200.619 373.824 186.401 365.312 182.951C356.801 179.501 339.428 181.082 334.946 200.619C330.464 220.155 344.062 236.544 358.498 235.89Z" stroke="black" stroke-width="3" stroke-linecap="round" stroke-linejoin="round"/>
  <path d="M325.037 227.486C325.72 222.908 330.989 218.705 334.467 220.038C337.945 221.37 339.708 228.279 336.448 231.948C334.016 234.681 329.021 235.365 326.52 232.946C324.558 231.053 324.948 228.046 325.037 227.486Z" fill="black" stroke="black" stroke-width="3" stroke-linecap="round" stroke-linejoin="round"/>
  <path d="M390.41 223.726C390.375 219.098 385.746 214.199 382.116 215.031C378.485 215.864 375.773 222.458 378.487 226.547C380.513 229.594 385.363 230.97 388.178 228.925C390.385 227.325 390.42 224.294 390.41 223.726Z" fill="black" stroke="black" stroke-width="3" stroke-linecap="round" stroke-linejoin="round"/>
  <path d="M337.498 201.534L342.986 207.022" stroke="#F5F3ED" stroke-width="3" stroke-linecap="round" stroke-linejoin="round"/>
  <path d="M316.005 236.336C316.846 233.001 321.67 230.869 325.189 232.612C328.005 234.019 329.563 237.723 328.415 240.306C326.898 243.723 321.014 244.406 317.987 241.796C316.572 240.586 315.479 238.399 316.005 236.336Z" fill="black" stroke="black" stroke-width="3" stroke-linecap="round" stroke-linejoin="round"/>
  <path d="M398.033 233.522C397.667 230.103 393.189 227.316 389.461 228.549C386.476 229.549 384.415 232.998 385.19 235.716C386.214 239.312 391.944 240.812 395.306 238.651C396.876 237.651 398.265 235.639 398.033 233.522Z" fill="black" stroke="black" stroke-width="3" stroke-linecap="round" stroke-linejoin="round"/>
  <path d="M307.067 244.03C307.896 242.819 309.087 241.902 310.469 241.411C311.852 240.92 313.355 240.88 314.761 241.296C318.274 242.383 320.18 246.175 319.476 248.745C318.328 252.975 309.862 254.82 307.087 251.478C304.983 248.909 306.951 244.296 307.067 244.03Z" fill="black" stroke="black" stroke-width="3" stroke-linecap="round" stroke-linejoin="round"/>
  <path d="M405.806 242.392C405.155 241.077 404.104 240.002 402.804 239.323C401.503 238.643 400.021 238.393 398.57 238.609C394.94 239.193 392.521 242.681 392.859 245.324C393.403 249.672 401.528 252.684 404.743 249.764C407.187 247.515 405.884 242.672 405.806 242.392Z" fill="black" stroke="black" stroke-width="3" stroke-linecap="round" stroke-linejoin="round"/>
  <path d="M291.692 253.2C291.692 253.2 295.662 259.918 299.448 263.888C307.149 261.899 307.846 251.465 307.101 251.465C306.356 251.465 291.692 253.2 291.692 253.2Z" fill="black" stroke="black" stroke-width="3" stroke-linecap="round" stroke-linejoin="round"/>
  <path d="M416.248 250.599C416.248 250.599 414.782 258.244 413.154 265.048C405.807 262.001 403.994 249.645 404.732 249.749C405.469 249.853 416.248 250.599 416.248 250.599Z" fill="black" stroke="black" stroke-width="3" stroke-linecap="round" stroke-linejoin="round"/>
  <path d="M349.581 234.205L348.262 244.758" stroke="black" stroke-width="3" stroke-linecap="round" stroke-linejoin="round"/>
  <path d="M367.035 234.43L368.772 244.625" stroke="black" stroke-width="3" stroke-linecap="round" stroke-linejoin="round"/>
  <path d="M333.625 254.555L328.794 287.914" stroke="black" stroke-width="3" stroke-linecap="round" stroke-linejoin="round"/>
  <path d="M381.59 254.555L386.421 287.914" stroke="black" stroke-width="3" stroke-linecap="round" stroke-linejoin="round"/>
  <path d="M363.018 142.304C363.018 142.304 384.858 123.366 403.961 125.625C423.065 127.884 417.895 142.917 417.895 142.917C417.895 142.917 426.151 129.568 436.239 130.104" stroke="black" stroke-width="3" stroke-linecap="round" stroke-linejoin="round"/>
</svg>
