<svg width="48" height="48" viewBox="0 0 48 48" fill="none" xmlns="http://www.w3.org/2000/svg">
  <path d="M43.4546 16.5426L44.9546 16.5426C44.9546 16.0163 44.6788 15.5285 44.2278 15.2572L43.4546 16.5426ZM43.4546 40.5401L43.4546 42.0401C44.283 42.0401 44.9546 41.3685 44.9546 40.5401L43.4546 40.5401ZM3.05486 40.5401C3.05486 41.3685 3.72643 42.0401 4.55486 42.0401C5.38329 42.0401 6.05486 41.3685 6.05486 40.5401L3.05486 40.5401ZM4.55487 16.5426L3.78595 15.2546C3.33254 15.5253 3.05487 16.0145 3.05487 16.5426L4.55487 16.5426ZM13.5 39.0401C12.6716 39.0401 12 39.7116 12 40.5401C12 41.3685 12.6716 42.0401 13.5 42.0401L13.5 39.0401ZM24.0781 4.88672L24.8513 3.60136C24.3771 3.31609 23.7843 3.31511 23.3091 3.59879L24.0781 4.88672ZM41.9546 16.5426L41.9546 40.5401L44.9546 40.5401L44.9546 16.5426L41.9546 16.5426ZM6.05486 40.5401L6.05487 16.5426L3.05487 16.5426L3.05486 40.5401L6.05486 40.5401ZM43.4546 39.0401L13.5 39.0401L13.5 42.0401L43.4546 42.0401L43.4546 39.0401ZM5.32379 17.8305L24.847 6.17464L23.3091 3.59879L3.78595 15.2546L5.32379 17.8305ZM23.3049 6.17208L42.6814 17.8279L44.2278 15.2572L24.8513 3.60136L23.3049 6.17208Z" fill="#00857C"/>
  <path d="M22.849 30.0252L21.8182 31.1148C22.4164 31.6808 23.3592 31.6586 23.9301 31.065L22.849 30.0252ZM18.8362 24.1637C18.2344 23.5944 17.285 23.6207 16.7157 24.2224C16.1463 24.8242 16.1726 25.7736 16.7744 26.3429L18.8362 24.1637ZM31.8863 22.7931C32.4605 22.1961 32.4421 21.2465 31.845 20.6722C31.2479 20.0979 30.2984 20.1164 29.7241 20.7135L31.8863 22.7931ZM23.8799 28.9355L18.8362 24.1637L16.7744 26.3429L21.8182 31.1148L23.8799 28.9355ZM23.9301 31.065L31.8863 22.7931L29.7241 20.7135L21.768 28.9853L23.9301 31.065Z" fill="#00857C"/>
</svg>
