<svg width="48" height="48" viewBox="0 0 48 48" fill="none" xmlns="http://www.w3.org/2000/svg">
  <path d="M43.8794 40.8644C43.8794 41.6928 44.551 42.3644 45.3794 42.3644C46.2078 42.3644 46.8794 41.6928 46.8794 40.8644L43.8794 40.8644ZM28.6831 40.8644C28.6831 41.6928 29.3546 42.3644 30.1831 42.3644C31.0115 42.3644 31.6831 41.6928 31.6831 40.8644L28.6831 40.8644ZM43.8794 39.4961L43.8794 40.8644L46.8794 40.8644L46.8794 39.4961L43.8794 39.4961ZM31.6831 40.8644L31.6831 39.4961L28.6831 39.4961L28.6831 40.8644L31.6831 40.8644ZM36.1831 34.9961L39.3794 34.9961L39.3794 31.9961L36.1831 31.9961L36.1831 34.9961ZM31.6831 39.4961C31.6831 37.0108 33.6978 34.9961 36.1831 34.9961L36.1831 31.9961C32.0409 31.9961 28.6831 35.354 28.6831 39.4961L31.6831 39.4961ZM46.8794 39.4961C46.8794 35.354 43.5215 31.9961 39.3794 31.9961L39.3794 34.9961C41.8647 34.9961 43.8794 37.0108 43.8794 39.4961L46.8794 39.4961Z" fill="#00857C"/>
  <path d="M28.6831 40.2645C28.6831 41.0929 29.3547 41.7645 30.1831 41.7645C31.0115 41.7645 31.6831 41.0929 31.6831 40.2645L28.6831 40.2645ZM1.12028 40.2645C1.12028 41.0929 1.79186 41.7645 2.62028 41.7645C3.44871 41.7645 4.12028 41.0929 4.12028 40.2645L1.12028 40.2645ZM28.6831 39.8553L28.6831 40.2645L31.6831 40.2645L31.6831 39.8553L28.6831 39.8553ZM4.12028 40.2645L4.12028 39.8553L1.12028 39.8553L1.12028 40.2645L4.12028 40.2645ZM13.503 30.4727L19.3004 30.4727L19.3004 27.4727L13.503 27.4727L13.503 30.4727ZM4.12028 39.8553C4.12028 34.6734 8.32105 30.4727 13.503 30.4727L13.503 27.4727C6.6642 27.4727 1.12028 33.0166 1.12028 39.8553L4.12028 39.8553ZM31.6831 39.8553C31.6831 33.0166 26.1392 27.4727 19.3004 27.4727L19.3004 30.4727C24.4823 30.4727 28.6831 34.6734 28.6831 39.8553L31.6831 39.8553Z" fill="#00857C"/>
  <circle cx="37.7814" cy="22.8537" r="4.84901" stroke="#00857C" stroke-width="2.9"/>
  <path d="M23.3315 16.5551C23.3315 20.3221 20.2431 23.4013 16.4019 23.4013C12.5606 23.4013 9.47217 20.3221 9.47217 16.5551C9.47217 12.7882 12.5606 9.70898 16.4019 9.70898C20.2431 9.70898 23.3315 12.7882 23.3315 16.5551Z" stroke="#00857C" stroke-width="3"/>
</svg>
