<svg width="48" height="48" viewBox="0 0 48 48" fill="none" xmlns="http://www.w3.org/2000/svg">
  <path d="M30.9902 18.9766C31.8187 18.9766 32.4902 18.305 32.4902 17.4766C32.4902 16.6481 31.8187 15.9766 30.9902 15.9766L30.9902 18.9766ZM17.9748 15.9766C17.1464 15.9766 16.4748 16.6481 16.4748 17.4766C16.4748 18.305 17.1464 18.9766 17.9748 18.9766L17.9748 15.9766ZM30.9902 15.9766L17.9748 15.9766L17.9748 18.9766L30.9902 18.9766L30.9902 15.9766Z" fill="#00857C"/>
  <path d="M30.9902 24.9767C31.8187 24.9767 32.4902 24.3051 32.4902 23.4767C32.4902 22.6482 31.8187 21.9767 30.9902 21.9767V24.9767ZM17.9748 21.9767C17.1464 21.9767 16.4748 22.6482 16.4748 23.4767C16.4748 24.3051 17.1464 24.9767 17.9748 24.9767V21.9767ZM30.9902 30.9804C31.8187 30.9804 32.4902 30.3089 32.4902 29.4804C32.4902 28.652 31.8187 27.9804 30.9902 27.9804V30.9804ZM17.9748 27.9804C17.1464 27.9804 16.4748 28.652 16.4748 29.4804C16.4748 30.3089 17.1464 30.9804 17.9748 30.9804V27.9804ZM30.9902 21.9767H17.9748V24.9767H30.9902V21.9767ZM30.9902 27.9804H17.9748V30.9804H30.9902V27.9804Z" fill="#00857C"/>
  <path d="M6.06066 43.5082C6.06066 44.3367 6.73224 45.0082 7.56066 45.0082C8.38909 45.0082 9.06066 44.3367 9.06066 43.5082L6.06066 43.5082ZM7.56067 4.48828L7.56067 2.98828C6.73224 2.98828 6.06067 3.65985 6.06067 4.48828L7.56067 4.48828ZM40.4404 43.5082L40.4404 45.0082C41.2689 45.0082 41.9404 44.3367 41.9404 43.5082L40.4404 43.5082ZM15.5 42.0082C14.6716 42.0082 14 42.6798 14 43.5082C14 44.3367 14.6716 45.0082 15.5 45.0082L15.5 42.0082ZM33.0406 4.48828L34.1684 3.4993C33.8836 3.17452 33.4726 2.98828 33.0406 2.98828L33.0406 4.48828ZM40.4404 12.9268L41.9404 12.9268C41.9404 12.5629 41.8081 12.2114 41.5682 11.9378L40.4404 12.9268ZM9.06066 43.5082L9.06067 4.48828L6.06067 4.48828L6.06066 43.5082L9.06066 43.5082ZM40.4404 42.0082L15.5 42.0082L15.5 45.0082L40.4404 45.0082L40.4404 42.0082ZM7.56067 5.98828L33.0406 5.98828L33.0406 2.98828L7.56067 2.98828L7.56067 5.98828ZM38.9404 12.9268L38.9404 43.5082L41.9404 43.5082L41.9404 12.9268L38.9404 12.9268ZM31.9128 5.47726L39.3126 13.9158L41.5682 11.9378L34.1684 3.4993L31.9128 5.47726Z" fill="#00857C"/>
</svg>
