<svg viewBox="0 0 600 370" fill="none" xmlns="http://www.w3.org/2000/svg">
  <path d="M386.962 112.181C386.268 117.036 388.118 125.762 389.129 129.519H416.003L419.47 110.014C420.915 108.569 425.105 105.679 431.173 101.345C425.539 95.2764 419.615 93.2537 416.87 92.6758C410.801 92.5314 396.411 92.3291 390.863 92.6758C385.315 93.0226 379.882 100.333 377.859 103.945C379.304 105.101 383.147 108.367 386.962 112.181Z" fill="black" stroke="black" stroke-width="4" stroke-linecap="round" stroke-linejoin="round"/>
  <path d="M392.305 61.4678C388.335 66.5602 384.088 82.3542 389.579 85.554C393.363 87.7578 398.232 84.0288 398.232 84.0288L399.965 92.676" stroke="black" stroke-width="3" stroke-linecap="round" stroke-linejoin="round"/>
  <path d="M394.408 66.2096C403.457 75.0136 399.087 92.4011 416.004 85.7406C424.673 82.3274 420.528 78.9193 416.004 72.7372C411.479 66.5551 411.989 67.8995 410.251 62.6556C408.513 57.4117 399.457 56.9022 394.408 59.6112C389.359 62.3201 394.408 66.2096 394.408 66.2096Z" fill="black" stroke="black" stroke-width="4" stroke-linecap="round" stroke-linejoin="round"/>
  <path d="M427.706 101.345C434.207 107.991 448.685 121.543 449.378 126.051C450.245 131.686 432.04 155.959 423.371 155.959C414.702 155.959 406.467 155.959 406.467 152.058C408.201 145.123 419.759 147.435 423.371 148.157L438.542 127.785L417.736 110.014" stroke="black" stroke-width="3" stroke-linecap="round" stroke-linejoin="round"/>
  <path d="M378.146 102.525L364.423 125.184C360.233 116.515 352.72 101.778 345.785 99.1774C340.549 97.2141 331.914 95.7096 329.313 98.3105C326.713 100.911 333.616 107.413 343.184 107.413C350.119 120.416 355.754 137.754 364.423 137.754C371.358 137.754 376.993 125.184 386.529 111.314" stroke="black" stroke-width="3" stroke-linecap="round" stroke-linejoin="round"/>
  <path d="M423.208 147.723C420.478 139.308 418.122 132.704 416.455 129.952C409.526 129.952 394.392 129.952 388.761 129.952C385.008 136.217 378.107 156.788 380.532 188.956C382.958 221.125 387.029 267.629 388.761 286.86H472.785C464.123 265.735 447.206 218.852 440.276 200.32C435.578 187.757 430.371 170.436 425.828 155.959" stroke="black" stroke-width="3" stroke-linecap="round" stroke-linejoin="round"/>
  <path d="M460.552 286.86V295.927L464.131 312M472.423 286.156L483.52 312" stroke="black" stroke-width="3" stroke-linecap="round" stroke-linejoin="round"/>
  <path d="M411.235 286.86L417.737 311.567H375.693L399.099 293.796V286.86" stroke="black" stroke-width="3" stroke-linecap="round" stroke-linejoin="round"/>
  <path d="M143.799 312L483.497 312" stroke="black" stroke-width="3" stroke-linecap="round" stroke-linejoin="round"/>
  <path d="M200.39 250.305L280.144 250.305" stroke="black" stroke-width="3" stroke-linecap="round" stroke-linejoin="round"/>
  <path d="M214.036 276.312L292.923 276.312" stroke="black" stroke-width="3" stroke-linecap="round" stroke-linejoin="round"/>
  <path d="M133.255 82.752H275.687" stroke="black" stroke-width="3" stroke-linecap="round" stroke-linejoin="round"/>
  <path d="M116.032 115.136C115.642 104.341 118.608 82.752 133.59 82.752C152.318 82.752 164.803 110.454 166.754 144.398C168.705 178.342 158.704 206.404 166.754 254.034C171.436 281.736 181.06 301.764 187.043 310.608" stroke="black" stroke-width="3" stroke-linecap="round" stroke-linejoin="round"/>
  <path d="M275.31 82.752C294.037 82.752 306.523 110.454 308.474 144.398C310.424 178.342 300.423 206.404 308.474 254.034C313.155 281.736 329.263 301.49 337.685 310.608" stroke="black" stroke-width="3" stroke-linecap="round" stroke-linejoin="round"/>
  <path d="M116 115.135H161.11C153.784 98.8066 144.594 84.8867 135.169 84.749C119.97 84.749 117.45 106.509 116 115.135Z" fill="black" stroke="black" stroke-width="3" stroke-linecap="round" stroke-linejoin="round"/>
  <path d="M228.508 184.713C229.188 178.01 230.067 171.748 230.067 164.148L208.997 164.148C209.582 157.479 209.741 150.243 209.199 143.606L230.232 143.583C230.067 135.727 229.188 129.235 227.584 123.018L248.149 123.019C249.87 129.063 250.691 135.325 250.859 143.606L271.07 143.583C271.845 150.811 271.562 156.459 270.895 164.149L250.691 164.148C250.387 173.127 249.985 178.47 249.091 184.713H238.139" stroke="black" stroke-width="3" stroke-linecap="round" stroke-linejoin="round"/>
</svg>
