<svg viewBox="0 0 206 160" fill="none" xmlns="http://www.w3.org/2000/svg">
    <path d="M186.793 98L19.2059 98" stroke="#1A1B1C" stroke-width="1.8" stroke-linecap="round" stroke-linejoin="round"/>
    <rect x="-0.9" y="0.9" width="186.735" height="121.426" rx="10.1903" transform="matrix(-1 0 0 1 195.468 0.0351562)" stroke="#1A1B1C" stroke-width="1.8"/>
    <path d="M104.232 115.868C104.232 116.208 103.956 116.487 103.617 116.453C103.019 116.393 102.432 116.246 101.874 116.015C101.127 115.705 100.448 115.251 99.8756 114.679C99.3034 114.107 98.8496 113.428 98.54 112.68C98.2303 111.933 98.071 111.132 98.071 110.322C98.071 109.513 98.2303 108.712 98.54 107.965C98.8496 107.217 99.3034 106.538 99.8756 105.966C100.448 105.394 101.127 104.94 101.874 104.63C102.432 104.399 103.019 104.252 103.617 104.192C103.956 104.158 104.232 104.437 104.232 104.777L104.232 110.322L104.232 115.868Z" fill="#1A1B1C"/>
    <path d="M77.8409 151.766C77.3439 151.766 76.9409 151.363 76.9409 150.866C76.9409 150.369 77.3439 149.966 77.8409 149.966L77.8409 151.766ZM125.458 159.294C124.961 159.294 124.558 158.891 124.558 158.394C124.558 157.897 124.961 157.494 125.458 157.494L125.458 159.294ZM142.792 151.766L77.8409 151.766L77.8409 149.966L142.792 149.966L142.792 151.766ZM142.792 159.294L125.458 159.294L125.458 157.494L142.792 157.494L142.792 159.294ZM147.456 154.699C147.418 157.248 145.341 159.294 142.792 159.294L142.792 157.494C144.357 157.494 145.633 156.238 145.656 154.673L147.456 154.699ZM142.792 149.966C145.395 149.966 147.494 152.097 147.456 154.699L145.656 154.673C145.679 153.074 144.39 151.766 142.792 151.766L142.792 149.966Z" fill="#1A1B1C"/>
    <path d="M74.042 122.645L61.7194 157.764" stroke="#1A1B1C" stroke-width="1.8" stroke-linecap="round" stroke-linejoin="round"/>
    <path d="M125.573 122.658L115.728 150.348" stroke="#1A1B1C" stroke-width="1.8" stroke-linecap="round" stroke-linejoin="round"/>
    <path d="M1.33887 158.381L204.661 158.381" stroke="#1A1B1C" stroke-width="1.8" stroke-linecap="round" stroke-linejoin="round"/>
    <path d="M80.2032 52.7144C80.2032 57.0404 78.9204 61.2692 76.517 64.8661C74.1136 68.4631 70.6976 71.2665 66.7009 72.922C62.7042 74.5775 58.3063 75.0106 54.0635 74.1667C49.8206 73.3227 45.9233 71.2396 42.8643 68.1806C39.8054 65.1217 37.7222 61.2244 36.8783 56.9815C36.0343 52.7386 36.4675 48.3408 38.123 44.3441C39.7784 40.3474 42.5819 36.9314 46.1788 34.528C49.7758 32.1246 54.0046 30.8418 58.3306 30.8418" stroke="#1A1B1C" stroke-width="1.8" stroke-linecap="round" stroke-linejoin="round"/>
    <path d="M64.4917 24.6806C67.3641 24.6806 70.2083 25.2464 72.862 26.3456C75.5157 27.4448 77.9269 29.0559 79.958 31.0869C81.989 33.118 83.6001 35.5292 84.6994 38.1829C85.7986 40.8366 86.3643 43.6809 86.3643 46.5532L64.4917 46.5532L64.4917 24.6806Z" fill="#1A1B1C" stroke="#1A1B1C" stroke-width="2.46452" stroke-linecap="round" stroke-linejoin="round"/>
    <path d="M151.341 50.5586C151.341 50.0615 150.938 49.6586 150.441 49.6586C149.944 49.6586 149.541 50.0615 149.541 50.5586L151.341 50.5586ZM149.541 72.1231C149.541 72.6202 149.944 73.0231 150.441 73.0231C150.938 73.0231 151.341 72.6202 151.341 72.1231L149.541 72.1231ZM151.341 72.1231L151.341 50.5586L149.541 50.5586L149.541 72.1231L151.341 72.1231Z" fill="#1A1B1C"/>
    <path d="M136.554 42.5488C136.554 42.0518 136.151 41.6488 135.654 41.6488C135.157 41.6488 134.754 42.0518 134.754 42.5488H136.554ZM134.754 72.123C134.754 72.6201 135.157 73.023 135.654 73.023C136.151 73.023 136.554 72.6201 136.554 72.123L134.754 72.123ZM136.554 72.123L136.554 42.5488H134.754L134.754 72.123L136.554 72.123Z" fill="#1A1B1C"/>
    <path d="M166.129 42.5488C166.129 42.0518 165.726 41.6488 165.229 41.6488C164.731 41.6488 164.329 42.0518 164.329 42.5488H166.129ZM164.329 72.123C164.329 72.6201 164.731 73.023 165.229 73.023C165.726 73.023 166.129 72.6201 166.129 72.123L164.329 72.123ZM166.129 72.123L166.129 42.5488H164.329L164.329 72.123L166.129 72.123Z" fill="#1A1B1C"/>
    <path d="M121.767 58.877C121.767 58.3799 121.364 57.977 120.867 57.977C120.37 57.977 119.967 58.3799 119.967 58.877L121.767 58.877ZM119.967 72.1237C119.967 72.6208 120.37 73.0237 120.867 73.0237C121.364 73.0237 121.767 72.6208 121.767 72.1237L119.967 72.1237ZM121.767 72.1237L121.767 58.877L119.967 58.877L119.967 72.1237L121.767 72.1237Z" fill="#1A1B1C"/>
</svg>
