<svg viewBox="0 0 48 48" fill="none" xmlns="http://www.w3.org/2000/svg">
    <g opacity="0.35">
        <path d="M20.5667 43.4878L35.455 43.4878C38.2164 43.4878 40.455 41.2492 40.455 38.4878L40.455 22.4863C40.455 19.7249 38.2164 17.4863 35.455 17.4863L12.5454 17.4863C9.78399 17.4863 7.54541 19.7249 7.54541 22.4863L7.54541 32.1322L7.54541 38.4878C7.54541 41.2492 9.78399 43.4878 12.5454 43.4878L13.7728 43.4878" stroke="#1A1B1C" stroke-width="3" stroke-linecap="round" stroke-linejoin="round"/>
        <path d="M16.0051 17.1159C16.0051 17.9444 16.6766 18.6159 17.5051 18.6159C18.3335 18.6159 19.0051 17.9444 19.0051 17.1159L16.0051 17.1159ZM28.9951 17.1159C28.9951 17.9444 29.6667 18.6159 30.4951 18.6159C31.3235 18.6159 31.9951 17.9444 31.9951 17.1159L28.9951 17.1159ZM19.0051 17.1159L19.0051 11.101L16.0051 11.101L16.0051 17.1159L19.0051 17.1159ZM28.9951 11.101L28.9951 17.1159L31.9951 17.1159L31.9951 11.101L28.9951 11.101ZM19.0051 11.101C19.0051 8.3423 21.2414 6.10596 24.0001 6.10596L24.0001 3.10596C19.5846 3.10596 16.0051 6.68545 16.0051 11.101L19.0051 11.101ZM24.0001 6.10596C26.7588 6.10596 28.9951 8.34231 28.9951 11.101L31.9951 11.101C31.9951 6.68545 28.4156 3.10596 24.0001 3.10596L24.0001 6.10596Z" fill="#1A1B1C"/>
        <path d="M25.5 26.3193C25.5 25.4909 24.8284 24.8193 24 24.8193C23.1716 24.8193 22.5 25.4909 22.5 26.3193L25.5 26.3193ZM22.5 34.6546C22.5 35.4831 23.1716 36.1546 24 36.1546C24.8284 36.1546 25.5 35.4831 25.5 34.6546L22.5 34.6546ZM22.5 26.3193L22.5 34.6546L25.5 34.6546L25.5 26.3193L22.5 26.3193Z" fill="#1A1B1C"/>
    </g>
</svg>
