<svg width="302" height="191" viewBox="0 0 302 191" fill="none" xmlns="http://www.w3.org/2000/svg">
  <path d="M200.827 53.9587C200.431 56.7326 201.487 61.719 202.065 63.8655H217.421L219.402 52.7202C220.228 51.8947 222.622 50.2435 226.089 47.7668C222.87 44.2994 219.485 43.1437 217.916 42.8135C214.449 42.7309 206.226 42.6154 203.056 42.8135C199.886 43.0116 196.782 47.189 195.626 49.2529C196.452 49.9134 198.648 51.7792 200.827 53.9587Z" fill="black" stroke="black" stroke-width="2.28559" stroke-linecap="round" stroke-linejoin="round"/>
  <path d="M203.88 24.9814C201.612 27.8912 199.185 36.9159 202.323 38.7443C204.485 40.0035 207.267 37.8728 207.267 37.8728L208.257 42.8137" stroke="black" stroke-width="1.71419" stroke-linecap="round" stroke-linejoin="round"/>
  <path d="M205.081 27.6909C210.252 32.7215 207.755 42.6567 217.421 38.8509C222.375 36.9006 220.007 34.9532 217.421 31.4208C214.836 27.8884 215.127 28.6566 214.134 25.6602C213.141 22.6638 207.966 22.3727 205.081 23.9206C202.197 25.4685 205.081 27.6909 205.081 27.6909Z" fill="black" stroke="black" stroke-width="2.28559" stroke-linecap="round" stroke-linejoin="round"/>
  <path d="M224.108 47.7666C227.823 51.5642 236.095 59.308 236.492 61.8838C236.987 65.1035 226.585 78.9731 221.631 78.9731C216.678 78.9731 211.972 78.9731 211.972 76.744C212.963 72.7813 219.567 74.1022 221.631 74.515L230.3 62.8745L218.412 52.72" stroke="black" stroke-width="1.71419" stroke-linecap="round" stroke-linejoin="round"/>
  <path d="M195.789 48.4415L187.948 61.3891C185.554 56.4357 181.261 48.015 177.298 46.5289C174.307 45.4071 169.373 44.5474 167.887 46.0335C166.401 47.5196 170.345 51.2346 175.812 51.2346C179.775 58.6648 182.995 68.5716 187.948 68.5716C191.911 68.5716 195.13 61.3891 200.579 53.4637" stroke="black" stroke-width="1.71419" stroke-linecap="round" stroke-linejoin="round"/>
  <path d="M221.538 74.2678C219.978 69.4593 218.632 65.6859 217.68 64.1133C213.72 64.1133 205.073 64.1133 201.855 64.1133C199.71 67.6929 195.767 79.4473 197.153 97.8282C198.539 116.209 200.865 142.781 201.855 153.77H249.866C244.917 141.699 235.251 114.91 231.291 104.321C228.606 97.1426 225.631 87.2456 223.035 78.9735" stroke="black" stroke-width="1.71419" stroke-linecap="round" stroke-linejoin="round"/>
  <path d="M242.876 153.77V158.951L244.921 168.135M249.659 153.368L256 168.135" stroke="black" stroke-width="1.71419" stroke-linecap="round" stroke-linejoin="round"/>
  <path d="M214.697 153.77L218.412 167.887H194.388L207.762 157.732V153.77" stroke="black" stroke-width="1.71419" stroke-linecap="round" stroke-linejoin="round"/>
  <path d="M61.8843 168.135L255.987 168.135" stroke="black" stroke-width="1.71419" stroke-linecap="round" stroke-linejoin="round"/>
  <path d="M94.2202 132.883L139.792 132.883" stroke="black" stroke-width="1.71419" stroke-linecap="round" stroke-linejoin="round"/>
  <path d="M102.018 147.743L147.094 147.743" stroke="black" stroke-width="1.71419" stroke-linecap="round" stroke-linejoin="round"/>
  <path d="M55.8594 37.1436H137.245" stroke="black" stroke-width="1.71419" stroke-linecap="round" stroke-linejoin="round"/>
  <path d="M46.0186 55.6475C45.7957 49.4795 47.4901 37.1436 56.0509 37.1436C66.7519 37.1436 73.886 52.9722 75.0007 72.3678C76.1154 91.7635 70.4008 107.798 75.0007 135.014C77.676 150.842 83.1751 162.287 86.5935 167.34" stroke="black" stroke-width="1.71419" stroke-linecap="round" stroke-linejoin="round"/>
  <path d="M137.029 37.1436C147.73 37.1436 154.864 52.9722 155.979 72.3678C157.094 91.7635 151.379 107.798 155.979 135.014C158.654 150.842 167.858 162.13 172.671 167.34" stroke="black" stroke-width="1.71419" stroke-linecap="round" stroke-linejoin="round"/>
  <path d="M46.0001 55.6467H71.7759C67.5899 46.3166 62.3384 38.3628 56.9532 38.2842C48.2685 38.2842 46.8282 50.7178 46.0001 55.6467Z" fill="black" stroke="black" stroke-width="1.71419" stroke-linecap="round" stroke-linejoin="round"/>
  <path d="M110.287 95.4033C110.675 91.5731 111.178 87.995 111.178 83.6524L99.1382 83.6525C99.4723 79.8416 99.5632 75.7071 99.2538 71.9144L111.272 71.9012C111.178 67.4124 110.675 63.703 109.759 60.1504L121.51 60.1512C122.493 63.6045 122.962 67.1826 123.058 71.9143L134.607 71.9012C135.049 76.0313 134.888 79.2587 134.507 83.6525L122.962 83.6524C122.789 88.7828 122.559 91.8358 122.048 95.4033H115.79" stroke="black" stroke-width="1.71419" stroke-linecap="round" stroke-linejoin="round"/>
</svg>
