<svg viewBox="0 0 620 336" fill="none" xmlns="http://www.w3.org/2000/svg">
  <path d="M90.5 306.857L528.066 306.857" stroke="black" stroke-width="3" stroke-linecap="round" stroke-linejoin="round"/>
  <rect x="395.849" y="164.961" width="61.748" height="59.1009" rx="6" stroke="black" stroke-width="3"/>
  <path d="M528.066 58.8669V82.4173C528.066 85.731 525.38 88.4173 522.066 88.4173H472.318C469.005 88.4173 466.318 85.731 466.318 82.4173V35.3164C466.318 32.0027 469.005 29.3164 472.318 29.3164H522.066C525.38 29.3164 528.066 32.0027 528.066 35.3164V44.0916" stroke="black" stroke-width="3" stroke-linecap="round"/>
  <path d="M395.849 35.3164C395.849 32.0027 398.535 29.3164 401.849 29.3164H451.597C454.91 29.3164 457.597 32.0027 457.597 35.3164V82.4173C457.597 85.731 454.91 88.4173 451.597 88.4173H401.849C398.535 88.4173 395.849 85.731 395.849 82.4173V35.3164Z" stroke="black" stroke-width="3"/>
  <path d="M426.988 46.248H437.972L443.705 54.8976L426.988 74.1549" stroke="black" stroke-width="3" stroke-linecap="round" stroke-linejoin="round"/>
  <path d="M426.989 46.248H416.006L410.272 54.8976L426.989 74.1549" stroke="black" stroke-width="3" stroke-linecap="round" stroke-linejoin="round"/>
  <path d="M443.473 55.0703L418.509 55.0703" stroke="black" stroke-width="3" stroke-linecap="round" stroke-linejoin="round"/>
  <rect x="466.318" y="96.7617" width="61.748" height="59.1009" rx="6" stroke="black" stroke-width="3"/>
  <path d="M506.817 140.661C506.817 141.489 507.489 142.161 508.317 142.161C509.146 142.161 509.817 141.489 509.817 140.661L506.817 140.661ZM484.568 140.661C484.568 141.489 485.24 142.161 486.068 142.161C486.897 142.161 487.568 141.489 487.568 140.661L484.568 140.661ZM506.817 138.521L506.817 140.661L509.817 140.661L509.817 138.521L506.817 138.521ZM487.568 140.661L487.568 138.521L484.568 138.521L484.568 140.661L487.568 140.661ZM492.068 134.021L502.317 134.021L502.317 131.021L492.068 131.021L492.068 134.021ZM487.568 138.521C487.568 136.036 489.583 134.021 492.068 134.021L492.068 131.021C487.926 131.021 484.568 134.379 484.568 138.521L487.568 138.521ZM509.817 138.521C509.817 134.379 506.459 131.021 502.317 131.021L502.317 134.021C504.802 134.021 506.817 136.036 506.817 138.521L509.817 138.521Z" fill="black"/>
  <circle cx="497.193" cy="119.553" r="6.08809" stroke="black" stroke-width="3"/>
  <path d="M506.823 70.8504C506.823 71.6789 507.495 72.3504 508.323 72.3504C509.151 72.3504 509.823 71.6789 509.823 70.8504L506.823 70.8504ZM484.574 70.8504C484.574 71.6789 485.246 72.3504 486.074 72.3504C486.903 72.3504 487.574 71.6789 487.574 70.8504L484.574 70.8504ZM506.823 68.7109L506.823 70.8504L509.823 70.8504L509.823 68.7109L506.823 68.7109ZM487.574 70.8504L487.574 68.7109L484.574 68.7109L484.574 70.8504L487.574 70.8504ZM492.074 64.2109L502.323 64.2109L502.323 61.2109L492.074 61.2109L492.074 64.2109ZM487.574 68.7109C487.574 66.2257 489.589 64.2109 492.074 64.2109L492.074 61.2109C487.932 61.2109 484.574 64.5688 484.574 68.7109L487.574 68.7109ZM509.823 68.7109C509.823 64.5688 506.465 61.2109 502.323 61.2109L502.323 64.2109C504.808 64.2109 506.823 66.2257 506.823 68.7109L509.823 68.7109Z" fill="black"/>
  <circle cx="497.198" cy="49.7424" r="6.08809" stroke="black" stroke-width="3"/>
  <rect x="395.844" y="97.1406" width="61.748" height="59.1009" rx="6" stroke="black" stroke-width="3"/>
  <rect x="466.318" y="164.961" width="61.748" height="59.1009" rx="6" fill="black" stroke="black" stroke-width="3"/>
  <path d="M497.193 203.492L497.193 185.528" stroke="#F5F3ED" stroke-width="3" stroke-linecap="round" stroke-linejoin="round"/>
  <path d="M488.21 194.512L506.174 194.512" stroke="#F5F3ED" stroke-width="3" stroke-linecap="round" stroke-linejoin="round"/>
  <path d="M242.459 65.7188H192.711C189.397 65.7188 186.711 68.405 186.711 71.7187V86.4205C186.711 89.7342 189.397 92.4205 192.711 92.4205H195.562H242.459C245.773 92.4205 248.459 89.7342 248.459 86.4205V71.7188C248.459 68.405 245.773 65.7188 242.459 65.7188Z" fill="black" stroke="black" stroke-width="3" stroke-linecap="round"/>
  <rect x="186.711" y="29.3164" width="61.748" height="26.7017" rx="6" stroke="black" stroke-width="3"/>
  <rect x="256.648" y="29.3164" width="61.748" height="26.7017" rx="6" stroke="black" stroke-width="3"/>
  <path d="M141.067 116.443L151.533 148.407C151.533 148.407 145.497 160.471 144.689 170.054C143.88 179.638 144.29 224.707 144.29 224.707C144.29 224.707 137.856 246.433 136.648 255.285C135.441 264.137 133.426 295.169 133.426 295.169H147.501L146.704 306.835" stroke="black" stroke-width="3" stroke-linecap="round" stroke-linejoin="round"/>
  <path d="M162.352 170.055C165.574 179.704 192.354 214.867 199.597 222.921C200.804 244.647 202.984 293.12 202.984 293.12H216.661V306.802" stroke="black" stroke-width="3" stroke-linecap="round" stroke-linejoin="round"/>
  <path d="M129.371 103.57H116.082C116.082 103.57 117.754 152.262 133.38 152.262C143.835 152.262 145.982 131.962 145.982 131.962" stroke="black" stroke-width="3" stroke-linecap="round" stroke-linejoin="round"/>
  <path d="M167.418 180.709L162.074 295.152C162.074 295.152 180.753 298.349 185.582 306.802" stroke="black" stroke-width="3" stroke-linecap="round" stroke-linejoin="round"/>
  <path d="M120.114 103.57C120.114 103.57 115.684 86.2642 121.72 85.8432C127.755 85.4222 129.372 103.57 129.372 103.57" stroke="black" stroke-width="3" stroke-linecap="round" stroke-linejoin="round"/>
  <path d="M151.809 148.301L179.863 148.301" stroke="black" stroke-width="3" stroke-linecap="round" stroke-linejoin="round"/>
  <path d="M149.38 103.569C159.214 107.126 169.89 95.5039 167.099 85.8431C160.868 70.4368 174.517 71.1683 170.852 62.0503C167.186 52.9323 155.892 53.2487 149.402 60.0955C143.322 66.4992 145.316 74.8638 141.65 81.0681C137.364 88.1586 134.895 98.3291 149.38 103.569Z" fill="black" stroke="black" stroke-width="3" stroke-linecap="round" stroke-linejoin="round"/>
  <path d="M163.261 89.7769C167.458 91.9972 173.55 92.1449 176.632 87.2073C183.589 75.9243 169.611 59.2656 169.611 59.2656" stroke="black" stroke-width="3" stroke-linecap="round" stroke-linejoin="round"/>
  <path d="M132.306 137.316C132.306 137.316 130.873 102.363 139.722 99.604C148.57 96.8453 173.51 95.5712 180.753 99.604C187.996 103.637 207.332 122.139 207.332 122.139L214.02 99.6038H228.107C228.107 99.6038 221.009 142.657 210.554 141.859C200.1 141.061 182.791 122.139 182.791 122.139L180.753 148.824C180.753 148.824 216.205 207.384 219.029 219.46C221.853 231.536 230.574 293.153 230.574 293.153C230.574 293.153 251.187 299.601 253.623 306.858" stroke="black" stroke-width="3" stroke-linecap="round" stroke-linejoin="round"/>
  <path d="M214.035 99.4994C214.035 99.4994 220.36 78.4064 228.402 80.2643C234.713 82.5484 225.077 99.4994 225.077 99.4994" fill="#F5F3ED"/>
  <path d="M214.035 99.4994C214.035 99.4994 220.36 78.4064 228.402 80.2643C234.713 82.5484 225.077 99.4994 225.077 99.4994H214.035Z" stroke="black" stroke-width="3" stroke-linecap="round" stroke-linejoin="round"/>
  <path d="M146.074 295.152H162.074" stroke="black" stroke-width="3" stroke-linecap="round" stroke-linejoin="round"/>
  <path d="M215.074 293.152H231.074" stroke="black" stroke-width="3" stroke-linecap="round" stroke-linejoin="round"/>
  <path d="M319.784 42.666L352.664 42.666C354.321 42.666 355.664 44.0092 355.664 45.666L355.664 124.14C355.664 125.796 357.007 127.14 358.664 127.14L391.911 127.14" stroke="black" stroke-width="3" stroke-linecap="round" stroke-linejoin="round"/>
  <path d="M319.784 42.666L352.664 42.666C354.321 42.666 355.664 44.0092 355.664 45.666L355.664 191.512C355.664 193.169 357.007 194.512 358.664 194.512L391.911 194.512" stroke="black" stroke-width="3" stroke-linecap="round" stroke-linejoin="round"/>
  <path d="M395.849 122.457C394.523 122.457 393.251 122.984 392.313 123.921C391.375 124.859 390.849 126.131 390.849 127.457C390.849 128.783 391.375 130.055 392.313 130.993C393.251 131.93 394.523 132.457 395.849 132.457L395.849 127.457L395.849 122.457Z" fill="black"/>
  <path d="M395.849 189.512C394.523 189.512 393.251 190.039 392.313 190.976C391.375 191.914 390.849 193.186 390.849 194.512C390.849 195.838 391.375 197.11 392.313 198.047C393.251 198.985 394.523 199.512 395.849 199.512L395.849 194.512L395.849 189.512Z" fill="black"/>
  <path d="M441.574 120.979L443.074 120.979C443.074 120.449 442.794 119.958 442.337 119.688L441.574 120.979ZM441.574 138.652L441.574 140.152C442.403 140.152 443.074 139.481 443.074 138.652L441.574 138.652ZM410.074 138.652C410.074 139.481 410.746 140.152 411.574 140.152C412.403 140.152 413.074 139.481 413.074 138.652L410.074 138.652ZM411.574 120.479L410.848 119.167C410.371 119.431 410.074 119.933 410.074 120.479L411.574 120.479ZM418.574 137.152C417.746 137.152 417.074 137.824 417.074 138.652C417.074 139.481 417.746 140.152 418.574 140.152L418.574 137.152ZM426.629 112.152L427.392 110.861C426.934 110.591 426.368 110.583 425.903 110.84L426.629 112.152ZM440.074 120.979L440.074 138.652L443.074 138.652L443.074 120.979L440.074 120.979ZM413.074 138.652L413.074 120.479L410.074 120.479L410.074 138.652L413.074 138.652ZM441.574 137.152L418.574 137.152L418.574 140.152L441.574 140.152L441.574 137.152ZM412.3 121.792L427.355 113.465L425.903 110.84L410.848 119.167L412.3 121.792ZM425.866 113.444L440.811 122.271L442.337 119.688L427.392 110.861L425.866 113.444Z" fill="black"/>
  <path d="M436.449 185.652H416.574" stroke="black" stroke-width="3" stroke-linecap="round" stroke-linejoin="round"/>
  <path d="M432.699 180.652H420.699" stroke="black" stroke-width="3" stroke-linecap="round" stroke-linejoin="round"/>
  <path d="M466.074 127.152H458.074" stroke="black" stroke-width="3" stroke-linecap="round" stroke-linejoin="round"/>
  <path d="M466.074 59.1523H458.074" stroke="black" stroke-width="3" stroke-linecap="round" stroke-linejoin="round"/>
  <path d="M466.074 194.152H458.074" stroke="black" stroke-width="3" stroke-linecap="round" stroke-linejoin="round"/>
  <circle cx="426.449" cy="198.652" r="3.125" stroke="black" stroke-width="2.75"/>
  <path d="M441.324 190.652L442.824 190.652C442.824 190.255 442.666 189.873 442.385 189.592C442.104 189.31 441.722 189.152 441.324 189.152L441.324 190.652ZM441.324 206.652L441.324 208.152C442.153 208.152 442.824 207.481 442.824 206.652L441.324 206.652ZM410.074 206.652C410.074 207.481 410.746 208.152 411.574 208.152C412.403 208.152 413.074 207.481 413.074 206.652L410.074 206.652ZM411.574 190.652L411.574 189.152C410.746 189.152 410.074 189.824 410.074 190.652L411.574 190.652ZM418.574 205.152C417.746 205.152 417.074 205.824 417.074 206.652C417.074 207.481 417.746 208.152 418.574 208.152L418.574 205.152ZM439.824 190.652L439.824 206.652L442.824 206.652L442.824 190.652L439.824 190.652ZM413.074 206.652L413.074 190.652L410.074 190.652L410.074 206.652L413.074 206.652ZM411.574 192.152L441.324 192.152L441.324 189.152L411.574 189.152L411.574 192.152ZM441.324 205.152L418.574 205.152L418.574 208.152L441.324 208.152L441.324 205.152Z" fill="black"/>
  <path d="M316.07 92.152C306.141 99.088 250.609 144.829 236.285 113.474" stroke="black" stroke-width="3" stroke-linecap="round"/>
</svg>
