<svg viewBox="0 0 600 370" fill="none" xmlns="http://www.w3.org/2000/svg">
  <path d="M348.133 147.864C344.395 150.044 335.741 149.954 331.031 132.152C325.144 109.899 326.264 96.1144 331.253 87.3114C334.974 80.7445 340.842 79.2917 343.266 80.9497" stroke="black" stroke-width="3" stroke-linecap="round" stroke-linejoin="round"/>
  <path d="M377.506 108.461C363.909 109.135 349.532 96.6869 344.8 86.6382C343.931 94.2088 340.537 110.209 333.559 112.236" stroke="black" stroke-width="3" stroke-linecap="round" stroke-linejoin="round"/>
  <path d="M225.049 153.778H254.9" stroke="black" stroke-width="3" stroke-linecap="round" stroke-linejoin="round"/>
  <path d="M276.684 225.582C284.921 220.188 296.382 212.637 298.889 215.873C299.603 216.866 299.332 219.104 296.426 220.848" stroke="black" stroke-width="3" stroke-linecap="round" stroke-linejoin="round"/>
  <path d="M279.911 230.422C288.115 225.047 299.618 217.482 302.115 220.707C303.524 222.788 300.759 225.131 294.543 228.905" stroke="black" stroke-width="3" stroke-linecap="round" stroke-linejoin="round"/>
  <path d="M314.09 300.293C311.4 309.961 307.734 319.053 311.641 320.5C314.101 321.235 315.283 318.219 317.031 310.986" stroke="black" stroke-width="3" stroke-linecap="round" stroke-linejoin="round"/>
  <path d="M320.115 300.293C317.425 309.961 313.758 319.053 317.666 320.5C320.125 321.235 321.308 318.219 323.056 310.986" stroke="black" stroke-width="3" stroke-linecap="round" stroke-linejoin="round"/>
  <path d="M326.127 300.292C323.437 309.96 319.474 319.881 323.678 320.499C327.883 321.117 330.971 306.604 333.256 300.712" stroke="black" stroke-width="3" stroke-linecap="round" stroke-linejoin="round"/>
  <path d="M282.331 236.07C290.831 230.591 300.283 224.874 302.5 228.161" stroke="black" stroke-width="3" stroke-linecap="round" stroke-linejoin="round"/>
  <path d="M255.708 153.778C264.317 163.01 282.149 160.417 289.649 174.334C293.78 182.001 296.88 189.163 299.274 194.924" stroke="black" stroke-width="3" stroke-linecap="round" stroke-linejoin="round"/>
  <path d="M225.049 153.778C215.677 163.289 187.365 168.776 181.793 183.408C174.828 201.697 157.231 280.709 169.695 298.998" stroke="black" stroke-width="3" stroke-linecap="round" stroke-linejoin="round"/>
  <path d="M169.382 298.595C179.212 313.29 221.89 298.536 265.945 271.351C273.59 266.575 277.231 254.452 279.416 247.472C281.6 240.492 304.538 234.615 302.354 228.002" stroke="black" stroke-width="3" stroke-linecap="round" stroke-linejoin="round"/>
  <path d="M92 291.737L165.752 291.737M507.42 291.737L429.165 291.737M229.084 291.737L313.392 291.737" stroke="black" stroke-width="3" stroke-linecap="round" stroke-linejoin="round"/>
  <path d="M188.745 270.762C217.135 264.344 250.05 243.047 250.05 243.047L255.175 250.011C257.372 241.825 264.734 224.846 273.813 218.982C285.162 211.651 291.733 208.581 293.93 211.147C294.809 212.027 294.165 214.583 291.968 216.415" stroke="black" stroke-width="3" stroke-linecap="round" stroke-linejoin="round"/>
  <path d="M223.46 155.239C241.102 138.845 225.339 115.223 226.154 99.4086C226.969 83.5943 237.021 58.6231 260.607 68.5271C284.193 78.4312 284.661 147.665 256.003 133.59L256.003 153.811" stroke="black" stroke-width="3" stroke-linecap="round" stroke-linejoin="round"/>
  <path d="M241.394 113.079C244.688 122.227 236.741 129.181 232.654 127.4C226.04 105.912 208.222 104.569 217.12 94.7569C209.745 91.312 213.353 82.4555 219.318 82.5123C214.019 77.7667 216.248 67.9339 225.648 68.5867C225.019 59.1605 232.479 56.4412 240.532 60.6807C242.512 49.6533 253.224 53.9908 255.557 60.3886C258.454 56.5395 267.15 56.4793 266.354 65.3164C274.454 59.8499 282.943 74.1433 272.062 80.4162C255.762 83.1046 247.455 86.053 250.522 102.011C240.562 100.223 238.101 103.932 241.394 113.079Z" fill="black" stroke="black" stroke-width="3" stroke-linejoin="round"/>
  <path d="M370.673 146.518C371.187 155.306 369.055 167.123 384.712 178.343C396.578 186.846 413.007 187.381 420.635 217.14C426.737 240.947 438.262 283.323 428.792 291.738C409.465 291.738 357.242 291.738 357.242 291.738" stroke="black" stroke-width="3" stroke-linecap="round" stroke-linejoin="round"/>
  <path d="M293.626 209.447C301.255 179.686 324.115 182.452 335.982 173.949C348.746 164.803 348.161 156.875 348.89 147.729" stroke="black" stroke-width="3" stroke-linecap="round" stroke-linejoin="round"/>
  <path d="M333.197 112.383C334.925 127.327 339.907 152.827 361.175 149.024C379.837 145.686 379.869 122.196 377.681 108.508" stroke="black" stroke-width="3" stroke-linecap="round" stroke-linejoin="round"/>
  <path d="M285.155 242.523C283.933 252.633 281.584 277.262 282.405 291.362" stroke="black" stroke-width="3" stroke-linecap="round" stroke-linejoin="round"/>
  <path d="M343.947 80.3431C347.054 76.1077 355.072 72.3387 363.069 73.3586C373.066 74.6335 383.702 90.6094 385.503 100.804C390.26 127.721 384.641 144.74 371.135 145.834" stroke="black" stroke-width="3" stroke-linecap="round" stroke-linejoin="round"/>
  <path d="M396.131 222.354C398.69 245.478 406.575 269.566 406.575 269.566C392.807 269.444 359.427 270.667 345.537 273.237C332.232 275.698 313.767 288.201 308.108 300.902C304.938 310.051 302.06 321.484 306.092 320.748M333.745 300.902C338.505 300.902 345.537 300.168 348.978 291.726" stroke="black" stroke-width="3" stroke-linecap="round" stroke-linejoin="round"/>
  <path d="M427.551 224.775C427.551 224.775 405.365 230.019 398.104 232.843C397.7 239.7 405.365 268.341 405.365 268.341C393.801 268.341 366.236 268.986 348.487 271.568C330.738 274.15 317.695 285.552 313.392 290.931H302.501L306.131 244.541L286.365 241.717L302.501 231.229C302.904 230.019 303.146 227.195 300.887 225.582C304.517 222.354 302.501 219.934 299.273 218.724C299.919 214.206 296.315 213.883 294.433 214.287C294.567 212.942 294.594 209.849 293.626 208.236C298.467 187.582 321.46 178.654 332.351 176.771C333.965 180.94 340.822 189.277 355.344 189.277C369.866 189.277 382.103 183.091 386.405 179.999C388.557 181.612 395.119 185.727 404.155 189.277C413.19 192.826 423.517 214.421 427.551 224.775Z" fill="black" stroke="black" stroke-width="3" stroke-linecap="round" stroke-linejoin="round"/>
</svg>
