<svg viewBox="0 0 216 154" fill="none" xmlns="http://www.w3.org/2000/svg">
    <path d="M96.2937 152.949L146.816 152.949C157.025 152.949 165.3 144.674 165.3 134.465L165.3 74.0847C165.3 63.8764 157.025 55.6008 146.816 55.6008L69.1841 55.6008C58.9757 55.6008 50.7002 63.8764 50.7002 74.0847L50.7002 110.434L50.7002 134.465C50.7002 144.674 58.9757 152.949 69.1841 152.949L82.1228 152.949" stroke="#1A1B1C" stroke-width="1.8" stroke-linecap="round" stroke-linejoin="round"/>
    <path d="M85.5355 54.368C85.5355 54.865 85.9385 55.268 86.4355 55.268C86.9326 55.268 87.3355 54.865 87.3355 54.368H85.5355ZM130.181 23.2534H129.281H130.181ZM129.281 54.3679C129.281 54.865 129.684 55.2679 130.181 55.2679C130.678 55.2679 131.081 54.865 131.081 54.3679H129.281ZM87.3355 54.368V23.2534H85.5355V54.368H87.3355ZM87.3355 23.2534C87.3355 11.6706 96.7253 2.28086 108.308 2.28086V0.480859C95.7312 0.480859 85.5355 10.6765 85.5355 23.2534H87.3355ZM108.308 2.28086C119.891 2.28086 129.281 11.6706 129.281 23.2534H131.081C131.081 10.6765 120.885 0.480859 108.308 0.480859V2.28086ZM129.281 23.2534V31.8792H131.081V23.2534H129.281ZM129.281 31.8792V54.3679H131.081V31.8792H129.281Z" fill="#1A1B1C"/>
    <path d="M108 89.4873L108 119.061" stroke="#1A1B1C" stroke-width="1.8" stroke-linecap="round" stroke-linejoin="round"/>
    <path d="M8.18652 64.2246L23.2915 85.9208C24.4434 87.5754 26.3319 88.5617 28.348 88.5617H50.6994" stroke="#1A1B1C" stroke-width="1.8"/>
    <circle cx="6.95426" cy="61.7609" r="5.86129" fill="#1A1B1C" stroke="#1A1B1C" stroke-width="0.6"/>
    <path d="M9.41895 104.273H50.6996" stroke="#1A1B1C" stroke-width="1.8"/>
    <circle cx="6.95426" cy="104.274" r="5.86129" fill="#1A1B1C" stroke="#1A1B1C" stroke-width="0.6"/>
    <path d="M8.18652 144.014L23.2915 122.317C24.4434 120.663 26.3319 119.677 28.348 119.677H50.6994" stroke="#1A1B1C" stroke-width="1.8"/>
    <circle cx="6.95426" cy="146.786" r="5.86129" fill="#1A1B1C" stroke="#1A1B1C" stroke-width="0.6"/>
    <path d="M207.812 64.2246L192.708 85.9208C191.556 87.5754 189.667 88.5617 187.651 88.5617H165.3" stroke="#1A1B1C" stroke-width="1.8"/>
    <circle r="5.86129" transform="matrix(-1 0 0 1 209.045 61.7609)" fill="#1A1B1C" stroke="#1A1B1C" stroke-width="0.6"/>
    <path d="M206.58 104.274H165.299" stroke="#1A1B1C" stroke-width="1.8"/>
    <circle r="5.86129" transform="matrix(-1 0 0 1 209.045 104.275)" fill="#1A1B1C" stroke="#1A1B1C" stroke-width="0.6"/>
    <path d="M207.812 144.014L192.708 122.317C191.556 120.663 189.667 119.677 187.651 119.677H165.3" stroke="#1A1B1C" stroke-width="1.8"/>
    <circle r="5.86129" transform="matrix(-1 0 0 1 209.045 146.786)" fill="#1A1B1C" stroke="#1A1B1C" stroke-width="0.6"/>
</svg>
