<svg viewBox="0 0 620 336" fill="none" xmlns="http://www.w3.org/2000/svg">
  <path d="M90.5 306.857L528.066 306.857" stroke="black" stroke-width="3" stroke-linecap="round" stroke-linejoin="round"/>
  <path d="M433.29 124.804C432.278 121.048 430.553 110.909 431.247 106.054C427.788 103.069 423.405 99.7236 421.96 98.5677C423.983 94.9557 429.861 87.8804 435.409 87.5336C437.043 87.4315 441.045 87.3714 444.508 87.3438M461.416 87.5336C464.161 88.1115 468.21 91.8361 473.844 97.9043C470.006 101.316 465.67 104.609 464.226 106.054L460.985 124.752" stroke="black" stroke-width="3" stroke-linecap="round" stroke-linejoin="round"/>
  <path d="M436.852 56.3242C432.882 61.4166 428.635 77.2106 434.126 80.4105C437.91 82.6143 442.779 78.8852 442.779 78.8852L443.646 83.2088L444.51 87.2174" stroke="black" stroke-width="3" stroke-linecap="round" stroke-linejoin="round"/>
  <path d="M438.954 61.067C448.003 69.871 443.633 87.2585 460.55 80.598C469.218 77.1848 465.074 73.7767 460.55 67.5946C456.025 61.4125 456.535 62.757 454.797 57.513C453.059 52.2691 444.003 51.7596 438.954 54.4686C433.905 57.1775 438.954 61.067 438.954 61.067Z" fill="black" stroke="black" stroke-width="4" stroke-linecap="round" stroke-linejoin="round"/>
  <path d="M472.253 96.2031C478.754 102.849 493.231 116.402 493.925 120.91C494.792 126.544 476.587 150.817 467.918 150.817C459.249 150.817 451.014 150.817 451.014 146.916C452.747 139.981 464.306 142.293 467.918 143.015L483.089 122.643L464.51 106.197" stroke="black" stroke-width="3" stroke-linecap="round" stroke-linejoin="round"/>
  <path d="M422.692 97.3821L408.969 120.042C404.779 111.373 397.266 96.6356 390.331 94.0348C385.096 92.0715 376.46 90.567 373.86 93.1679C371.259 95.7687 378.163 102.27 387.73 102.27C394.665 115.274 400.3 132.612 408.969 132.612C415.904 132.612 421.539 120.042 431.075 106.171" stroke="black" stroke-width="3" stroke-linecap="round" stroke-linejoin="round"/>
  <path d="M433.308 124.811C429.554 131.075 422.653 151.647 425.079 183.815C427.504 215.983 431.575 262.487 433.308 281.718H443.556M517.331 281.718C508.669 260.593 491.753 213.71 484.823 195.179C480.125 182.615 474.917 165.294 470.375 150.817M461.002 124.811C462.668 127.563 465.024 134.167 467.754 142.582M455.85 281.718H504.978" stroke="black" stroke-width="3" stroke-linecap="round" stroke-linejoin="round"/>
  <path d="M505.098 281.718V290.784L508.678 306.858M516.969 281.014L528.066 306.858" stroke="black" stroke-width="3" stroke-linecap="round" stroke-linejoin="round"/>
  <path d="M455.781 281.717L462.283 306.423H420.239L443.645 288.652V281.717" stroke="black" stroke-width="3" stroke-linecap="round" stroke-linejoin="round"/>
  <path d="M402.19 144.152V239.682C402.19 246.31 396.817 251.682 390.19 251.682H102.5C95.8726 251.682 90.5 246.31 90.5 239.682V46.1133C90.5 39.4859 95.8726 34.1133 102.5 34.1133H390.19C396.817 34.1133 402.19 39.4859 402.19 46.1133V106.91" stroke="black" stroke-width="3" stroke-linecap="round"/>
  <path d="M253.863 89.1543C255.072 93.8695 258.832 103.989 264.2 106.745C266.557 100.035 259.303 89.1543 253.863 89.1543Z" fill="black" stroke="black" stroke-width="3" stroke-linecap="round" stroke-linejoin="round"/>
  <path d="M226.297 125.424C233.945 120.393 234.64 110.19 236.816 100.941C236.816 112.911 237.964 123.49 240.261 127.237C240.745 129.776 241.422 135.797 240.261 139.569C238.811 144.284 230.287 146.461 222.308 147.367C217.955 137.756 219.406 129.958 226.297 125.424Z" fill="black" stroke="black" stroke-width="3" stroke-linecap="round" stroke-linejoin="round"/>
  <path d="M277.021 125.425C269.373 120.393 267.28 113.456 265.104 104.207C265.104 116.176 263.593 124.76 261.296 128.508C260.812 131.046 261.896 135.798 263.056 139.57C264.507 144.285 275.574 147.153 281.511 148.955C285.863 139.344 283.912 129.958 277.021 125.425Z" fill="black" stroke="black" stroke-width="3" stroke-linecap="round" stroke-linejoin="round"/>
  <path d="M253.5 88.7915C252.291 96.3479 247.443 111.134 237.723 109.828C235.728 98.0406 244.07 86.2525 253.5 88.7915Z" fill="black" stroke="black" stroke-width="3" stroke-linecap="round" stroke-linejoin="round"/>
  <circle cx="252.831" cy="123.909" r="55.2563" stroke="black" stroke-width="3"/>
  <path d="M260.433 127.35C259.481 131.792 259.729 139.88 263.102 142.614C269.571 147.858 284.144 145.96 293.789 160.681" stroke="black" stroke-width="3" stroke-linecap="round" stroke-linejoin="round"/>
  <path d="M241.147 127.35C242.099 131.792 241.851 139.88 238.478 142.614C232.009 147.858 220.565 143.626 210.92 158.348" stroke="black" stroke-width="3" stroke-linecap="round" stroke-linejoin="round"/>
  <path d="M265.271 107.867C265.271 123.574 260.034 132.142 249.998 132.142C242.143 132.142 237.779 124.526 236.47 109.295C235.161 94.064 243.452 87.4004 249.998 87.4004C256.543 87.4004 265.271 92.1601 265.271 107.867Z" stroke="black" stroke-width="3" stroke-linecap="round" stroke-linejoin="round"/>
  <path d="M143.126 102.258C142.585 103.254 142.126 104.301 141.759 105.386C140.902 107.918 140.542 110.665 140.785 113.499C141.73 124.504 151.418 132.66 162.423 131.715C173.428 130.77 181.584 121.083 180.639 110.078C179.694 99.0725 170.007 90.9169 159.001 91.8617C156.359 92.0885 153.881 92.8195 151.653 93.9517" stroke="black" stroke-width="3" stroke-linecap="round"/>
  <rect x="333.574" y="119.152" width="24.7385" height="24.7385" transform="rotate(33.0744 333.574 119.152)" stroke="black" stroke-width="3" stroke-linejoin="round"/>
  <path d="M277.074 194.661C277.074 194.661 293.479 179.493 307.829 181.302C322.179 183.111 318.295 195.152 318.295 195.152C318.295 195.152 325.574 187.152 335.074 188.652" stroke="black" stroke-width="3" stroke-linecap="round" stroke-linejoin="round"/>
</svg>
