<svg width="48" height="48" viewBox="0 0 48 48" fill="none" xmlns="http://www.w3.org/2000/svg">
  <path d="M11.2568 14.0352C10.4284 14.0352 9.75684 14.7067 9.75684 15.5352C9.75684 16.3636 10.4284 17.0352 11.2568 17.0352L11.2568 14.0352ZM36.7429 17.0352C37.5713 17.0352 38.2429 16.3636 38.2429 15.5352C38.2429 14.7067 37.5713 14.0352 36.7429 14.0352L36.7429 17.0352ZM11.2568 17.0352L36.7429 17.0352L36.7429 14.0352L11.2568 14.0352L11.2568 17.0352Z" fill="#00857C"/>
  <path d="M18.7148 20.0098C17.8864 20.0098 17.2148 20.6813 17.2148 21.5098C17.2148 22.3382 17.8864 23.0098 18.7148 23.0098V20.0098ZM29.2848 23.0098C30.1132 23.0098 30.7848 22.3382 30.7848 21.5098C30.7848 20.6813 30.1132 20.0098 29.2848 20.0098V23.0098ZM18.7148 23.0098H29.2848V20.0098H18.7148V23.0098Z" fill="#00857C"/>
  <path d="M43.3555 7.53125L44.8555 7.53125C44.8555 6.70282 44.1839 6.03125 43.3555 6.03125L43.3555 7.53125ZM43.3555 40.576L43.3555 42.076C44.1839 42.076 44.8555 41.4044 44.8555 40.576L43.3555 40.576ZM3.01732 40.576C3.01732 41.4044 3.6889 42.076 4.51732 42.076C5.34575 42.076 6.01732 41.4044 6.01732 40.576L3.01732 40.576ZM4.51733 7.53125L4.51733 6.03125C3.6889 6.03125 3.01733 6.70282 3.01733 7.53125L4.51733 7.53125ZM12.4998 39.076C11.6713 39.076 10.9998 39.7476 10.9998 40.576C10.9998 41.4044 11.6713 42.076 12.4998 42.076L12.4998 39.076ZM41.8555 7.53125L41.8555 40.576L44.8555 40.576L44.8555 7.53125L41.8555 7.53125ZM6.01732 40.576L6.01733 7.53125L3.01733 7.53125L3.01732 40.576L6.01732 40.576ZM4.51733 9.03125L43.3555 9.03125L43.3555 6.03125L4.51733 6.03125L4.51733 9.03125ZM43.3555 39.076L12.4998 39.076L12.4998 42.076L43.3555 42.076L43.3555 39.076Z" fill="#00857C"/>
</svg>
